Athiti-500.ufo
<glyph name="exclam" format="1">
  <advance width="242"/>
  <unicode hex="0021"/>
  <note>
	exclam
  </note>
  <outline>
    <contour>
      <point x="158" y="167" type="line"/>
      <point x="166" y="426" type="line"/>
      <point x="166" y="616" type="line"/>
      <point x="76" y="616" type="line"/>
      <point x="76" y="426" type="line"/>
      <point x="84" y="167" type="line"/>
    </contour>
    <contour>
      <point x="166" y="0" type="line"/>
      <point x="166" y="93" type="line"/>
      <point x="76" y="93" type="line"/>
      <point x="76" y="0" type="line"/>
    </contour>
  </outline>
</glyph>
<glyph name="ampersand" format="1">
  <advance width="673"/>
  <unicode hex="0026"/>
  <note>
	ampersand
  </note>
  <outline>
    <contour>
      <point x="370" y="-16"/>
      <point x="421" y="-6"/>
      <point x="459" y="12" type="curve"/>
      <point x="469" y="27"/>
      <point x="478" y="49"/>
      <point x="484" y="69" type="curve"/>
      <point x="492" y="69" type="line"/>
      <point x="562" y="-9" type="line"/>
      <point x="623" y="33" type="line"/>
      <point x="506" y="151" type="line"/>
      <point x="521" y="195"/>
      <point x="529" y="233"/>
      <point x="542" y="300" type="curve"/>
      <point x="466" y="317" type="line"/>
      <point x="458" y="265"/>
      <point x="452" y="233"/>
      <point x="442" y="201" type="curve"/>
      <point x="277" y="357" type="line" smooth="yes"/>
      <point x="244" y="389"/>
      <point x="231" y="408"/>
      <point x="231" y="457" type="curve" smooth="yes"/>
      <point x="231" y="512"/>
      <point x="257" y="534"/>
      <point x="324" y="534" type="curve" smooth="yes"/>
      <point x="360" y="534"/>
      <point x="383" y="530"/>
      <point x="406" y="520" type="curve"/>
      <point x="415" y="434" type="line"/>
      <point x="476" y="434" type="line"/>
      <point x="484" y="454"/>
      <point x="489" y="478"/>
      <point x="489" y="501" type="curve" smooth="yes"/>
      <point x="489" y="538" type="line"/>
      <point x="464" y="572"/>
      <point x="415" y="606"/>
      <point x="324" y="606" type="curve" smooth="yes"/>
      <point x="210" y="606"/>
      <point x="147" y="548"/>
      <point x="147" y="456" type="curve" smooth="yes"/>
      <point x="147" y="411"/>
      <point x="166" y="378"/>
      <point x="200" y="344" type="curve"/>
      <point x="200" y="336" type="line"/>
      <point x="117" y="303"/>
      <point x="68" y="256"/>
      <point x="68" y="158" type="curve" smooth="yes"/>
      <point x="68" y="43"/>
      <point x="158" y="-16"/>
      <point x="288" y="-16" type="curve" smooth="yes"/>
    </contour>
    <contour>
      <point x="209" y="58"/>
      <point x="152" y="84"/>
      <point x="152" y="158" type="curve" smooth="yes"/>
      <point x="152" y="234"/>
      <point x="186" y="266"/>
      <point x="249" y="285" type="curve"/>
      <point x="418" y="124" type="line"/>
      <point x="415" y="104"/>
      <point x="409" y="85"/>
      <point x="400" y="71" type="curve"/>
      <point x="375" y="63"/>
      <point x="343" y="58"/>
      <point x="290" y="58" type="curve" smooth="yes"/>
    </contour>
  </outline>
</glyph>
<glyph name="parenright" format="1">
  <advance width="309"/>
  <unicode hex="0029"/>
  <note>
	parenright
  </note>
  <outline>
    <contour>
      <point x="191" y="-85"/>
      <point x="230" y="-41"/>
      <point x="234" y="-4" type="curve"/>
      <point x="234" y="620" type="line"/>
      <point x="230" y="657"/>
      <point x="191" y="701"/>
      <point x="146" y="713" type="curve"/>
      <point x="120" y="713"/>
      <point x="92" y="711"/>
      <point x="72" y="707" type="curve"/>
      <point x="72" y="635" type="line"/>
      <point x="150" y="635" type="line"/>
      <point x="150" y="-19" type="line"/>
      <point x="72" y="-19" type="line"/>
      <point x="72" y="-91" type="line"/>
      <point x="92" y="-95"/>
      <point x="120" y="-97"/>
      <point x="146" y="-97" type="curve"/>
    </contour>
  </outline>
</glyph>
<glyph name="asterisk" format="1">
  <advance width="454"/>
  <unicode hex="002A"/>
  <note>
	asterisk
  </note>
  <outline>
    <contour>
      <point x="223" y="424" type="line"/>
      <point x="231" y="424" type="line"/>
      <point x="301" y="311" type="line"/>
      <point x="358" y="352" type="line"/>
      <point x="274" y="458" type="line"/>
      <point x="276" y="464" type="line"/>
      <point x="394" y="494" type="line"/>
      <point x="372" y="561" type="line"/>
      <point x="259" y="512" type="line"/>
      <point x="254" y="516" type="line"/>
      <point x="261" y="645" type="line"/>
      <point x="193" y="645" type="line"/>
      <point x="200" y="516" type="line"/>
      <point x="195" y="512" type="line"/>
      <point x="82" y="561" type="line"/>
      <point x="60" y="494" type="line"/>
      <point x="178" y="464" type="line"/>
      <point x="180" y="458" type="line"/>
      <point x="96" y="352" type="line"/>
      <point x="153" y="311" type="line"/>
    </contour>
  </outline>
</glyph>
<glyph name="zero" format="1">
  <advance width="609"/>
  <unicode hex="0030"/>
  <note>
	zero
  </note>
  <outline>
    <contour>
      <point x="492" y="-9"/>
      <point x="554" y="97"/>
      <point x="554" y="311" type="curve" smooth="yes"/>
      <point x="554" y="512"/>
      <point x="484" y="606"/>
      <point x="312" y="606" type="curve" smooth="yes"/>
      <point x="117" y="606"/>
      <point x="55" y="495"/>
      <point x="55" y="286" type="curve" smooth="yes"/>
      <point x="55" y="85"/>
      <point x="133" y="-9"/>
      <point x="297" y="-9" type="curve" smooth="yes"/>
    </contour>
    <contour>
      <point x="178" y="69"/>
      <point x="141" y="136"/>
      <point x="141" y="305" type="curve" smooth="yes"/>
      <point x="141" y="393"/>
      <point x="154" y="456"/>
      <point x="175" y="510" type="curve"/>
      <point x="200" y="520"/>
      <point x="251" y="528"/>
      <point x="298" y="528" type="curve" smooth="yes"/>
      <point x="432" y="528"/>
      <point x="468" y="461"/>
      <point x="468" y="292" type="curve" smooth="yes"/>
      <point x="468" y="204"/>
      <point x="453" y="140"/>
      <point x="433" y="87" type="curve"/>
      <point x="408" y="77"/>
      <point x="358" y="69"/>
      <point x="311" y="69" type="curve" smooth="yes"/>
    </contour>
  </outline>
</glyph>
<glyph name="three" format="1">
  <advance width="513"/>
  <unicode hex="0033"/>
  <note>
	three
  </note>
  <outline>
    <contour>
      <point x="393" y="-10"/>
      <point x="449" y="54"/>
      <point x="449" y="158" type="curve" smooth="yes"/>
      <point x="449" y="230"/>
      <point x="425" y="268"/>
      <point x="350" y="295" type="curve"/>
      <point x="350" y="301" type="line"/>
      <point x="410" y="328"/>
      <point x="442" y="365"/>
      <point x="442" y="440" type="curve" smooth="yes"/>
      <point x="442" y="541"/>
      <point x="385" y="606"/>
      <point x="251" y="606" type="curve" smooth="yes"/>
      <point x="172" y="606"/>
      <point x="109" y="591"/>
      <point x="48" y="567" type="curve"/>
      <point x="48" y="526" type="line" smooth="yes"/>
      <point x="48" y="495"/>
      <point x="56" y="460"/>
      <point x="65" y="435" type="curve"/>
      <point x="133" y="435" type="line"/>
      <point x="133" y="519" type="line"/>
      <point x="171" y="527"/>
      <point x="204" y="531"/>
      <point x="245" y="531" type="curve" smooth="yes"/>
      <point x="321" y="531"/>
      <point x="360" y="499"/>
      <point x="360" y="430" type="curve" smooth="yes"/>
      <point x="360" y="368"/>
      <point x="318" y="333"/>
      <point x="234" y="333" type="curve" smooth="yes"/>
      <point x="140" y="333" type="line"/>
      <point x="140" y="259" type="line"/>
      <point x="234" y="259" type="line" smooth="yes"/>
      <point x="338" y="259"/>
      <point x="367" y="226"/>
      <point x="367" y="158" type="curve" smooth="yes"/>
      <point x="367" y="123"/>
      <point x="360" y="98"/>
      <point x="346" y="76" type="curve"/>
      <point x="311" y="69"/>
      <point x="280" y="66"/>
      <point x="234" y="66" type="curve" smooth="yes"/>
      <point x="173" y="66"/>
      <point x="114" y="73"/>
      <point x="60" y="90" type="curve"/>
      <point x="46" y="15" type="line"/>
      <point x="103" y="-1"/>
      <point x="169" y="-10"/>
      <point x="233" y="-10" type="curve" smooth="yes"/>
    </contour>
  </outline>
</glyph>
<glyph name="six" format="1">
  <advance width="510"/>
  <unicode hex="0036"/>
  <note>
	six
  </note>
  <outline>
    <contour>
      <point x="422" y="0"/>
      <point x="476" y="91"/>
      <point x="476" y="185" type="curve" smooth="yes"/>
      <point x="476" y="301"/>
      <point x="419" y="367"/>
      <point x="294" y="367" type="curve" smooth="yes"/>
      <point x="240" y="367"/>
      <point x="191" y="351"/>
      <point x="147" y="324" type="curve"/>
      <point x="169" y="417"/>
      <point x="230" y="488"/>
      <point x="354" y="567" type="curve"/>
      <point x="280" y="606" type="line"/>
      <point x="131" y="506"/>
      <point x="54" y="395"/>
      <point x="54" y="232" type="curve" smooth="yes"/>
      <point x="54" y="92"/>
      <point x="120" y="0"/>
      <point x="271" y="0" type="curve" smooth="yes"/>
    </contour>
    <contour>
      <point x="177" y="76"/>
      <point x="138" y="122"/>
      <point x="138" y="232" type="curve" smooth="yes"/>
      <point x="138" y="240"/>
      <point x="138" y="247"/>
      <point x="138" y="255" type="curve"/>
      <point x="187" y="281"/>
      <point x="234" y="292"/>
      <point x="281" y="292" type="curve" smooth="yes"/>
      <point x="373" y="292"/>
      <point x="391" y="260"/>
      <point x="391" y="185" type="curve" smooth="yes"/>
      <point x="391" y="147"/>
      <point x="384" y="116"/>
      <point x="372" y="88" type="curve"/>
      <point x="344" y="80"/>
      <point x="318" y="76"/>
      <point x="276" y="76" type="curve" smooth="yes"/>
    </contour>
  </outline>
</glyph>
<glyph name="nine" format="1">
  <advance width="514"/>
  <unicode hex="0039"/>
  <note>
	nine
  </note>
  <outline>
    <contour>
      <point x="392" y="98"/>
      <point x="460" y="190"/>
      <point x="460" y="359" type="curve" smooth="yes"/>
      <point x="460" y="504"/>
      <point x="396" y="606"/>
      <point x="249" y="606" type="curve" smooth="yes"/>
      <point x="98" y="606"/>
      <point x="34" y="503"/>
      <point x="34" y="392" type="curve" smooth="yes"/>
      <point x="34" y="276"/>
      <point x="107" y="204"/>
      <point x="222" y="204" type="curve" smooth="yes"/>
      <point x="271" y="204"/>
      <point x="316" y="219"/>
      <point x="357" y="244" type="curve"/>
      <point x="330" y="171"/>
      <point x="270" y="110"/>
      <point x="160" y="39" type="curve"/>
      <point x="234" y="0" type="line"/>
    </contour>
    <contour>
      <point x="153" y="279"/>
      <point x="119" y="317"/>
      <point x="119" y="392" type="curve" smooth="yes"/>
      <point x="119" y="440"/>
      <point x="127" y="476"/>
      <point x="141" y="518" type="curve"/>
      <point x="169" y="527"/>
      <point x="202" y="530"/>
      <point x="238" y="530" type="curve" smooth="yes"/>
      <point x="329" y="530"/>
      <point x="376" y="475"/>
      <point x="376" y="359" type="curve" smooth="yes"/>
      <point x="376" y="343"/>
      <point x="375" y="329"/>
      <point x="374" y="315" type="curve"/>
      <point x="329" y="287"/>
      <point x="281" y="279"/>
      <point x="235" y="279" type="curve" smooth="yes"/>
    </contour>
  </outline>
</glyph>
<glyph name="colon" format="1">
  <advance width="246"/>
  <unicode hex="003A"/>
  <note>
	colon
  </note>
  <outline>
    <contour>
      <point x="171" y="335" type="line"/>
      <point x="171" y="435" type="line"/>
      <point x="75" y="435" type="line"/>
      <point x="75" y="335" type="line"/>
    </contour>
    <contour>
      <point x="171" y="0" type="line"/>
      <point x="171" y="100" type="line"/>
      <point x="75" y="100" type="line"/>
      <point x="75" y="0" type="line"/>
    </contour>
  </outline>
</glyph>
<glyph name="equal" format="1">
  <advance width="560"/>
  <unicode hex="003D"/>
  <note>
	equal
  </note>
  <outline>
    <contour>
      <point x="490" y="110" type="line"/>
      <point x="490" y="181" type="line"/>
      <point x="70" y="181" type="line"/>
      <point x="70" y="110" type="line"/>
    </contour>
    <contour>
      <point x="490" y="310" type="line"/>
      <point x="490" y="380" type="line"/>
      <point x="70" y="380" type="line"/>
      <point x="70" y="310" type="line"/>
    </contour>
  </outline>
</glyph>
<glyph name="greater" format="1">
  <advance width="560"/>
  <unicode hex="003E"/>
  <note>
	greater
  </note>
  <outline>
    <contour>
      <point x="505" y="210" type="line"/>
      <point x="505" y="288" type="line"/>
      <point x="96" y="471" type="line"/>
      <point x="75" y="400" type="line"/>
      <point x="428" y="252" type="line"/>
      <point x="428" y="246" type="line"/>
      <point x="75" y="98" type="line"/>
      <point x="96" y="27" type="line"/>
    </contour>
  </outline>
</glyph>
<glyph name="question" format="1">
  <advance width="523"/>
  <unicode hex="003F"/>
  <note>
	question
  </note>
  <outline>
    <contour>
      <point x="274" y="154" type="line"/>
      <point x="274" y="208" type="line" smooth="yes"/>
      <point x="274" y="229"/>
      <point x="276" y="239"/>
      <point x="289" y="249" type="curve" smooth="yes"/>
      <point x="397" y="327" type="line" smooth="yes"/>
      <point x="446" y="363"/>
      <point x="459" y="401"/>
      <point x="459" y="463" type="curve" smooth="yes"/>
      <point x="459" y="562"/>
      <point x="406" y="627"/>
      <point x="261" y="627" type="curve" smooth="yes"/>
      <point x="177" y="627"/>
      <point x="92" y="602"/>
      <point x="60" y="580" type="curve"/>
      <point x="60" y="543" type="line" smooth="yes"/>
      <point x="60" y="515"/>
      <point x="65" y="488"/>
      <point x="74" y="462" type="curve"/>
      <point x="140" y="462" type="line"/>
      <point x="140" y="537" type="line"/>
      <point x="172" y="547"/>
      <point x="214" y="551"/>
      <point x="259" y="551" type="curve" smooth="yes"/>
      <point x="337" y="551"/>
      <point x="375" y="529"/>
      <point x="375" y="466" type="curve" smooth="yes"/>
      <point x="375" y="401" type="line"/>
      <point x="213" y="279" type="line" smooth="yes"/>
      <point x="195" y="265"/>
      <point x="190" y="249"/>
      <point x="190" y="220" type="curve" smooth="yes"/>
      <point x="190" y="154" type="line"/>
    </contour>
    <contour>
      <point x="275" y="0" type="line"/>
      <point x="275" y="90" type="line"/>
      <point x="189" y="90" type="line"/>
      <point x="189" y="0" type="line"/>
    </contour>
  </outline>
</glyph>
<glyph name="at" format="1">
  <advance width="780"/>
  <unicode hex="0040"/>
  <note>
	at
  </note>
  <outline>
    <contour>
      <point x="503" y="-59"/>
      <point x="602" y="-35"/>
      <point x="655" y="3" type="curve"/>
      <point x="630" y="56" type="line"/>
      <point x="577" y="26"/>
      <point x="516" y="2"/>
      <point x="416" y="2" type="curve" smooth="yes"/>
      <point x="235" y="2"/>
      <point x="134" y="85"/>
      <point x="134" y="271" type="curve" smooth="yes"/>
      <point x="134" y="421"/>
      <point x="223" y="546"/>
      <point x="404" y="546" type="curve" smooth="yes"/>
      <point x="569" y="546"/>
      <point x="649" y="452"/>
      <point x="649" y="318" type="curve" smooth="yes"/>
      <point x="649" y="259"/>
      <point x="639" y="208"/>
      <point x="624" y="175" type="curve"/>
      <point x="609" y="171"/>
      <point x="589" y="170"/>
      <point x="569" y="170" type="curve" smooth="yes"/>
      <point x="546" y="170"/>
      <point x="520" y="175"/>
      <point x="502" y="186" type="curve"/>
      <point x="544" y="410" type="line"/>
      <point x="483" y="419" type="line"/>
      <point x="469" y="391" type="line"/>
      <point x="465" y="391" type="line"/>
      <point x="448" y="413"/>
      <point x="427" y="431"/>
      <point x="385" y="431" type="curve" smooth="yes"/>
      <point x="282" y="431"/>
      <point x="241" y="324"/>
      <point x="241" y="237" type="curve" smooth="yes"/>
      <point x="241" y="164"/>
      <point x="282" y="112"/>
      <point x="352" y="112" type="curve" smooth="yes"/>
      <point x="396" y="112"/>
      <point x="426" y="128"/>
      <point x="453" y="158" type="curve"/>
      <point x="459" y="158" type="line"/>
      <point x="485" y="125"/>
      <point x="514" y="110"/>
      <point x="557" y="110" type="curve" smooth="yes"/>
      <point x="676" y="110"/>
      <point x="718" y="218"/>
      <point x="718" y="321" type="curve" smooth="yes"/>
      <point x="718" y="481"/>
      <point x="606" y="607"/>
      <point x="404" y="607" type="curve" smooth="yes"/>
      <point x="175" y="607"/>
      <point x="65" y="447"/>
      <point x="65" y="271" type="curve" smooth="yes"/>
      <point x="65" y="63"/>
      <point x="180" y="-59"/>
      <point x="413" y="-59" type="curve" smooth="yes"/>
    </contour>
    <contour>
      <point x="330" y="172"/>
      <point x="317" y="198"/>
      <point x="317" y="239" type="curve" smooth="yes"/>
      <point x="317" y="310"/>
      <point x="348" y="371"/>
      <point x="402" y="371" type="curve" smooth="yes"/>
      <point x="424" y="371"/>
      <point x="439" y="361"/>
      <point x="453" y="340" type="curve"/>
      <point x="428" y="192" type="line"/>
      <point x="412" y="177"/>
      <point x="394" y="172"/>
      <point x="368" y="172" type="curve" smooth="yes"/>
    </contour>
  </outline>
</glyph>
<glyph name="A" format="1">
  <advance width="607"/>
  <unicode hex="0041"/>
  <outline>
    <contour>
      <point x="141" y="64"/>
      <point x="159" y="133"/>
      <point x="178" y="200" type="curve"/>
      <point x="428" y="200" type="line"/>
      <point x="447" y="133"/>
      <point x="465" y="64"/>
      <point x="481" y="0" type="curve"/>
      <point x="572" y="7" type="line"/>
      <point x="519" y="205"/>
      <point x="445" y="441"/>
      <point x="377" y="616" type="curve"/>
      <point x="230" y="616" type="line"/>
      <point x="162" y="441"/>
      <point x="88" y="205"/>
      <point x="35" y="7" type="curve"/>
      <point x="126" y="0" type="line"/>
    </contour>
    <contour>
      <point x="230" y="376"/>
      <point x="260" y="470"/>
      <point x="283" y="535" type="curve"/>
      <point x="324" y="535" type="line"/>
      <point x="347" y="470"/>
      <point x="376" y="376"/>
      <point x="406" y="275" type="curve"/>
      <point x="200" y="275" type="line"/>
    </contour>
  </outline>
</glyph>
<glyph name="B" format="1">
  <advance width="545"/>
  <unicode hex="0042"/>
  <note>
	B
  </note>
  <outline>
    <contour>
      <point x="245" y="0" type="line" smooth="yes"/>
      <point x="443" y="0"/>
      <point x="500" y="61"/>
      <point x="500" y="174" type="curve" smooth="yes"/>
      <point x="500" y="238"/>
      <point x="468" y="287"/>
      <point x="390" y="311" type="curve"/>
      <point x="390" y="317" type="line"/>
      <point x="446" y="348"/>
      <point x="470" y="392"/>
      <point x="470" y="451" type="curve" smooth="yes"/>
      <point x="470" y="573"/>
      <point x="394" y="626"/>
      <point x="241" y="626" type="curve" smooth="yes"/>
      <point x="182" y="626"/>
      <point x="127" y="617"/>
      <point x="75" y="602" type="curve"/>
      <point x="75" y="0" type="line"/>
    </contour>
    <contour>
      <point x="159" y="270" type="line"/>
      <point x="293" y="270" type="line" smooth="yes"/>
      <point x="381" y="270"/>
      <point x="416" y="231"/>
      <point x="416" y="171" type="curve" smooth="yes"/>
      <point x="416" y="100"/>
      <point x="375" y="76"/>
      <point x="233" y="76" type="curve" smooth="yes"/>
      <point x="159" y="76" type="line"/>
    </contour>
    <contour>
      <point x="159" y="542" type="line"/>
      <point x="184" y="547"/>
      <point x="212" y="550"/>
      <point x="240" y="550" type="curve" smooth="yes"/>
      <point x="340" y="550"/>
      <point x="386" y="526"/>
      <point x="386" y="450" type="curve" smooth="yes"/>
      <point x="386" y="408"/>
      <point x="370" y="372"/>
      <point x="340" y="345" type="curve"/>
      <point x="159" y="345" type="line"/>
    </contour>
  </outline>
</glyph>
<glyph name="F" format="1">
  <advance width="516"/>
  <unicode hex="0046"/>
  <note>
	F
  </note>
  <outline>
    <contour>
      <point x="160" y="0" type="line"/>
      <point x="160" y="270" type="line"/>
      <point x="425" y="270" type="line"/>
      <point x="425" y="345" type="line"/>
      <point x="160" y="345" type="line"/>
      <point x="160" y="539" type="line"/>
      <point x="476" y="539" type="line"/>
      <point x="476" y="616" type="line"/>
      <point x="75" y="616" type="line"/>
      <point x="75" y="0" type="line"/>
    </contour>
  </outline>
</glyph>
<glyph name="I" format="1">
  <advance width="241"/>
  <unicode hex="0049"/>
  <note>
	I
  </note>
  <outline>
    <contour>
      <point x="163" y="0" type="line"/>
      <point x="163" y="616" type="line"/>
      <point x="78" y="616" type="line"/>
      <point x="78" y="0" type="line"/>
    </contour>
  </outline>
</glyph>
<glyph name="K" format="1">
  <advance width="600"/>
  <unicode hex="004B"/>
  <note>
	K
  </note>
  <outline>
    <contour>
      <point x="532" y="-8"/>
      <point x="548" y="-5"/>
      <point x="567" y="1" type="curve"/>
      <point x="567" y="49" type="line"/>
      <point x="517" y="58" type="line"/>
      <point x="433" y="239" type="line" smooth="yes"/>
      <point x="414" y="282"/>
      <point x="396" y="303"/>
      <point x="347" y="317" type="curve"/>
      <point x="347" y="323" type="line"/>
      <point x="396" y="339"/>
      <point x="415" y="367"/>
      <point x="432" y="405" type="curve" smooth="yes"/>
      <point x="460" y="467"/>
      <point x="487" y="528"/>
      <point x="515" y="590" type="curve"/>
      <point x="433" y="622" type="line"/>
      <point x="405" y="557"/>
      <point x="378" y="493"/>
      <point x="350" y="428" type="curve" smooth="yes"/>
      <point x="333" y="388"/>
      <point x="305" y="359"/>
      <point x="235" y="359" type="curve" smooth="yes"/>
      <point x="160" y="359" type="line"/>
      <point x="160" y="616" type="line"/>
      <point x="75" y="616" type="line"/>
      <point x="75" y="0" type="line"/>
      <point x="160" y="0" type="line"/>
      <point x="160" y="282" type="line"/>
      <point x="240" y="282" type="line" smooth="yes"/>
      <point x="310" y="282"/>
      <point x="334" y="254"/>
      <point x="356" y="204" type="curve" smooth="yes"/>
      <point x="430" y="35" type="line" smooth="yes"/>
      <point x="444" y="4"/>
      <point x="466" y="-8"/>
      <point x="501" y="-8" type="curve" smooth="yes"/>
    </contour>
  </outline>
</glyph>
<glyph name="L" format="1">
  <advance width="457"/>
  <unicode hex="004C"/>
  <note>
	L
  </note>
  <outline>
    <contour>
      <point x="433" y="0" type="line"/>
      <point x="433" y="78" type="line"/>
      <point x="160" y="78" type="line"/>
      <point x="160" y="616" type="line"/>
      <point x="75" y="616" type="line"/>
      <point x="75" y="0" type="line"/>
    </contour>
  </outline>
</glyph>
<glyph name="M" format="1">
  <advance width="694"/>
  <unicode hex="004D"/>
  <note>
	M
  </note>
  <outline>
    <contour>
      <point x="154" y="0" type="line"/>
      <point x="166" y="318" type="line"/>
      <point x="166" y="467" type="line"/>
      <point x="174" y="469" type="line"/>
      <point x="313" y="181" type="line"/>
      <point x="381" y="181" type="line"/>
      <point x="520" y="469" type="line"/>
      <point x="528" y="467" type="line"/>
      <point x="528" y="318" type="line"/>
      <point x="540" y="0" type="line"/>
      <point x="626" y="0" type="line"/>
      <point x="602" y="616" type="line"/>
      <point x="507" y="616" type="line"/>
      <point x="351" y="268" type="line"/>
      <point x="343" y="268" type="line"/>
      <point x="187" y="616" type="line"/>
      <point x="92" y="616" type="line"/>
      <point x="68" y="0" type="line"/>
    </contour>
  </outline>
</glyph>
<glyph name="V" format="1">
  <advance width="591"/>
  <unicode hex="0056"/>
  <note>
	V
  </note>
  <outline>
    <contour>
      <point x="354" y="0" type="line"/>
      <point x="431" y="172"/>
      <point x="508" y="418"/>
      <point x="557" y="617" type="curve"/>
      <point x="466" y="624" type="line"/>
      <point x="422" y="434"/>
      <point x="351" y="201"/>
      <point x="301" y="81" type="curve"/>
      <point x="290" y="81" type="line"/>
      <point x="240" y="201"/>
      <point x="169" y="434"/>
      <point x="125" y="624" type="curve"/>
      <point x="34" y="617" type="line"/>
      <point x="83" y="418"/>
      <point x="160" y="172"/>
      <point x="237" y="0" type="curve"/>
    </contour>
  </outline>
</glyph>
<glyph name="X" format="1">
  <advance width="618"/>
  <unicode hex="0058"/>
  <note>
	X
  </note>
  <outline>
    <contour>
      <point x="180" y="96"/>
      <point x="237" y="178"/>
      <point x="299" y="270" type="curve"/>
      <point x="316" y="270" type="line"/>
      <point x="368" y="186"/>
      <point x="425" y="94"/>
      <point x="474" y="-8" type="curve"/>
      <point x="564" y="12" type="line"/>
      <point x="516" y="107"/>
      <point x="441" y="228"/>
      <point x="386" y="312" type="curve"/>
      <point x="451" y="402"/>
      <point x="523" y="505"/>
      <point x="576" y="604" type="curve"/>
      <point x="490" y="621" type="line"/>
      <point x="436" y="517"/>
      <point x="381" y="436"/>
      <point x="316" y="345" type="curve"/>
      <point x="299" y="345" type="line"/>
      <point x="245" y="430"/>
      <point x="191" y="519"/>
      <point x="139" y="621" type="curve"/>
      <point x="46" y="603" type="line"/>
      <point x="97" y="508"/>
      <point x="175" y="385"/>
      <point x="230" y="303" type="curve"/>
      <point x="167" y="215"/>
      <point x="95" y="109"/>
      <point x="42" y="12" type="curve"/>
      <point x="128" y="-8" type="line"/>
    </contour>
  </outline>
</glyph>
<glyph name="bracketleft" format="1">
  <advance width="291"/>
  <unicode hex="005B"/>
  <note>
	bracketleft
  </note>
  <outline>
    <contour>
      <point x="219" y="-85" type="line"/>
      <point x="219" y="-13" type="line"/>
      <point x="157" y="-13" type="line"/>
      <point x="157" y="635" type="line"/>
      <point x="219" y="635" type="line"/>
      <point x="219" y="707" type="line"/>
      <point x="75" y="707" type="line"/>
      <point x="75" y="-85" type="line"/>
    </contour>
  </outline>
</glyph>
<glyph name="backslash" format="1">
  <advance width="429"/>
  <unicode hex="005C"/>
  <note>
	backslash
  </note>
  <outline>
    <contour>
      <point x="371" y="-2" type="line"/>
      <point x="128" y="636" type="line"/>
      <point x="58" y="619" type="line"/>
      <point x="301" y="-20" type="line"/>
    </contour>
  </outline>
</glyph>
<glyph name="bracketright" format="1">
  <advance width="291"/>
  <unicode hex="005D"/>
  <note>
	bracketright
  </note>
  <outline>
    <contour>
      <point x="216" y="-85" type="line"/>
      <point x="216" y="707" type="line"/>
      <point x="72" y="707" type="line"/>
      <point x="72" y="635" type="line"/>
      <point x="134" y="635" type="line"/>
      <point x="134" y="-13" type="line"/>
      <point x="72" y="-13" type="line"/>
      <point x="72" y="-85" type="line"/>
    </contour>
  </outline>
</glyph>
<glyph name="asciicircum" format="1">
  <advance width="575"/>
  <unicode hex="005E"/>
  <note>
	asciicircum
  </note>
  <outline>
    <contour>
      <point x="285" y="539" type="line"/>
      <point x="291" y="539" type="line"/>
      <point x="441" y="270" type="line"/>
      <point x="507" y="299" type="line"/>
      <point x="325" y="616" type="line"/>
      <point x="251" y="616" type="line"/>
      <point x="68" y="299" type="line"/>
      <point x="135" y="270" type="line"/>
    </contour>
  </outline>
</glyph>
<glyph name="underscore" format="1">
  <advance width="570"/>
  <unicode hex="005F"/>
  <note>
	underscore
  </note>
  <outline>
    <contour>
      <point x="510" y="-55" type="line"/>
      <point x="510" y="0" type="line"/>
      <point x="60" y="0" type="line"/>
      <point x="60" y="-55" type="line"/>
    </contour>
  </outline>
</glyph>
<glyph name="grave" format="1">
  <advance width="323"/>
  <unicode hex="0060"/>
  <note>
	grave
  </note>
  <outline>
    <contour>
      <point x="214" y="758" type="line"/>
      <point x="131" y="903" type="line"/>
      <point x="25" y="892" type="line"/>
      <point x="150" y="748" type="line"/>
    </contour>
  </outline>
</glyph>
<glyph name="k" format="1">
  <advance width="507"/>
  <unicode hex="006B"/>
  <note>
	k
  </note>
  <outline>
    <contour>
      <point x="438" y="-8"/>
      <point x="454" y="-5"/>
      <point x="472" y="0" type="curve"/>
      <point x="472" y="41" type="line"/>
      <point x="433" y="50" type="line"/>
      <point x="383" y="164" type="line" smooth="yes"/>
      <point x="364" y="207"/>
      <point x="345" y="228"/>
      <point x="296" y="242" type="curve"/>
      <point x="296" y="248" type="line"/>
      <point x="345" y="264"/>
      <point x="367" y="292"/>
      <point x="383" y="330" type="curve" smooth="yes"/>
      <point x="434" y="449" type="line"/>
      <point x="355" y="478" type="line"/>
      <point x="302" y="353" type="line" smooth="yes"/>
      <point x="285" y="315"/>
      <point x="261" y="277"/>
      <point x="191" y="277" type="curve" smooth="yes"/>
      <point x="150" y="277" type="line"/>
      <point x="150" y="671" type="line"/>
      <point x="70" y="671" type="line"/>
      <point x="70" y="0" type="line"/>
      <point x="150" y="0" type="line"/>
      <point x="150" y="214" type="line"/>
      <point x="196" y="214" type="line" smooth="yes"/>
      <point x="266" y="214"/>
      <point x="290" y="179"/>
      <point x="312" y="129" type="curve" smooth="yes"/>
      <point x="355" y="29" type="line" smooth="yes"/>
      <point x="367" y="2"/>
      <point x="385" y="-8"/>
      <point x="417" y="-8" type="curve" smooth="yes"/>
    </contour>
  </outline>
</glyph>
<glyph name="o" format="1">
  <advance width="517"/>
  <unicode hex="006F"/>
  <note>
	o
  </note>
  <outline>
    <contour>
      <point x="406" y="-8"/>
      <point x="467" y="78"/>
      <point x="467" y="231" type="curve" smooth="yes"/>
      <point x="467" y="375"/>
      <point x="418" y="480"/>
      <point x="270" y="480" type="curve" smooth="yes"/>
      <point x="111" y="480"/>
      <point x="50" y="384"/>
      <point x="50" y="231" type="curve" smooth="yes"/>
      <point x="50" y="87"/>
      <point x="99" y="-8"/>
      <point x="247" y="-8" type="curve" smooth="yes"/>
    </contour>
    <contour>
      <point x="150" y="62"/>
      <point x="131" y="116"/>
      <point x="131" y="245" type="curve" smooth="yes"/>
      <point x="131" y="312"/>
      <point x="139" y="361"/>
      <point x="153" y="391" type="curve"/>
      <point x="176" y="401"/>
      <point x="211" y="407"/>
      <point x="247" y="407" type="curve" smooth="yes"/>
      <point x="367" y="407"/>
      <point x="386" y="346"/>
      <point x="386" y="215" type="curve" smooth="yes"/>
      <point x="386" y="148"/>
      <point x="378" y="108"/>
      <point x="364" y="79" type="curve"/>
      <point x="341" y="69"/>
      <point x="307" y="62"/>
      <point x="270" y="62" type="curve" smooth="yes"/>
    </contour>
  </outline>
</glyph>
<glyph name="r" format="1">
  <advance width="374"/>
  <unicode hex="0072"/>
  <note>
	r
  </note>
  <outline>
    <contour>
      <point x="156" y="0" type="line"/>
      <point x="156" y="295" type="line"/>
      <point x="172" y="357"/>
      <point x="227" y="383"/>
      <point x="289" y="383" type="curve" smooth="yes"/>
      <point x="335" y="383" type="line"/>
      <point x="344" y="450" type="line"/>
      <point x="339" y="459"/>
      <point x="319" y="474"/>
      <point x="308" y="474" type="curve" smooth="yes"/>
      <point x="256" y="474"/>
      <point x="188" y="439"/>
      <point x="159" y="376" type="curve"/>
      <point x="149" y="376" type="line"/>
      <point x="143" y="468" type="line"/>
      <point x="74" y="468" type="line"/>
      <point x="74" y="0" type="line"/>
    </contour>
  </outline>
</glyph>
<glyph name="v" format="1">
  <advance width="468"/>
  <unicode hex="0076"/>
  <note>
	v
  </note>
  <outline>
    <contour>
      <point x="278" y="0" type="line"/>
      <point x="346" y="160"/>
      <point x="398" y="311"/>
      <point x="442" y="467" type="curve"/>
      <point x="364" y="474" type="line"/>
      <point x="326" y="333"/>
      <point x="281" y="187"/>
      <point x="238" y="77" type="curve"/>
      <point x="231" y="77" type="line"/>
      <point x="187" y="187"/>
      <point x="144" y="333"/>
      <point x="107" y="474" type="curve"/>
      <point x="26" y="467" type="line"/>
      <point x="68" y="311"/>
      <point x="115" y="160"/>
      <point x="186" y="0" type="curve"/>
    </contour>
  </outline>
</glyph>
<glyph name="x" format="1">
  <advance width="486"/>
  <unicode hex="0078"/>
  <note>
	x
  </note>
  <outline>
    <contour>
      <point x="147" y="70"/>
      <point x="188" y="131"/>
      <point x="235" y="201" type="curve"/>
      <point x="248" y="201" type="line"/>
      <point x="287" y="137"/>
      <point x="329" y="68"/>
      <point x="366" y="-8" type="curve"/>
      <point x="449" y="7" type="line"/>
      <point x="412" y="80"/>
      <point x="354" y="173"/>
      <point x="312" y="238" type="curve"/>
      <point x="362" y="307"/>
      <point x="417" y="386"/>
      <point x="458" y="462" type="curve"/>
      <point x="378" y="475" type="line"/>
      <point x="338" y="396"/>
      <point x="297" y="336"/>
      <point x="249" y="268" type="curve"/>
      <point x="235" y="268" type="line"/>
      <point x="194" y="332"/>
      <point x="155" y="398"/>
      <point x="116" y="475" type="curve"/>
      <point x="31" y="461" type="line"/>
      <point x="70" y="388"/>
      <point x="130" y="294"/>
      <point x="172" y="231" type="curve"/>
      <point x="124" y="163"/>
      <point x="69" y="82"/>
      <point x="28" y="7" type="curve"/>
      <point x="108" y="-8" type="line"/>
    </contour>
  </outline>
</glyph>
<glyph name="braceleft" format="1">
  <advance width="417"/>
  <unicode hex="007B"/>
  <note>
	braceleft
  </note>
  <outline>
    <contour>
      <point x="367" y="-49" type="line"/>
      <point x="323" y="-49"/>
      <point x="283" y="-47"/>
      <point x="259" y="-37" type="curve"/>
      <point x="252" y="-11"/>
      <point x="250" y="32"/>
      <point x="253" y="88" type="curve" smooth="yes"/>
      <point x="257" y="178" type="line" smooth="yes"/>
      <point x="261" y="252"/>
      <point x="228" y="296"/>
      <point x="165" y="314" type="curve"/>
      <point x="165" y="318" type="line"/>
      <point x="228" y="336"/>
      <point x="261" y="380"/>
      <point x="257" y="454" type="curve" smooth="yes"/>
      <point x="253" y="534" type="line" smooth="yes"/>
      <point x="250" y="590"/>
      <point x="252" y="633"/>
      <point x="259" y="659" type="curve"/>
      <point x="283" y="669"/>
      <point x="323" y="671"/>
      <point x="367" y="671" type="curve"/>
      <point x="367" y="744" type="line"/>
      <point x="219" y="744"/>
      <point x="166" y="689"/>
      <point x="174" y="536" type="curve" smooth="yes"/>
      <point x="178" y="467" type="line" smooth="yes"/>
      <point x="181" y="407"/>
      <point x="162" y="347"/>
      <point x="60" y="347" type="curve"/>
      <point x="60" y="285" type="line"/>
      <point x="162" y="285"/>
      <point x="181" y="225"/>
      <point x="178" y="165" type="curve" smooth="yes"/>
      <point x="174" y="86" type="line" smooth="yes"/>
      <point x="166" y="-67"/>
      <point x="219" y="-122"/>
      <point x="367" y="-122" type="curve"/>
    </contour>
  </outline>
</glyph>
<glyph name="bar" format="1">
  <advance width="239"/>
  <unicode hex="007C"/>
  <note>
	bar
  </note>
  <outline>
    <contour>
      <point x="157" y="-140" type="line"/>
      <point x="157" y="626" type="line"/>
      <point x="82" y="626" type="line"/>
      <point x="82" y="-140" type="line"/>
    </contour>
  </outline>
</glyph>
<glyph name="braceright" format="1">
  <advance width="417"/>
  <unicode hex="007D"/>
  <note>
	braceright
  </note>
  <outline>
    <contour>
      <point x="198" y="-122"/>
      <point x="251" y="-67"/>
      <point x="243" y="86" type="curve" smooth="yes"/>
      <point x="239" y="165" type="line" smooth="yes"/>
      <point x="236" y="225"/>
      <point x="255" y="285"/>
      <point x="357" y="285" type="curve"/>
      <point x="357" y="347" type="line"/>
      <point x="255" y="347"/>
      <point x="236" y="407"/>
      <point x="239" y="467" type="curve" smooth="yes"/>
      <point x="243" y="536" type="line" smooth="yes"/>
      <point x="251" y="689"/>
      <point x="198" y="744"/>
      <point x="50" y="744" type="curve"/>
      <point x="50" y="671" type="line"/>
      <point x="94" y="671"/>
      <point x="134" y="669"/>
      <point x="158" y="659" type="curve"/>
      <point x="165" y="633"/>
      <point x="167" y="590"/>
      <point x="164" y="534" type="curve" smooth="yes"/>
      <point x="160" y="454" type="line" smooth="yes"/>
      <point x="156" y="380"/>
      <point x="189" y="336"/>
      <point x="252" y="318" type="curve"/>
      <point x="252" y="314" type="line"/>
      <point x="189" y="296"/>
      <point x="156" y="252"/>
      <point x="160" y="178" type="curve" smooth="yes"/>
      <point x="164" y="88" type="line" smooth="yes"/>
      <point x="167" y="32"/>
      <point x="165" y="-11"/>
      <point x="158" y="-37" type="curve"/>
      <point x="134" y="-47"/>
      <point x="94" y="-49"/>
      <point x="50" y="-49" type="curve"/>
      <point x="50" y="-122" type="line"/>
    </contour>
  </outline>
</glyph>
<glyph name="exclamdown" format="1">
  <advance width="242"/>
  <unicode hex="00A1"/>
  <note>
	exclamdown
  </note>
  <outline>
    <contour>
      <point x="166" y="0" type="line"/>
      <point x="166" y="190" type="line"/>
      <point x="158" y="449" type="line"/>
      <point x="84" y="449" type="line"/>
      <point x="76" y="190" type="line"/>
      <point x="76" y="0" type="line"/>
    </contour>
    <contour>
      <point x="166" y="523" type="line"/>
      <point x="166" y="616" type="line"/>
      <point x="76" y="616" type="line"/>
      <point x="76" y="523" type="line"/>
    </contour>
  </outline>
</glyph>
<glyph name="cent" format="1">
  <advance width="451"/>
  <unicode hex="00A2"/>
  <note>
	cent
  </note>
  <outline>
    <contour>
      <point x="291" y="-144" type="line"/>
      <point x="291" y="-8" type="line"/>
      <point x="347" y="-3"/>
      <point x="388" y="17"/>
      <point x="425" y="49" type="curve"/>
      <point x="388" y="106" type="line"/>
      <point x="354" y="77"/>
      <point x="313" y="63"/>
      <point x="264" y="63" type="curve" smooth="yes"/>
      <point x="158" y="63"/>
      <point x="130" y="121"/>
      <point x="130" y="222" type="curve" smooth="yes"/>
      <point x="130" y="282"/>
      <point x="138" y="348"/>
      <point x="151" y="382" type="curve"/>
      <point x="174" y="391"/>
      <point x="215" y="395"/>
      <point x="248" y="395" type="curve" smooth="yes"/>
      <point x="276" y="395"/>
      <point x="300" y="391"/>
      <point x="318" y="386" type="curve"/>
      <point x="328" y="327" type="line"/>
      <point x="387" y="327" type="line"/>
      <point x="394" y="346"/>
      <point x="400" y="373"/>
      <point x="400" y="396" type="curve" smooth="yes"/>
      <point x="400" y="427" type="line"/>
      <point x="374" y="445"/>
      <point x="334" y="460"/>
      <point x="289" y="466" type="curve"/>
      <point x="289" y="616" type="line"/>
      <point x="222" y="616" type="line"/>
      <point x="222" y="466" type="line"/>
      <point x="104" y="453"/>
      <point x="50" y="363"/>
      <point x="50" y="222" type="curve" smooth="yes"/>
      <point x="50" y="102"/>
      <point x="86" y="8"/>
      <point x="220" y="-7" type="curve"/>
      <point x="220" y="-144" type="line"/>
    </contour>
  </outline>
</glyph>
<glyph name="sterling" format="1">
  <advance width="553"/>
  <unicode hex="00A3"/>
  <note>
	sterling
  </note>
  <outline>
    <contour>
      <point x="363" y="-7"/>
      <point x="438" y="-3"/>
      <point x="508" y="4" type="curve"/>
      <point x="508" y="77" type="line"/>
      <point x="443" y="71"/>
      <point x="378" y="67"/>
      <point x="313" y="67" type="curve" smooth="yes"/>
      <point x="275" y="67"/>
      <point x="237" y="69"/>
      <point x="199" y="72" type="curve"/>
      <point x="199" y="248" type="line"/>
      <point x="404" y="248" type="line"/>
      <point x="404" y="309" type="line"/>
      <point x="199" y="309" type="line"/>
      <point x="199" y="428" type="line" smooth="yes"/>
      <point x="199" y="462"/>
      <point x="200" y="499"/>
      <point x="208" y="530" type="curve"/>
      <point x="248" y="538"/>
      <point x="278" y="539"/>
      <point x="320" y="539" type="curve" smooth="yes"/>
      <point x="377" y="539"/>
      <point x="412" y="534"/>
      <point x="460" y="521" type="curve"/>
      <point x="479" y="590" type="line"/>
      <point x="428" y="609"/>
      <point x="387" y="616"/>
      <point x="317" y="616" type="curve" smooth="yes"/>
      <point x="175" y="616"/>
      <point x="115" y="546"/>
      <point x="115" y="432" type="curve" smooth="yes"/>
      <point x="115" y="309" type="line"/>
      <point x="51" y="309" type="line"/>
      <point x="51" y="248" type="line"/>
      <point x="115" y="248" type="line"/>
      <point x="115" y="71" type="line"/>
      <point x="50" y="58" type="line"/>
      <point x="50" y="4" type="line"/>
      <point x="126" y="-3"/>
      <point x="207" y="-7"/>
      <point x="288" y="-7" type="curve" smooth="yes"/>
    </contour>
  </outline>
</glyph>
<glyph name="currency" format="1">
  <advance width="572"/>
  <unicode hex="00A4"/>
  <note>
	currency
  </note>
  <outline>
    <contour>
      <point x="177" y="132" type="line"/>
      <point x="209" y="110"/>
      <point x="245" y="98"/>
      <point x="288" y="98" type="curve" smooth="yes"/>
      <point x="331" y="98"/>
      <point x="367" y="110"/>
      <point x="399" y="132" type="curve"/>
      <point x="464" y="69" type="line"/>
      <point x="512" y="116" type="line"/>
      <point x="448" y="181" type="line"/>
      <point x="470" y="216"/>
      <point x="482" y="249"/>
      <point x="482" y="291" type="curve" smooth="yes"/>
      <point x="482" y="332"/>
      <point x="470" y="365"/>
      <point x="448" y="400" type="curve"/>
      <point x="513" y="467" type="line"/>
      <point x="464" y="514" type="line"/>
      <point x="399" y="451" type="line"/>
      <point x="366" y="473"/>
      <point x="330" y="485"/>
      <point x="288" y="485" type="curve" smooth="yes"/>
      <point x="246" y="485"/>
      <point x="210" y="473"/>
      <point x="177" y="451" type="curve"/>
      <point x="112" y="514" type="line"/>
      <point x="63" y="467" type="line"/>
      <point x="128" y="400" type="line"/>
      <point x="106" y="365"/>
      <point x="94" y="332"/>
      <point x="94" y="291" type="curve" smooth="yes"/>
      <point x="94" y="249"/>
      <point x="106" y="216"/>
      <point x="128" y="181" type="curve"/>
      <point x="64" y="116" type="line"/>
      <point x="112" y="69" type="line"/>
    </contour>
    <contour>
      <point x="215" y="167"/>
      <point x="164" y="214"/>
      <point x="164" y="291" type="curve" smooth="yes"/>
      <point x="164" y="364"/>
      <point x="211" y="417"/>
      <point x="288" y="417" type="curve" smooth="yes"/>
      <point x="365" y="417"/>
      <point x="412" y="364"/>
      <point x="412" y="291" type="curve" smooth="yes"/>
      <point x="412" y="214"/>
      <point x="361" y="167"/>
      <point x="288" y="167" type="curve" smooth="yes"/>
    </contour>
  </outline>
</glyph>
<glyph name="yen" format="1">
  <advance width="627"/>
  <unicode hex="00A5"/>
  <note>
	yen
  </note>
  <outline>
    <contour>
      <point x="356" y="0" type="line"/>
      <point x="356" y="83" type="line"/>
      <point x="470" y="83" type="line"/>
      <point x="470" y="142" type="line"/>
      <point x="356" y="142" type="line"/>
      <point x="356" y="200" type="line"/>
      <point x="470" y="200" type="line"/>
      <point x="470" y="259" type="line"/>
      <point x="403" y="259" type="line"/>
      <point x="481" y="379"/>
      <point x="529" y="462"/>
      <point x="591" y="600" type="curve"/>
      <point x="508" y="621" type="line"/>
      <point x="449" y="488"/>
      <point x="388" y="381"/>
      <point x="329" y="284" type="curve"/>
      <point x="298" y="284" type="line"/>
      <point x="239" y="381"/>
      <point x="178" y="488"/>
      <point x="119" y="621" type="curve"/>
      <point x="36" y="600" type="line"/>
      <point x="98" y="462"/>
      <point x="145" y="379"/>
      <point x="224" y="259" type="curve"/>
      <point x="157" y="259" type="line"/>
      <point x="157" y="200" type="line"/>
      <point x="271" y="200" type="line"/>
      <point x="271" y="142" type="line"/>
      <point x="157" y="142" type="line"/>
      <point x="157" y="83" type="line"/>
      <point x="271" y="83" type="line"/>
      <point x="271" y="0" type="line"/>
    </contour>
  </outline>
</glyph>
<glyph name="section" format="1">
  <advance width="555"/>
  <unicode hex="00A7"/>
  <note>
	section
  </note>
  <outline>
    <contour>
      <point x="386" y="-127"/>
      <point x="440" y="-52"/>
      <point x="440" y="27" type="curve" smooth="yes"/>
      <point x="440" y="66"/>
      <point x="429" y="92"/>
      <point x="409" y="112" type="curve"/>
      <point x="409" y="118" type="line"/>
      <point x="467" y="146"/>
      <point x="493" y="189"/>
      <point x="493" y="245" type="curve" smooth="yes"/>
      <point x="493" y="342"/>
      <point x="417" y="367"/>
      <point x="305" y="392" type="curve" smooth="yes"/>
      <point x="212" y="412"/>
      <point x="178" y="429"/>
      <point x="178" y="485" type="curve" smooth="yes"/>
      <point x="178" y="537"/>
      <point x="207" y="554"/>
      <point x="281" y="554" type="curve" smooth="yes"/>
      <point x="309" y="554"/>
      <point x="332" y="552"/>
      <point x="350" y="550" type="curve"/>
      <point x="362" y="486" type="line"/>
      <point x="425" y="486" type="line"/>
      <point x="433" y="507"/>
      <point x="439" y="535"/>
      <point x="439" y="561" type="curve" smooth="yes"/>
      <point x="439" y="588" type="line"/>
      <point x="404" y="608"/>
      <point x="359" y="623"/>
      <point x="284" y="623" type="curve" smooth="yes"/>
      <point x="152" y="623"/>
      <point x="94" y="547"/>
      <point x="94" y="471" type="curve" smooth="yes"/>
      <point x="94" y="429"/>
      <point x="111" y="400"/>
      <point x="140" y="375" type="curve"/>
      <point x="140" y="369" type="line"/>
      <point x="91" y="341"/>
      <point x="62" y="301"/>
      <point x="62" y="246" type="curve" smooth="yes"/>
      <point x="62" y="152"/>
      <point x="137" y="120"/>
      <point x="243" y="95" type="curve" smooth="yes"/>
      <point x="335" y="73"/>
      <point x="356" y="63"/>
      <point x="356" y="12" type="curve" smooth="yes"/>
      <point x="356" y="-10"/>
      <point x="351" y="-28"/>
      <point x="346" y="-45" type="curve"/>
      <point x="320" y="-51"/>
      <point x="291" y="-55"/>
      <point x="254" y="-55" type="curve" smooth="yes"/>
      <point x="201" y="-55"/>
      <point x="169" y="-51"/>
      <point x="119" y="-34" type="curve"/>
      <point x="95" y="-99" type="line"/>
      <point x="156" y="-121"/>
      <point x="195" y="-127"/>
      <point x="249" y="-127" type="curve" smooth="yes"/>
    </contour>
    <contour>
      <point x="345" y="153"/>
      <point x="322" y="157"/>
      <point x="261" y="171" type="curve" smooth="yes"/>
      <point x="168" y="192"/>
      <point x="147" y="215"/>
      <point x="147" y="260" type="curve" smooth="yes"/>
      <point x="147" y="294"/>
      <point x="159" y="323"/>
      <point x="185" y="340" type="curve"/>
      <point x="216" y="331"/>
      <point x="243" y="325"/>
      <point x="287" y="316" type="curve" smooth="yes"/>
      <point x="380" y="297"/>
      <point x="408" y="281"/>
      <point x="408" y="230" type="curve" smooth="yes"/>
      <point x="408" y="194"/>
      <point x="391" y="170"/>
      <point x="373" y="150" type="curve"/>
    </contour>
  </outline>
</glyph>
<glyph name="copyright" format="1">
  <advance width="736"/>
  <unicode hex="00A9"/>
  <note>
	copyright
  </note>
  <outline>
    <contour>
      <point x="554" y="0"/>
      <point x="676" y="131"/>
      <point x="676" y="308" type="curve" smooth="yes"/>
      <point x="676" y="485"/>
      <point x="554" y="616"/>
      <point x="368" y="616" type="curve" smooth="yes"/>
      <point x="182" y="616"/>
      <point x="60" y="485"/>
      <point x="60" y="308" type="curve" smooth="yes"/>
      <point x="60" y="131"/>
      <point x="182" y="0"/>
      <point x="368" y="0" type="curve" smooth="yes"/>
    </contour>
    <contour>
      <point x="416" y="122"/>
      <point x="464" y="133"/>
      <point x="492" y="155" type="curve"/>
      <point x="469" y="205" type="line"/>
      <point x="448" y="188"/>
      <point x="405" y="179"/>
      <point x="369" y="179" type="curve" smooth="yes"/>
      <point x="295" y="179"/>
      <point x="271" y="213"/>
      <point x="271" y="298" type="curve" smooth="yes"/>
      <point x="271" y="350"/>
      <point x="280" y="392"/>
      <point x="301" y="427" type="curve"/>
      <point x="323" y="431"/>
      <point x="342" y="432"/>
      <point x="363" y="432" type="curve" smooth="yes"/>
      <point x="387" y="432"/>
      <point x="407" y="429"/>
      <point x="422" y="427" type="curve"/>
      <point x="428" y="392" type="line"/>
      <point x="471" y="392" type="line"/>
      <point x="476" y="403"/>
      <point x="479" y="431"/>
      <point x="479" y="444" type="curve" smooth="yes"/>
      <point x="479" y="465" type="line"/>
      <point x="460" y="478"/>
      <point x="409" y="489"/>
      <point x="366" y="489" type="curve" smooth="yes"/>
      <point x="269" y="489"/>
      <point x="211" y="414"/>
      <point x="211" y="299" type="curve" smooth="yes"/>
      <point x="211" y="186"/>
      <point x="263" y="122"/>
      <point x="369" y="122" type="curve" smooth="yes"/>
    </contour>
    <contour>
      <point x="206" y="43"/>
      <point x="105" y="150"/>
      <point x="105" y="308" type="curve" smooth="yes"/>
      <point x="105" y="466"/>
      <point x="206" y="573"/>
      <point x="368" y="573" type="curve" smooth="yes"/>
      <point x="530" y="573"/>
      <point x="631" y="466"/>
      <point x="631" y="308" type="curve" smooth="yes"/>
      <point x="631" y="150"/>
      <point x="530" y="43"/>
      <point x="368" y="43" type="curve" smooth="yes"/>
    </contour>
  </outline>
</glyph>
<glyph name="logicalnot" format="1">
  <advance width="460"/>
  <unicode hex="00AC"/>
  <note>
	logicalnot
  </note>
  <outline>
    <contour>
      <point x="410" y="143" type="line"/>
      <point x="410" y="348" type="line"/>
      <point x="50" y="348" type="line"/>
      <point x="50" y="277" type="line"/>
      <point x="335" y="277" type="line"/>
      <point x="335" y="143" type="line"/>
    </contour>
  </outline>
</glyph>
<glyph name="softhyphen" format="1">
  <advance width="382"/>
  <unicode hex="00AD"/>
  <note>
	softhyphen
  </note>
  <outline>
    <contour>
      <point x="307" y="223" type="line"/>
      <point x="307" y="297" type="line"/>
      <point x="75" y="297" type="line"/>
      <point x="75" y="223" type="line"/>
    </contour>
  </outline>
</glyph>
<glyph name="registered" format="1">
  <advance width="736"/>
  <unicode hex="00AE"/>
  <note>
	registered
  </note>
  <outline>
    <contour>
      <point x="554" y="0"/>
      <point x="676" y="131"/>
      <point x="676" y="308" type="curve" smooth="yes"/>
      <point x="676" y="485"/>
      <point x="554" y="616"/>
      <point x="368" y="616" type="curve" smooth="yes"/>
      <point x="182" y="616"/>
      <point x="60" y="485"/>
      <point x="60" y="308" type="curve" smooth="yes"/>
      <point x="60" y="131"/>
      <point x="182" y="0"/>
      <point x="368" y="0" type="curve" smooth="yes"/>
    </contour>
    <contour>
      <point x="206" y="43"/>
      <point x="105" y="150"/>
      <point x="105" y="308" type="curve" smooth="yes"/>
      <point x="105" y="466"/>
      <point x="206" y="573"/>
      <point x="368" y="573" type="curve" smooth="yes"/>
      <point x="530" y="573"/>
      <point x="631" y="466"/>
      <point x="631" y="308" type="curve" smooth="yes"/>
      <point x="631" y="150"/>
      <point x="530" y="43"/>
      <point x="368" y="43" type="curve" smooth="yes"/>
    </contour>
    <contour>
      <point x="503" y="133"/>
      <point x="510" y="135"/>
      <point x="521" y="138" type="curve"/>
      <point x="521" y="167" type="line"/>
      <point x="500" y="172" type="line"/>
      <point x="462" y="253" type="line"/>
      <point x="452" y="271"/>
      <point x="442" y="283"/>
      <point x="426" y="291" type="curve"/>
      <point x="426" y="295" type="line"/>
      <point x="465" y="315"/>
      <point x="485" y="349"/>
      <point x="485" y="394" type="curve" smooth="yes"/>
      <point x="485" y="468"/>
      <point x="437" y="502"/>
      <point x="350" y="502" type="curve" smooth="yes"/>
      <point x="314" y="502"/>
      <point x="279" y="495"/>
      <point x="248" y="486" type="curve"/>
      <point x="248" y="136" type="line"/>
      <point x="302" y="136" type="line"/>
      <point x="302" y="278" type="line"/>
      <point x="344" y="278" type="line" smooth="yes"/>
      <point x="384" y="278"/>
      <point x="397" y="263"/>
      <point x="410" y="234" type="curve" smooth="yes"/>
      <point x="441" y="163" type="line" smooth="yes"/>
      <point x="451" y="141"/>
      <point x="466" y="133"/>
      <point x="490" y="133" type="curve" smooth="yes"/>
    </contour>
    <contour>
      <point x="302" y="447" type="line"/>
      <point x="317" y="450"/>
      <point x="331" y="451"/>
      <point x="349" y="451" type="curve" smooth="yes"/>
      <point x="407" y="451"/>
      <point x="430" y="436"/>
      <point x="430" y="393" type="curve" smooth="yes"/>
      <point x="430" y="342"/>
      <point x="407" y="330"/>
      <point x="332" y="330" type="curve" smooth="yes"/>
      <point x="302" y="330" type="line"/>
    </contour>
  </outline>
</glyph>
<glyph name="macron" format="1">
  <advance width="406"/>
  <unicode hex="00AF"/>
  <note>
	macron
  </note>
  <outline>
    <contour>
      <point x="356" y="516" type="line"/>
      <point x="356" y="586" type="line"/>
      <point x="50" y="586" type="line"/>
      <point x="50" y="516" type="line"/>
    </contour>
  </outline>
</glyph>
<glyph name="degree" format="1">
  <advance width="401"/>
  <unicode hex="00B0"/>
  <note>
	degree
  </note>
  <outline>
    <contour>
      <point x="319" y="281"/>
      <point x="384" y="341"/>
      <point x="384" y="451" type="curve" smooth="yes"/>
      <point x="384" y="563"/>
      <point x="331" y="616"/>
      <point x="227" y="616" type="curve" smooth="yes"/>
      <point x="110" y="616"/>
      <point x="45" y="556"/>
      <point x="45" y="446" type="curve" smooth="yes"/>
      <point x="45" y="334"/>
      <point x="98" y="281"/>
      <point x="202" y="281" type="curve" smooth="yes"/>
    </contour>
    <contour>
      <point x="149" y="348"/>
      <point x="119" y="362"/>
      <point x="119" y="454" type="curve" smooth="yes"/>
      <point x="119" y="483"/>
      <point x="124" y="516"/>
      <point x="131" y="539" type="curve"/>
      <point x="157" y="546"/>
      <point x="186" y="549"/>
      <point x="212" y="549" type="curve" smooth="yes"/>
      <point x="280" y="549"/>
      <point x="310" y="535"/>
      <point x="310" y="443" type="curve" smooth="yes"/>
      <point x="310" y="414"/>
      <point x="305" y="381"/>
      <point x="298" y="358" type="curve"/>
      <point x="272" y="351"/>
      <point x="243" y="348"/>
      <point x="217" y="348" type="curve" smooth="yes"/>
    </contour>
  </outline>
</glyph>
<glyph name="twosuperior" format="1">
  <advance width="327"/>
  <unicode hex="00B2"/>
  <note>
	twosuperior
  </note>
  <outline>
    <contour>
      <point x="292" y="334" type="line"/>
      <point x="292" y="364" type="line" smooth="yes"/>
      <point x="292" y="386"/>
      <point x="290" y="405"/>
      <point x="284" y="425" type="curve"/>
      <point x="225" y="425" type="line"/>
      <point x="225" y="393" type="line"/>
      <point x="105" y="393" type="line"/>
      <point x="105" y="398" type="line"/>
      <point x="193" y="453"/>
      <point x="283" y="507"/>
      <point x="283" y="590" type="curve" smooth="yes"/>
      <point x="283" y="651"/>
      <point x="255" y="696"/>
      <point x="168" y="696" type="curve" smooth="yes"/>
      <point x="122" y="696"/>
      <point x="82" y="686"/>
      <point x="47" y="670" type="curve"/>
      <point x="47" y="648" type="line" smooth="yes"/>
      <point x="47" y="629"/>
      <point x="52" y="602"/>
      <point x="57" y="587" type="curve"/>
      <point x="113" y="587" type="line"/>
      <point x="113" y="625" type="line"/>
      <point x="133" y="630"/>
      <point x="143" y="631"/>
      <point x="162" y="631" type="curve" smooth="yes"/>
      <point x="198" y="631"/>
      <point x="212" y="621"/>
      <point x="212" y="587" type="curve" smooth="yes"/>
      <point x="212" y="532"/>
      <point x="144" y="490"/>
      <point x="35" y="423" type="curve"/>
      <point x="35" y="334" type="line"/>
    </contour>
  </outline>
</glyph>
<glyph name="threesuperior" format="1">
  <advance width="306"/>
  <unicode hex="00B3"/>
  <note>
	threesuperior
  </note>
  <outline>
    <contour>
      <point x="236" y="330"/>
      <point x="271" y="367"/>
      <point x="271" y="427" type="curve" smooth="yes"/>
      <point x="271" y="468"/>
      <point x="254" y="493"/>
      <point x="209" y="510" type="curve"/>
      <point x="209" y="513" type="line"/>
      <point x="247" y="531"/>
      <point x="266" y="555"/>
      <point x="266" y="598" type="curve" smooth="yes"/>
      <point x="266" y="657"/>
      <point x="228" y="697"/>
      <point x="148" y="697" type="curve" smooth="yes"/>
      <point x="101" y="697"/>
      <point x="64" y="689"/>
      <point x="28" y="674" type="curve"/>
      <point x="28" y="651" type="line" smooth="yes"/>
      <point x="28" y="633"/>
      <point x="32" y="611"/>
      <point x="38" y="596" type="curve"/>
      <point x="94" y="596" type="line"/>
      <point x="94" y="631" type="line"/>
      <point x="113" y="634"/>
      <point x="125" y="635"/>
      <point x="144" y="635" type="curve" smooth="yes"/>
      <point x="177" y="635"/>
      <point x="195" y="623"/>
      <point x="195" y="591" type="curve" smooth="yes"/>
      <point x="195" y="556"/>
      <point x="175" y="539"/>
      <point x="131" y="539" type="curve" smooth="yes"/>
      <point x="82" y="539" type="line"/>
      <point x="82" y="479" type="line"/>
      <point x="131" y="479" type="line" smooth="yes"/>
      <point x="175" y="479"/>
      <point x="200" y="468"/>
      <point x="200" y="433" type="curve" smooth="yes"/>
      <point x="200" y="421"/>
      <point x="198" y="407"/>
      <point x="194" y="396" type="curve"/>
      <point x="175" y="393"/>
      <point x="162" y="392"/>
      <point x="138" y="392" type="curve" smooth="yes"/>
      <point x="102" y="392"/>
      <point x="68" y="396"/>
      <point x="34" y="405" type="curve"/>
      <point x="26" y="345" type="line"/>
      <point x="60" y="335"/>
      <point x="99" y="330"/>
      <point x="137" y="330" type="curve" smooth="yes"/>
    </contour>
  </outline>
</glyph>
<glyph name="mu" format="1">
  <advance width="522"/>
  <unicode hex="00B5"/>
  <note>
	mu
  </note>
  <outline>
    <contour>
      <point x="156" y="-213" type="line"/>
      <point x="156" y="13" type="line"/>
      <point x="164" y="13" type="line"/>
      <point x="179" y="0"/>
      <point x="200" y="-8"/>
      <point x="226" y="-8" type="curve" smooth="yes"/>
      <point x="296" y="-8"/>
      <point x="326" y="25"/>
      <point x="367" y="72" type="curve"/>
      <point x="375" y="72" type="line"/>
      <point x="381" y="0" type="line"/>
      <point x="452" y="0" type="line"/>
      <point x="452" y="470" type="line"/>
      <point x="370" y="470" type="line"/>
      <point x="370" y="128" type="line"/>
      <point x="335" y="87"/>
      <point x="295" y="64"/>
      <point x="229" y="64" type="curve" smooth="yes"/>
      <point x="202" y="64"/>
      <point x="180" y="67"/>
      <point x="156" y="75" type="curve"/>
      <point x="156" y="470" type="line"/>
      <point x="74" y="470" type="line"/>
      <point x="74" y="-213" type="line"/>
    </contour>
  </outline>
</glyph>
<glyph name="cedilla" format="1">
  <advance width="321"/>
  <unicode hex="00B8"/>
  <note>
	cedilla
  </note>
  <outline>
    <contour>
      <point x="252" y="-216"/>
      <point x="286" y="-186"/>
      <point x="286" y="-128" type="curve" smooth="yes"/>
      <point x="286" y="-82"/>
      <point x="263" y="-52"/>
      <point x="207" y="-52" type="curve" smooth="yes"/>
      <point x="192" y="-52"/>
      <point x="179" y="-54"/>
      <point x="168" y="-59" type="curve"/>
      <point x="210" y="0" type="line"/>
      <point x="154" y="11" type="line"/>
      <point x="90" y="-66" type="line"/>
      <point x="133" y="-109" type="line"/>
      <point x="143" y="-104"/>
      <point x="158" y="-101"/>
      <point x="173" y="-101" type="curve" smooth="yes"/>
      <point x="200" y="-101"/>
      <point x="218" y="-109"/>
      <point x="218" y="-131" type="curve" smooth="yes"/>
      <point x="218" y="-142"/>
      <point x="217" y="-148"/>
      <point x="214" y="-157" type="curve"/>
      <point x="199" y="-160"/>
      <point x="185" y="-161"/>
      <point x="167" y="-161" type="curve" smooth="yes"/>
      <point x="149" y="-161"/>
      <point x="120" y="-157"/>
      <point x="102" y="-150" type="curve"/>
      <point x="85" y="-199" type="line"/>
      <point x="115" y="-213"/>
      <point x="146" y="-216"/>
      <point x="174" y="-216" type="curve" smooth="yes"/>
    </contour>
  </outline>
</glyph>
<glyph name="threequarters" format="1">
  <advance width="815"/>
  <unicode hex="00BE"/>
  <note>
	threequarters
  </note>
  <outline>
    <contour>
      <point x="653" y="606" type="line"/>
      <point x="589" y="623" type="line"/>
      <point x="208" y="13" type="line"/>
      <point x="272" y="-5" type="line"/>
    </contour>
    <contour>
      <point x="268" y="249"/>
      <point x="303" y="286"/>
      <point x="303" y="346" type="curve" smooth="yes"/>
      <point x="303" y="387"/>
      <point x="286" y="412"/>
      <point x="241" y="429" type="curve"/>
      <point x="241" y="432" type="line"/>
      <point x="279" y="450"/>
      <point x="298" y="474"/>
      <point x="298" y="517" type="curve" smooth="yes"/>
      <point x="298" y="576"/>
      <point x="260" y="616"/>
      <point x="180" y="616" type="curve" smooth="yes"/>
      <point x="133" y="616"/>
      <point x="96" y="608"/>
      <point x="60" y="593" type="curve"/>
      <point x="60" y="570" type="line" smooth="yes"/>
      <point x="60" y="552"/>
      <point x="64" y="530"/>
      <point x="70" y="515" type="curve"/>
      <point x="126" y="515" type="line"/>
      <point x="126" y="550" type="line"/>
      <point x="145" y="553"/>
      <point x="157" y="554"/>
      <point x="176" y="554" type="curve" smooth="yes"/>
      <point x="209" y="554"/>
      <point x="227" y="542"/>
      <point x="227" y="510" type="curve" smooth="yes"/>
      <point x="227" y="475"/>
      <point x="207" y="458"/>
      <point x="163" y="458" type="curve" smooth="yes"/>
      <point x="114" y="458" type="line"/>
      <point x="114" y="398" type="line"/>
      <point x="163" y="398" type="line" smooth="yes"/>
      <point x="207" y="398"/>
      <point x="232" y="387"/>
      <point x="232" y="352" type="curve" smooth="yes"/>
      <point x="232" y="340"/>
      <point x="230" y="326"/>
      <point x="226" y="315" type="curve"/>
      <point x="207" y="312"/>
      <point x="194" y="311"/>
      <point x="170" y="311" type="curve" smooth="yes"/>
      <point x="134" y="311"/>
      <point x="100" y="315"/>
      <point x="66" y="324" type="curve"/>
      <point x="58" y="264" type="line"/>
      <point x="92" y="254"/>
      <point x="131" y="249"/>
      <point x="169" y="249" type="curve" smooth="yes"/>
    </contour>
    <contour>
      <point x="711" y="0" type="line"/>
      <point x="711" y="60" type="line"/>
      <point x="758" y="60" type="line"/>
      <point x="758" y="119" type="line"/>
      <point x="711" y="119" type="line"/>
      <point x="711" y="357" type="line"/>
      <point x="635" y="357" type="line"/>
      <point x="468" y="118" type="line"/>
      <point x="492" y="60" type="line"/>
      <point x="639" y="60" type="line"/>
      <point x="639" y="0" type="line"/>
    </contour>
    <contour>
      <point x="549" y="124" type="line"/>
      <point x="645" y="279" type="line"/>
      <point x="650" y="279" type="line"/>
      <point x="644" y="233"/>
      <point x="641" y="197"/>
      <point x="641" y="154" type="curve" smooth="yes"/>
      <point x="641" y="119" type="line"/>
      <point x="551" y="119" type="line"/>
    </contour>
  </outline>
</glyph>
<glyph name="questiondown" format="1">
  <advance width="523"/>
  <unicode hex="00BF"/>
  <note>
	questiondown
  </note>
  <outline>
    <contour>
      <point x="342" y="-110"/>
      <point x="427" y="-85"/>
      <point x="459" y="-63" type="curve"/>
      <point x="459" y="-26" type="line"/>
      <point x="457" y="1"/>
      <point x="453" y="28"/>
      <point x="445" y="55" type="curve"/>
      <point x="379" y="55" type="line"/>
      <point x="379" y="-20" type="line"/>
      <point x="347" y="-30"/>
      <point x="305" y="-34"/>
      <point x="260" y="-34" type="curve" smooth="yes"/>
      <point x="182" y="-34"/>
      <point x="144" y="-12"/>
      <point x="144" y="51" type="curve" smooth="yes"/>
      <point x="144" y="116" type="line"/>
      <point x="306" y="238" type="line" smooth="yes"/>
      <point x="324" y="252"/>
      <point x="329" y="268"/>
      <point x="329" y="297" type="curve" smooth="yes"/>
      <point x="329" y="363" type="line"/>
      <point x="245" y="363" type="line"/>
      <point x="245" y="309" type="line" smooth="yes"/>
      <point x="245" y="288"/>
      <point x="243" y="278"/>
      <point x="230" y="268" type="curve" smooth="yes"/>
      <point x="122" y="190" type="line" smooth="yes"/>
      <point x="73" y="154"/>
      <point x="60" y="116"/>
      <point x="60" y="54" type="curve" smooth="yes"/>
      <point x="60" y="-45"/>
      <point x="113" y="-110"/>
      <point x="258" y="-110" type="curve" smooth="yes"/>
    </contour>
    <contour>
      <point x="330" y="427" type="line"/>
      <point x="330" y="517" type="line"/>
      <point x="244" y="517" type="line"/>
      <point x="244" y="427" type="line"/>
    </contour>
  </outline>
</glyph>
<glyph name="Agrave" format="1">
  <advance width="607"/>
  <unicode hex="00C0"/>
  <note>
	Agrave
  </note>
  <outline>
    <contour>
      <point x="342" y="695" type="line"/>
      <point x="259" y="840" type="line"/>
      <point x="153" y="829" type="line"/>
      <point x="278" y="685" type="line"/>
    </contour>
    <component base="A"/>
  </outline>
</glyph>
<glyph name="Acircumflex" format="1">
  <advance width="607"/>
  <unicode hex="00C2"/>
  <note>
	Acircumflex
  </note>
  <outline>
    <contour>
      <point x="301" y="760" type="line"/>
      <point x="306" y="760" type="line"/>
      <point x="387" y="685" type="line"/>
      <point x="440" y="696" type="line"/>
      <point x="341" y="829" type="line"/>
      <point x="266" y="829" type="line"/>
      <point x="166" y="696" type="line"/>
      <point x="217" y="685" type="line"/>
    </contour>
    <component base="A"/>
  </outline>
</glyph>
<glyph name="Adieresis" format="1">
  <advance width="607"/>
  <unicode hex="00C4"/>
  <note>
	Adieresis
  </note>
  <outline>
    <contour>
      <point x="411" y="691"/>
      <point x="428" y="707"/>
      <point x="428" y="734" type="curve" smooth="yes"/>
      <point x="428" y="762"/>
      <point x="411" y="778"/>
      <point x="382" y="778" type="curve" smooth="yes"/>
      <point x="353" y="778"/>
      <point x="335" y="762"/>
      <point x="335" y="734" type="curve" smooth="yes"/>
      <point x="335" y="707"/>
      <point x="353" y="691"/>
      <point x="382" y="691" type="curve" smooth="yes"/>
    </contour>
    <contour>
      <point x="253" y="691"/>
      <point x="270" y="707"/>
      <point x="270" y="734" type="curve" smooth="yes"/>
      <point x="270" y="762"/>
      <point x="253" y="778"/>
      <point x="224" y="778" type="curve" smooth="yes"/>
      <point x="196" y="778"/>
      <point x="178" y="762"/>
      <point x="178" y="734" type="curve" smooth="yes"/>
      <point x="178" y="707"/>
      <point x="196" y="691"/>
      <point x="224" y="691" type="curve" smooth="yes"/>
    </contour>
    <component base="A"/>
  </outline>
</glyph>
<glyph name="Egrave" format="1">
  <advance width="539"/>
  <unicode hex="00C8"/>
  <note>
	Egrave
  </note>
  <outline>
    <contour>
      <point x="364" y="-8"/>
      <point x="428" y="-2"/>
      <point x="479" y="13" type="curve"/>
      <point x="460" y="87" type="line"/>
      <point x="410" y="75"/>
      <point x="346" y="69"/>
      <point x="290" y="69" type="curve" smooth="yes"/>
      <point x="242" y="69"/>
      <point x="201" y="72"/>
      <point x="159" y="79" type="curve"/>
      <point x="159" y="270" type="line"/>
      <point x="439" y="270" type="line"/>
      <point x="439" y="345" type="line"/>
      <point x="159" y="345" type="line"/>
      <point x="159" y="539" type="line"/>
      <point x="468" y="539" type="line"/>
      <point x="468" y="616" type="line"/>
      <point x="75" y="616" type="line"/>
      <point x="75" y="93" type="line" smooth="yes"/>
      <point x="75" y="13"/>
      <point x="167" y="-8"/>
      <point x="287" y="-8" type="curve" smooth="yes"/>
    </contour>
    <contour>
      <point x="341" y="696" type="line"/>
      <point x="258" y="841" type="line"/>
      <point x="152" y="830" type="line"/>
      <point x="277" y="686" type="line"/>
    </contour>
  </outline>
</glyph>
<glyph name="Ecircumflex" format="1">
  <advance width="539"/>
  <unicode hex="00CA"/>
  <note>
	Ecircumflex
  </note>
  <outline>
    <contour>
      <point x="364" y="-8"/>
      <point x="428" y="-2"/>
      <point x="479" y="13" type="curve"/>
      <point x="460" y="87" type="line"/>
      <point x="410" y="75"/>
      <point x="346" y="69"/>
      <point x="290" y="69" type="curve" smooth="yes"/>
      <point x="242" y="69"/>
      <point x="201" y="72"/>
      <point x="159" y="79" type="curve"/>
      <point x="159" y="270" type="line"/>
      <point x="439" y="270" type="line"/>
      <point x="439" y="345" type="line"/>
      <point x="159" y="345" type="line"/>
      <point x="159" y="539" type="line"/>
      <point x="468" y="539" type="line"/>
      <point x="468" y="616" type="line"/>
      <point x="75" y="616" type="line"/>
      <point x="75" y="93" type="line" smooth="yes"/>
      <point x="75" y="13"/>
      <point x="167" y="-8"/>
      <point x="287" y="-8" type="curve" smooth="yes"/>
    </contour>
    <contour>
      <point x="272" y="759" type="line"/>
      <point x="277" y="759" type="line"/>
      <point x="358" y="684" type="line"/>
      <point x="411" y="695" type="line"/>
      <point x="312" y="828" type="line"/>
      <point x="237" y="828" type="line"/>
      <point x="137" y="695" type="line"/>
      <point x="188" y="684" type="line"/>
    </contour>
  </outline>
</glyph>
<glyph name="Edieresis" format="1">
  <advance width="539"/>
  <unicode hex="00CB"/>
  <note>
	Edieresis
  </note>
  <outline>
    <contour>
      <point x="364" y="-8"/>
      <point x="428" y="-2"/>
      <point x="479" y="13" type="curve"/>
      <point x="460" y="87" type="line"/>
      <point x="410" y="75"/>
      <point x="346" y="69"/>
      <point x="290" y="69" type="curve" smooth="yes"/>
      <point x="242" y="69"/>
      <point x="201" y="72"/>
      <point x="159" y="79" type="curve"/>
      <point x="159" y="270" type="line"/>
      <point x="439" y="270" type="line"/>
      <point x="439" y="345" type="line"/>
      <point x="159" y="345" type="line"/>
      <point x="159" y="539" type="line"/>
      <point x="468" y="539" type="line"/>
      <point x="468" y="616" type="line"/>
      <point x="75" y="616" type="line"/>
      <point x="75" y="93" type="line" smooth="yes"/>
      <point x="75" y="13"/>
      <point x="167" y="-8"/>
      <point x="287" y="-8" type="curve" smooth="yes"/>
    </contour>
    <contour>
      <point x="234" y="691"/>
      <point x="251" y="707"/>
      <point x="251" y="734" type="curve" smooth="yes"/>
      <point x="251" y="762"/>
      <point x="234" y="778"/>
      <point x="205" y="778" type="curve" smooth="yes"/>
      <point x="177" y="778"/>
      <point x="159" y="762"/>
      <point x="159" y="734" type="curve" smooth="yes"/>
      <point x="159" y="707"/>
      <point x="177" y="691"/>
      <point x="205" y="691" type="curve" smooth="yes"/>
    </contour>
    <contour>
      <point x="392" y="691"/>
      <point x="409" y="707"/>
      <point x="409" y="734" type="curve" smooth="yes"/>
      <point x="409" y="762"/>
      <point x="392" y="778"/>
      <point x="363" y="778" type="curve" smooth="yes"/>
      <point x="334" y="778"/>
      <point x="316" y="762"/>
      <point x="316" y="734" type="curve" smooth="yes"/>
      <point x="316" y="707"/>
      <point x="334" y="691"/>
      <point x="363" y="691" type="curve" smooth="yes"/>
    </contour>
  </outline>
</glyph>
<glyph name="Igrave" format="1">
  <advance width="242"/>
  <unicode hex="00CC"/>
  <note>
	Igrave
  </note>
  <outline>
    <contour>
      <point x="163" y="0" type="line"/>
      <point x="163" y="616" type="line"/>
      <point x="78" y="616" type="line"/>
      <point x="78" y="0" type="line"/>
    </contour>
    <contour>
      <point x="164" y="696" type="line"/>
      <point x="81" y="841" type="line"/>
      <point x="-25" y="830" type="line"/>
      <point x="100" y="686" type="line"/>
    </contour>
  </outline>
</glyph>
<glyph name="Iacute" format="1">
  <advance width="242"/>
  <unicode hex="00CD"/>
  <note>
	Iacute
  </note>
  <outline>
    <contour>
      <point x="163" y="0" type="line"/>
      <point x="163" y="616" type="line"/>
      <point x="78" y="616" type="line"/>
      <point x="78" y="0" type="line"/>
    </contour>
    <contour>
      <point x="270" y="830" type="line"/>
      <point x="164" y="841" type="line"/>
      <point x="81" y="696" type="line"/>
      <point x="145" y="686" type="line"/>
    </contour>
  </outline>
</glyph>
<glyph name="Icircumflex" format="1">
  <advance width="242"/>
  <unicode hex="00CE"/>
  <note>
	Icircumflex
  </note>
  <outline>
    <contour>
      <point x="163" y="0" type="line"/>
      <point x="163" y="616" type="line"/>
      <point x="78" y="616" type="line"/>
      <point x="78" y="0" type="line"/>
    </contour>
    <contour>
      <point x="119" y="760" type="line"/>
      <point x="124" y="760" type="line"/>
      <point x="205" y="685" type="line"/>
      <point x="258" y="696" type="line"/>
      <point x="159" y="829" type="line"/>
      <point x="84" y="829" type="line"/>
      <point x="-16" y="696" type="line"/>
      <point x="35" y="685" type="line"/>
    </contour>
  </outline>
</glyph>
<glyph name="Eth" format="1">
  <advance width="646"/>
  <unicode hex="00D0"/>
  <note>
	Eth
  </note>
  <outline>
    <contour>
      <point x="279" y="0" type="line" smooth="yes"/>
      <point x="547" y="0"/>
      <point x="600" y="119"/>
      <point x="600" y="315" type="curve" smooth="yes"/>
      <point x="600" y="505"/>
      <point x="529" y="626"/>
      <point x="313" y="626" type="curve" smooth="yes"/>
      <point x="254" y="626"/>
      <point x="189" y="619"/>
      <point x="136" y="606" type="curve"/>
      <point x="136" y="354" type="line"/>
      <point x="45" y="354" type="line"/>
      <point x="45" y="290" type="line"/>
      <point x="136" y="290" type="line"/>
      <point x="136" y="0" type="line"/>
    </contour>
    <contour>
      <point x="221" y="290" type="line"/>
      <point x="325" y="290" type="line"/>
      <point x="325" y="354" type="line"/>
      <point x="221" y="354" type="line"/>
      <point x="221" y="543" type="line"/>
      <point x="252" y="547"/>
      <point x="278" y="549"/>
      <point x="309" y="549" type="curve" smooth="yes"/>
      <point x="473" y="549"/>
      <point x="515" y="468"/>
      <point x="515" y="306" type="curve" smooth="yes"/>
      <point x="515" y="224"/>
      <point x="501" y="146"/>
      <point x="480" y="100" type="curve"/>
      <point x="424" y="84"/>
      <point x="361" y="78"/>
      <point x="280" y="78" type="curve" smooth="yes"/>
      <point x="221" y="78" type="line"/>
    </contour>
  </outline>
</glyph>
<glyph name="Ntilde" format="1">
  <advance width="625"/>
  <unicode hex="00D1"/>
  <note>
	Ntilde
  </note>
  <outline>
    <contour>
      <point x="161" y="0" type="line"/>
      <point x="161" y="328" type="line"/>
      <point x="151" y="485" type="line"/>
      <point x="159" y="487" type="line"/>
      <point x="454" y="0" type="line"/>
      <point x="550" y="0" type="line"/>
      <point x="550" y="616" type="line"/>
      <point x="464" y="616" type="line"/>
      <point x="464" y="288" type="line"/>
      <point x="474" y="131" type="line"/>
      <point x="466" y="129" type="line"/>
      <point x="171" y="616" type="line"/>
      <point x="75" y="616" type="line"/>
      <point x="75" y="0" type="line"/>
    </contour>
    <contour>
      <point x="226" y="704"/>
      <point x="236" y="723"/>
      <point x="263" y="723" type="curve" smooth="yes"/>
      <point x="298" y="723"/>
      <point x="325" y="682"/>
      <point x="372" y="682" type="curve" smooth="yes"/>
      <point x="427" y="682"/>
      <point x="452" y="713"/>
      <point x="456" y="778" type="curve"/>
      <point x="401" y="796" type="line"/>
      <point x="398" y="770"/>
      <point x="388" y="751"/>
      <point x="361" y="751" type="curve" smooth="yes"/>
      <point x="332" y="751"/>
      <point x="294" y="792"/>
      <point x="252" y="792" type="curve" smooth="yes"/>
      <point x="197" y="792"/>
      <point x="172" y="761"/>
      <point x="168" y="696" type="curve"/>
      <point x="223" y="678" type="line"/>
    </contour>
  </outline>
</glyph>
<glyph name="Thorn" format="1">
  <advance width="489"/>
  <unicode hex="00DE"/>
  <note>
	Thorn
  </note>
  <outline>
    <contour>
      <point x="160" y="0" type="line"/>
      <point x="160" y="143" type="line"/>
      <point x="250" y="143" type="line" smooth="yes"/>
      <point x="368" y="143"/>
      <point x="449" y="200"/>
      <point x="449" y="325" type="curve" smooth="yes"/>
      <point x="449" y="444"/>
      <point x="369" y="502"/>
      <point x="250" y="502" type="curve" smooth="yes"/>
      <point x="160" y="502" type="line"/>
      <point x="160" y="616" type="line"/>
      <point x="75" y="616" type="line"/>
      <point x="75" y="0" type="line"/>
    </contour>
    <contour>
      <point x="160" y="428" type="line"/>
      <point x="246" y="428" type="line" smooth="yes"/>
      <point x="329" y="428"/>
      <point x="364" y="402"/>
      <point x="364" y="325" type="curve" smooth="yes"/>
      <point x="364" y="252"/>
      <point x="334" y="217"/>
      <point x="246" y="217" type="curve" smooth="yes"/>
      <point x="160" y="217" type="line"/>
    </contour>
  </outline>
</glyph>
<glyph name="germandbls" format="1">
  <advance width="550"/>
  <unicode hex="00DF"/>
  <note>
	germandbls
  </note>
  <outline>
    <contour>
      <point x="414" y="-9"/>
      <point x="484" y="52"/>
      <point x="484" y="178" type="curve" smooth="yes"/>
      <point x="484" y="267"/>
      <point x="438" y="329"/>
      <point x="334" y="352" type="curve"/>
      <point x="334" y="358" type="line"/>
      <point x="412" y="384"/>
      <point x="447" y="429"/>
      <point x="447" y="502" type="curve" smooth="yes"/>
      <point x="447" y="602"/>
      <point x="375" y="664"/>
      <point x="262" y="664" type="curve" smooth="yes"/>
      <point x="148" y="664"/>
      <point x="72" y="610"/>
      <point x="72" y="489" type="curve" smooth="yes"/>
      <point x="72" y="0" type="line"/>
      <point x="155" y="0" type="line"/>
      <point x="155" y="579" type="line"/>
      <point x="185" y="586"/>
      <point x="217" y="589"/>
      <point x="253" y="589" type="curve" smooth="yes"/>
      <point x="324" y="589"/>
      <point x="364" y="563"/>
      <point x="364" y="498" type="curve" smooth="yes"/>
      <point x="364" y="433"/>
      <point x="332" y="385"/>
      <point x="236" y="385" type="curve"/>
      <point x="236" y="311" type="line"/>
      <point x="354" y="311"/>
      <point x="402" y="261"/>
      <point x="402" y="177" type="curve" smooth="yes"/>
      <point x="402" y="132"/>
      <point x="397" y="101"/>
      <point x="384" y="75" type="curve"/>
      <point x="358" y="64"/>
      <point x="327" y="65"/>
      <point x="297" y="65" type="curve" smooth="yes"/>
      <point x="271" y="65"/>
      <point x="238" y="70"/>
      <point x="217" y="77" type="curve"/>
      <point x="206" y="5" type="line"/>
      <point x="231" y="-3"/>
      <point x="262" y="-9"/>
      <point x="294" y="-9" type="curve" smooth="yes"/>
    </contour>
  </outline>
</glyph>
<glyph name="ccedilla" format="1">
  <advance width="451"/>
  <unicode hex="00E7"/>
  <note>
	ccedilla
  </note>
  <outline>
    <contour>
      <point x="323" y="-216"/>
      <point x="357" y="-186"/>
      <point x="357" y="-128" type="curve" smooth="yes"/>
      <point x="357" y="-82"/>
      <point x="334" y="-52"/>
      <point x="278" y="-52" type="curve" smooth="yes"/>
      <point x="263" y="-52"/>
      <point x="250" y="-54"/>
      <point x="239" y="-59" type="curve"/>
      <point x="275" y="-8" type="line"/>
      <point x="340" y="-5"/>
      <point x="385" y="16"/>
      <point x="425" y="51" type="curve"/>
      <point x="388" y="108" type="line"/>
      <point x="354" y="79"/>
      <point x="313" y="65"/>
      <point x="264" y="65" type="curve" smooth="yes"/>
      <point x="158" y="65"/>
      <point x="127" y="121"/>
      <point x="127" y="222" type="curve" smooth="yes"/>
      <point x="127" y="282"/>
      <point x="138" y="358"/>
      <point x="151" y="392" type="curve"/>
      <point x="174" y="401"/>
      <point x="215" y="405"/>
      <point x="248" y="405" type="curve" smooth="yes"/>
      <point x="276" y="405"/>
      <point x="302" y="401"/>
      <point x="320" y="396" type="curve"/>
      <point x="328" y="322" type="line"/>
      <point x="387" y="322" type="line"/>
      <point x="394" y="341"/>
      <point x="400" y="368"/>
      <point x="400" y="401" type="curve" smooth="yes"/>
      <point x="400" y="437" type="line"/>
      <point x="368" y="460"/>
      <point x="313" y="478"/>
      <point x="253" y="478" type="curve" smooth="yes"/>
      <point x="113" y="478"/>
      <point x="47" y="375"/>
      <point x="47" y="222" type="curve" smooth="yes"/>
      <point x="47" y="105"/>
      <point x="83" y="13"/>
      <point x="212" y="-4" type="curve"/>
      <point x="161" y="-66" type="line"/>
      <point x="204" y="-109" type="line"/>
      <point x="214" y="-104"/>
      <point x="229" y="-101"/>
      <point x="244" y="-101" type="curve" smooth="yes"/>
      <point x="271" y="-101"/>
      <point x="289" y="-109"/>
      <point x="289" y="-131" type="curve" smooth="yes"/>
      <point x="289" y="-142"/>
      <point x="288" y="-148"/>
      <point x="285" y="-157" type="curve"/>
      <point x="270" y="-160"/>
      <point x="256" y="-161"/>
      <point x="238" y="-161" type="curve" smooth="yes"/>
      <point x="220" y="-161"/>
      <point x="191" y="-157"/>
      <point x="173" y="-150" type="curve"/>
      <point x="156" y="-199" type="line"/>
      <point x="186" y="-213"/>
      <point x="217" y="-216"/>
      <point x="245" y="-216" type="curve" smooth="yes"/>
    </contour>
  </outline>
</glyph>
<glyph name="idieresis" format="1">
  <advance width="232"/>
  <unicode hex="00EF"/>
  <note>
	idieresis
  </note>
  <outline>
    <contour>
      <point x="156" y="0" type="line"/>
      <point x="156" y="469" type="line"/>
      <point x="76" y="469" type="line"/>
      <point x="76" y="0" type="line"/>
    </contour>
    <contour>
      <point x="66" y="547"/>
      <point x="83" y="563"/>
      <point x="83" y="590" type="curve" smooth="yes"/>
      <point x="83" y="618"/>
      <point x="66" y="634"/>
      <point x="37" y="634" type="curve" smooth="yes"/>
      <point x="9" y="634"/>
      <point x="-9" y="618"/>
      <point x="-9" y="590" type="curve" smooth="yes"/>
      <point x="-9" y="563"/>
      <point x="9" y="547"/>
      <point x="37" y="547" type="curve" smooth="yes"/>
    </contour>
    <contour>
      <point x="224" y="547"/>
      <point x="241" y="563"/>
      <point x="241" y="590" type="curve" smooth="yes"/>
      <point x="241" y="618"/>
      <point x="224" y="634"/>
      <point x="195" y="634" type="curve" smooth="yes"/>
      <point x="166" y="634"/>
      <point x="148" y="618"/>
      <point x="148" y="590" type="curve" smooth="yes"/>
      <point x="148" y="563"/>
      <point x="166" y="547"/>
      <point x="195" y="547" type="curve" smooth="yes"/>
    </contour>
  </outline>
</glyph>
<glyph name="ntilde" format="1">
  <advance width="526"/>
  <unicode hex="00F1"/>
  <note>
	ntilde
  </note>
  <outline>
    <contour>
      <point x="156" y="0" type="line"/>
      <point x="156" y="342" type="line"/>
      <point x="191" y="383"/>
      <point x="235" y="406"/>
      <point x="307" y="406" type="curve" smooth="yes"/>
      <point x="325" y="406"/>
      <point x="350" y="404"/>
      <point x="374" y="397" type="curve"/>
      <point x="374" y="0" type="line"/>
      <point x="456" y="0" type="line"/>
      <point x="456" y="344" type="line" smooth="yes"/>
      <point x="456" y="444"/>
      <point x="412" y="478"/>
      <point x="321" y="478" type="curve" smooth="yes"/>
      <point x="248" y="478"/>
      <point x="198" y="445"/>
      <point x="159" y="398" type="curve"/>
      <point x="151" y="398" type="line"/>
      <point x="145" y="470" type="line"/>
      <point x="74" y="470" type="line"/>
      <point x="74" y="0" type="line"/>
    </contour>
    <contour>
      <point x="182" y="569"/>
      <point x="192" y="588"/>
      <point x="219" y="588" type="curve" smooth="yes"/>
      <point x="254" y="588"/>
      <point x="281" y="547"/>
      <point x="328" y="547" type="curve" smooth="yes"/>
      <point x="383" y="547"/>
      <point x="408" y="578"/>
      <point x="412" y="643" type="curve"/>
      <point x="357" y="661" type="line"/>
      <point x="354" y="635"/>
      <point x="344" y="616"/>
      <point x="317" y="616" type="curve" smooth="yes"/>
      <point x="288" y="616"/>
      <point x="250" y="657"/>
      <point x="208" y="657" type="curve" smooth="yes"/>
      <point x="153" y="657"/>
      <point x="128" y="626"/>
      <point x="124" y="561" type="curve"/>
      <point x="179" y="543" type="line"/>
    </contour>
  </outline>
</glyph>
<glyph name="uacute" format="1">
  <advance width="520"/>
  <unicode hex="00FA"/>
  <note>
	uacute
  </note>
  <outline>
    <contour>
      <point x="272" y="-8"/>
      <point x="320" y="25"/>
      <point x="361" y="72" type="curve"/>
      <point x="369" y="72" type="line"/>
      <point x="375" y="0" type="line"/>
      <point x="446" y="0" type="line"/>
      <point x="446" y="470" type="line"/>
      <point x="364" y="470" type="line"/>
      <point x="364" y="128" type="line"/>
      <point x="329" y="87"/>
      <point x="282" y="64"/>
      <point x="216" y="64" type="curve" smooth="yes"/>
      <point x="198" y="64"/>
      <point x="174" y="66"/>
      <point x="150" y="73" type="curve"/>
      <point x="150" y="470" type="line"/>
      <point x="68" y="470" type="line"/>
      <point x="68" y="126" type="line" smooth="yes"/>
      <point x="68" y="26"/>
      <point x="111" y="-8"/>
      <point x="202" y="-8" type="curve" smooth="yes"/>
    </contour>
    <contour>
      <point x="394" y="685" type="line"/>
      <point x="288" y="696" type="line"/>
      <point x="205" y="551" type="line"/>
      <point x="269" y="541" type="line"/>
    </contour>
  </outline>
</glyph>
<glyph name="yacute" format="1">
  <advance width="496"/>
  <unicode hex="00FD"/>
  <note>
	yacute
  </note>
  <outline>
    <contour>
      <point x="190" y="-197"/>
      <point x="254" y="-165"/>
      <point x="277" y="-112" type="curve" smooth="yes"/>
      <point x="341" y="37"/>
      <point x="406" y="247"/>
      <point x="460" y="468" type="curve"/>
      <point x="377" y="475" type="line"/>
      <point x="347" y="346"/>
      <point x="311" y="211"/>
      <point x="272" y="91" type="curve"/>
      <point x="233" y="91" type="line"/>
      <point x="189" y="200"/>
      <point x="146" y="333"/>
      <point x="111" y="475" type="curve"/>
      <point x="30" y="468" type="line"/>
      <point x="70" y="312"/>
      <point x="117" y="185"/>
      <point x="185" y="21" type="curve"/>
      <point x="249" y="21" type="line"/>
      <point x="230" y="-33"/>
      <point x="211" y="-84"/>
      <point x="193" y="-127" type="curve"/>
      <point x="180" y="-129"/>
      <point x="170" y="-131"/>
      <point x="157" y="-131" type="curve" smooth="yes"/>
      <point x="146" y="-131"/>
      <point x="131" y="-130"/>
      <point x="122" y="-128" type="curve"/>
      <point x="122" y="-84" type="line"/>
      <point x="63" y="-84" type="line"/>
      <point x="55" y="-109"/>
      <point x="53" y="-125"/>
      <point x="53" y="-147" type="curve" smooth="yes"/>
      <point x="53" y="-178" type="line"/>
      <point x="75" y="-189"/>
      <point x="103" y="-197"/>
      <point x="141" y="-197" type="curve" smooth="yes"/>
    </contour>
    <contour>
      <point x="395" y="685" type="line"/>
      <point x="289" y="696" type="line"/>
      <point x="206" y="551" type="line"/>
      <point x="270" y="541" type="line"/>
    </contour>
  </outline>
</glyph>
<glyph name="thorn" format="1">
  <advance width="495"/>
  <unicode hex="00FE"/>
  <note>
	thorn
  </note>
  <outline>
    <contour>
      <point x="160" y="-180" type="line"/>
      <point x="160" y="91" type="line"/>
      <point x="167" y="91" type="line"/>
      <point x="204" y="68"/>
      <point x="242" y="55"/>
      <point x="290" y="55" type="curve" smooth="yes"/>
      <point x="408" y="55"/>
      <point x="455" y="147"/>
      <point x="455" y="265" type="curve" smooth="yes"/>
      <point x="455" y="383"/>
      <point x="408" y="475"/>
      <point x="290" y="475" type="curve" smooth="yes"/>
      <point x="242" y="475"/>
      <point x="204" y="462"/>
      <point x="167" y="439" type="curve"/>
      <point x="160" y="439" type="line"/>
      <point x="160" y="676" type="line"/>
      <point x="75" y="676" type="line"/>
      <point x="75" y="-180" type="line"/>
    </contour>
    <contour>
      <point x="226" y="132"/>
      <point x="193" y="139"/>
      <point x="160" y="152" type="curve"/>
      <point x="160" y="378" type="line"/>
      <point x="193" y="391"/>
      <point x="226" y="398"/>
      <point x="263" y="398" type="curve" smooth="yes"/>
      <point x="345" y="398"/>
      <point x="370" y="345"/>
      <point x="370" y="265" type="curve" smooth="yes"/>
      <point x="370" y="185"/>
      <point x="345" y="132"/>
      <point x="263" y="132" type="curve" smooth="yes"/>
    </contour>
  </outline>
</glyph>
<glyph name="Amacron" format="1">
  <advance width="607"/>
  <unicode hex="0100"/>
  <note>
	Amacron
  </note>
  <outline>
    <contour>
      <point x="456" y="696" type="line"/>
      <point x="456" y="766" type="line"/>
      <point x="150" y="766" type="line"/>
      <point x="150" y="696" type="line"/>
    </contour>
    <component base="A"/>
  </outline>
</glyph>
<glyph name="cacute" format="1">
  <advance width="451"/>
  <unicode hex="0107"/>
  <note>
	cacute
  </note>
  <outline>
    <contour>
      <point x="334" y="-8"/>
      <point x="382" y="14"/>
      <point x="425" y="51" type="curve"/>
      <point x="388" y="108" type="line"/>
      <point x="354" y="79"/>
      <point x="313" y="65"/>
      <point x="264" y="65" type="curve" smooth="yes"/>
      <point x="158" y="65"/>
      <point x="127" y="121"/>
      <point x="127" y="222" type="curve" smooth="yes"/>
      <point x="127" y="282"/>
      <point x="138" y="358"/>
      <point x="151" y="392" type="curve"/>
      <point x="174" y="401"/>
      <point x="215" y="405"/>
      <point x="248" y="405" type="curve" smooth="yes"/>
      <point x="276" y="405"/>
      <point x="302" y="401"/>
      <point x="320" y="396" type="curve"/>
      <point x="328" y="322" type="line"/>
      <point x="387" y="322" type="line"/>
      <point x="394" y="341"/>
      <point x="400" y="368"/>
      <point x="400" y="401" type="curve" smooth="yes"/>
      <point x="400" y="437" type="line"/>
      <point x="368" y="460"/>
      <point x="313" y="478"/>
      <point x="253" y="478" type="curve" smooth="yes"/>
      <point x="113" y="478"/>
      <point x="47" y="375"/>
      <point x="47" y="222" type="curve" smooth="yes"/>
      <point x="47" y="91"/>
      <point x="93" y="-8"/>
      <point x="262" y="-8" type="curve" smooth="yes"/>
    </contour>
    <contour>
      <point x="394" y="685" type="line"/>
      <point x="288" y="696" type="line"/>
      <point x="205" y="551" type="line"/>
      <point x="269" y="541" type="line"/>
    </contour>
  </outline>
</glyph>
<glyph name="Dcaron" format="1">
  <advance width="585"/>
  <unicode hex="010E"/>
  <note>
	Dcaron
  </note>
  <outline>
    <contour>
      <point x="218" y="0" type="line" smooth="yes"/>
      <point x="486" y="0"/>
      <point x="539" y="119"/>
      <point x="539" y="315" type="curve" smooth="yes"/>
      <point x="539" y="505"/>
      <point x="468" y="626"/>
      <point x="252" y="626" type="curve" smooth="yes"/>
      <point x="193" y="626"/>
      <point x="128" y="619"/>
      <point x="75" y="606" type="curve"/>
      <point x="75" y="0" type="line"/>
    </contour>
    <contour>
      <point x="160" y="543" type="line"/>
      <point x="191" y="547"/>
      <point x="217" y="549"/>
      <point x="248" y="549" type="curve" smooth="yes"/>
      <point x="412" y="549"/>
      <point x="454" y="468"/>
      <point x="454" y="306" type="curve" smooth="yes"/>
      <point x="454" y="224"/>
      <point x="440" y="146"/>
      <point x="419" y="100" type="curve"/>
      <point x="363" y="84"/>
      <point x="300" y="78"/>
      <point x="219" y="78" type="curve" smooth="yes"/>
      <point x="160" y="78" type="line"/>
    </contour>
    <contour>
      <point x="324" y="696" type="line"/>
      <point x="423" y="829" type="line"/>
      <point x="370" y="840" type="line"/>
      <point x="289" y="765" type="line"/>
      <point x="284" y="765" type="line"/>
      <point x="200" y="840" type="line"/>
      <point x="149" y="829" type="line"/>
      <point x="249" y="696" type="line"/>
    </contour>
  </outline>
</glyph>
<glyph name="dcaron" format="1">
  <advance width="643"/>
  <unicode hex="010F"/>
  <note>
	dcaron
  </note>
  <outline>
    <contour>
      <point x="300" y="-8"/>
      <point x="342" y="27"/>
      <point x="371" y="64" type="curve"/>
      <point x="379" y="64" type="line"/>
      <point x="383" y="0" type="line"/>
      <point x="456" y="0" type="line"/>
      <point x="456" y="671" type="line"/>
      <point x="374" y="671" type="line"/>
      <point x="374" y="479" type="line"/>
      <point x="377" y="414" type="line"/>
      <point x="371" y="414" type="line"/>
      <point x="335" y="452"/>
      <point x="281" y="478"/>
      <point x="223" y="478" type="curve" smooth="yes"/>
      <point x="91" y="478"/>
      <point x="50" y="356"/>
      <point x="50" y="235" type="curve" smooth="yes"/>
      <point x="50" y="84"/>
      <point x="96" y="-8"/>
      <point x="230" y="-8" type="curve" smooth="yes"/>
    </contour>
    <contour>
      <point x="160" y="62"/>
      <point x="136" y="114"/>
      <point x="136" y="232" type="curve" smooth="yes"/>
      <point x="136" y="345"/>
      <point x="166" y="408"/>
      <point x="248" y="408" type="curve" smooth="yes"/>
      <point x="294" y="408"/>
      <point x="337" y="392"/>
      <point x="374" y="351" type="curve"/>
      <point x="374" y="139" type="line"/>
      <point x="356" y="103"/>
      <point x="316" y="62"/>
      <point x="254" y="62" type="curve" smooth="yes"/>
    </contour>
    <contour>
      <point x="614" y="517"/>
      <point x="633" y="563"/>
      <point x="633" y="604" type="curve" smooth="yes"/>
      <point x="633" y="652"/>
      <point x="613" y="676"/>
      <point x="567" y="676" type="curve" smooth="yes"/>
      <point x="551" y="676"/>
      <point x="533" y="673"/>
      <point x="517" y="667" type="curve"/>
      <point x="517" y="611" type="line"/>
      <point x="570" y="611" type="line"/>
      <point x="570" y="571"/>
      <point x="557" y="533"/>
      <point x="536" y="494" type="curve"/>
      <point x="585" y="483" type="line"/>
    </contour>
  </outline>
</glyph>
<glyph name="dcroat" format="1">
  <advance width="559"/>
  <unicode hex="0111"/>
  <note>
	dcroat
  </note>
  <outline>
    <contour>
      <point x="300" y="-8"/>
      <point x="342" y="27"/>
      <point x="371" y="64" type="curve"/>
      <point x="379" y="64" type="line"/>
      <point x="383" y="0" type="line"/>
      <point x="456" y="0" type="line"/>
      <point x="456" y="537" type="line"/>
      <point x="514" y="537" type="line"/>
      <point x="514" y="597" type="line"/>
      <point x="456" y="597" type="line"/>
      <point x="456" y="671" type="line"/>
      <point x="374" y="671" type="line"/>
      <point x="374" y="597" type="line"/>
      <point x="235" y="597" type="line"/>
      <point x="235" y="537" type="line"/>
      <point x="374" y="537" type="line"/>
      <point x="374" y="479" type="line"/>
      <point x="377" y="414" type="line"/>
      <point x="371" y="414" type="line"/>
      <point x="335" y="452"/>
      <point x="281" y="478"/>
      <point x="223" y="478" type="curve" smooth="yes"/>
      <point x="91" y="478"/>
      <point x="50" y="356"/>
      <point x="50" y="235" type="curve" smooth="yes"/>
      <point x="50" y="84"/>
      <point x="96" y="-8"/>
      <point x="230" y="-8" type="curve" smooth="yes"/>
    </contour>
    <contour>
      <point x="160" y="62"/>
      <point x="136" y="114"/>
      <point x="136" y="232" type="curve" smooth="yes"/>
      <point x="136" y="345"/>
      <point x="166" y="408"/>
      <point x="248" y="408" type="curve" smooth="yes"/>
      <point x="294" y="408"/>
      <point x="337" y="392"/>
      <point x="374" y="351" type="curve"/>
      <point x="374" y="139" type="line"/>
      <point x="356" y="103"/>
      <point x="316" y="62"/>
      <point x="254" y="62" type="curve" smooth="yes"/>
    </contour>
  </outline>
</glyph>
<glyph name="Gcircumflex" format="1">
  <advance width="598"/>
  <unicode hex="011C"/>
  <note>
	Gcircumflex
  </note>
  <outline>
    <contour>
      <point x="448" y="-8"/>
      <point x="540" y="50"/>
      <point x="540" y="134" type="curve" smooth="yes"/>
      <point x="540" y="298" type="line"/>
      <point x="499" y="332" type="line"/>
      <point x="312" y="332" type="line"/>
      <point x="312" y="257" type="line"/>
      <point x="456" y="257" type="line"/>
      <point x="456" y="82" type="line"/>
      <point x="424" y="74"/>
      <point x="387" y="70"/>
      <point x="337" y="70" type="curve" smooth="yes"/>
      <point x="204" y="70"/>
      <point x="139" y="137"/>
      <point x="139" y="295" type="curve" smooth="yes"/>
      <point x="139" y="385"/>
      <point x="164" y="474"/>
      <point x="199" y="536" type="curve"/>
      <point x="241" y="545"/>
      <point x="292" y="548"/>
      <point x="330" y="548" type="curve" smooth="yes"/>
      <point x="375" y="548"/>
      <point x="425" y="544"/>
      <point x="447" y="539" type="curve"/>
      <point x="457" y="460" type="line"/>
      <point x="516" y="460" type="line"/>
      <point x="524" y="479"/>
      <point x="529" y="503"/>
      <point x="529" y="529" type="curve" smooth="yes"/>
      <point x="529" y="585" type="line"/>
      <point x="496" y="607"/>
      <point x="414" y="626"/>
      <point x="331" y="626" type="curve" smooth="yes"/>
      <point x="140" y="626"/>
      <point x="54" y="495"/>
      <point x="54" y="289" type="curve" smooth="yes"/>
      <point x="54" y="95"/>
      <point x="151" y="-8"/>
      <point x="324" y="-8" type="curve" smooth="yes"/>
    </contour>
    <contour>
      <point x="310" y="759" type="line"/>
      <point x="315" y="759" type="line"/>
      <point x="396" y="684" type="line"/>
      <point x="449" y="695" type="line"/>
      <point x="350" y="828" type="line"/>
      <point x="275" y="828" type="line"/>
      <point x="175" y="695" type="line"/>
      <point x="226" y="684" type="line"/>
    </contour>
  </outline>
</glyph>
<glyph name="Hcircumflex" format="1">
  <advance width="600"/>
  <unicode hex="0124"/>
  <note>
	Hcircumflex
  </note>
  <outline>
    <contour>
      <point x="160" y="0" type="line"/>
      <point x="160" y="260" type="line"/>
      <point x="440" y="260" type="line"/>
      <point x="440" y="0" type="line"/>
      <point x="525" y="0" type="line"/>
      <point x="525" y="616" type="line"/>
      <point x="440" y="616" type="line"/>
      <point x="440" y="338" type="line"/>
      <point x="160" y="338" type="line"/>
      <point x="160" y="616" type="line"/>
      <point x="75" y="616" type="line"/>
      <point x="75" y="0" type="line"/>
    </contour>
    <contour>
      <point x="298" y="759" type="line"/>
      <point x="303" y="759" type="line"/>
      <point x="384" y="684" type="line"/>
      <point x="437" y="695" type="line"/>
      <point x="338" y="828" type="line"/>
      <point x="263" y="828" type="line"/>
      <point x="163" y="695" type="line"/>
      <point x="214" y="684" type="line"/>
    </contour>
  </outline>
</glyph>
<glyph name="Imacron" format="1">
  <advance width="242"/>
  <unicode hex="012A"/>
  <note>
	Imacron
  </note>
  <outline>
    <contour>
      <point x="163" y="0" type="line"/>
      <point x="163" y="616" type="line"/>
      <point x="78" y="616" type="line"/>
      <point x="78" y="0" type="line"/>
    </contour>
    <contour>
      <point x="274" y="696" type="line"/>
      <point x="274" y="766" type="line"/>
      <point x="-32" y="766" type="line"/>
      <point x="-32" y="696" type="line"/>
    </contour>
  </outline>
</glyph>
<glyph name="ibreve" format="1">
  <advance width="232"/>
  <unicode hex="012D"/>
  <note>
	ibreve
  </note>
  <outline>
    <contour>
      <point x="156" y="0" type="line"/>
      <point x="156" y="469" type="line"/>
      <point x="76" y="469" type="line"/>
      <point x="76" y="0" type="line"/>
    </contour>
    <contour>
      <point x="201" y="547"/>
      <point x="243" y="591"/>
      <point x="251" y="660" type="curve"/>
      <point x="174" y="672" type="line"/>
      <point x="171" y="633"/>
      <point x="162" y="611"/>
      <point x="116" y="611" type="curve" smooth="yes"/>
      <point x="70" y="611"/>
      <point x="61" y="633"/>
      <point x="58" y="672" type="curve"/>
      <point x="-19" y="660" type="line"/>
      <point x="-11" y="591"/>
      <point x="31" y="547"/>
      <point x="116" y="547" type="curve" smooth="yes"/>
    </contour>
  </outline>
</glyph>
<glyph name="iogonek" format="1">
  <advance width="232"/>
  <unicode hex="012F"/>
  <note>
	iogonek
  </note>
  <outline>
    <contour>
      <point x="156" y="0" type="line"/>
      <point x="156" y="468" type="line"/>
      <point x="76" y="468" type="line"/>
      <point x="76" y="0" type="line"/>
    </contour>
    <contour>
      <point x="147" y="-167"/>
      <point x="167" y="-163"/>
      <point x="184" y="-156" type="curve"/>
      <point x="170" y="-102" type="line"/>
      <point x="156" y="-106"/>
      <point x="143" y="-107"/>
      <point x="129" y="-107" type="curve" smooth="yes"/>
      <point x="115" y="-107"/>
      <point x="101" y="-106"/>
      <point x="91" y="-103" type="curve"/>
      <point x="89" y="-97"/>
      <point x="88" y="-89"/>
      <point x="88" y="-81" type="curve" smooth="yes"/>
      <point x="88" y="-44"/>
      <point x="101" y="-26"/>
      <point x="156" y="0" type="curve"/>
      <point x="105" y="12" type="line"/>
      <point x="60" y="-1"/>
      <point x="15" y="-32"/>
      <point x="15" y="-87" type="curve" smooth="yes"/>
      <point x="15" y="-140"/>
      <point x="57" y="-167"/>
      <point x="119" y="-167" type="curve" smooth="yes"/>
    </contour>
    <contour>
      <point x="159" y="554" type="line"/>
      <point x="159" y="654" type="line"/>
      <point x="73" y="654" type="line"/>
      <point x="73" y="554" type="line"/>
    </contour>
  </outline>
</glyph>
<glyph name="Idotaccent" format="1">
  <advance width="242"/>
  <unicode hex="0130"/>
  <note>
	Idotaccent
  </note>
  <outline>
    <contour>
      <point x="163" y="0" type="line"/>
      <point x="163" y="616" type="line"/>
      <point x="78" y="616" type="line"/>
      <point x="78" y="0" type="line"/>
    </contour>
    <contour>
      <point x="159" y="670"/>
      <point x="181" y="691"/>
      <point x="181" y="726" type="curve" smooth="yes"/>
      <point x="181" y="763"/>
      <point x="159" y="784"/>
      <point x="121" y="784" type="curve" smooth="yes"/>
      <point x="83" y="784"/>
      <point x="61" y="763"/>
      <point x="61" y="726" type="curve" smooth="yes"/>
      <point x="61" y="691"/>
      <point x="83" y="670"/>
      <point x="121" y="670" type="curve" smooth="yes"/>
    </contour>
  </outline>
</glyph>
<glyph name="IJ" format="1">
  <advance width="673"/>
  <unicode hex="0132"/>
  <note>
	IJ
  </note>
  <outline>
    <contour>
      <point x="526" y="-8"/>
      <point x="600" y="42"/>
      <point x="600" y="137" type="curve" smooth="yes"/>
      <point x="600" y="616" type="line"/>
      <point x="516" y="616" type="line"/>
      <point x="516" y="141" type="line" smooth="yes"/>
      <point x="516" y="119"/>
      <point x="514" y="101"/>
      <point x="509" y="86" type="curve"/>
      <point x="491" y="76"/>
      <point x="462" y="68"/>
      <point x="422" y="68" type="curve" smooth="yes"/>
      <point x="375" y="68"/>
      <point x="331" y="79"/>
      <point x="299" y="91" type="curve"/>
      <point x="280" y="18" type="line"/>
      <point x="317" y="2"/>
      <point x="372" y="-8"/>
      <point x="421" y="-8" type="curve" smooth="yes"/>
    </contour>
    <contour>
      <point x="163" y="0" type="line"/>
      <point x="163" y="616" type="line"/>
      <point x="78" y="616" type="line"/>
      <point x="78" y="0" type="line"/>
    </contour>
  </outline>
</glyph>
<glyph name="Jcircumflex" format="1">
  <advance width="423"/>
  <unicode hex="0134"/>
  <note>
	Jcircumflex
  </note>
  <outline>
    <contour>
      <point x="276" y="-8"/>
      <point x="350" y="42"/>
      <point x="350" y="137" type="curve" smooth="yes"/>
      <point x="350" y="616" type="line"/>
      <point x="266" y="616" type="line"/>
      <point x="266" y="141" type="line" smooth="yes"/>
      <point x="266" y="119"/>
      <point x="264" y="101"/>
      <point x="259" y="86" type="curve"/>
      <point x="241" y="76"/>
      <point x="212" y="68"/>
      <point x="172" y="68" type="curve" smooth="yes"/>
      <point x="125" y="68"/>
      <point x="81" y="79"/>
      <point x="49" y="91" type="curve"/>
      <point x="30" y="18" type="line"/>
      <point x="67" y="2"/>
      <point x="122" y="-8"/>
      <point x="171" y="-8" type="curve" smooth="yes"/>
    </contour>
    <contour>
      <point x="289" y="759" type="line"/>
      <point x="294" y="759" type="line"/>
      <point x="375" y="684" type="line"/>
      <point x="428" y="695" type="line"/>
      <point x="329" y="828" type="line"/>
      <point x="254" y="828" type="line"/>
      <point x="154" y="695" type="line"/>
      <point x="205" y="684" type="line"/>
    </contour>
  </outline>
</glyph>
<glyph name="jcircumflex" format="1">
  <advance width="284"/>
  <unicode hex="0135"/>
  <note>
	jcircumflex
  </note>
  <outline>
    <contour>
      <point x="146" y="-198"/>
      <point x="201" y="-151"/>
      <point x="201" y="-65" type="curve" smooth="yes"/>
      <point x="201" y="470" type="line"/>
      <point x="121" y="470" type="line"/>
      <point x="121" y="-61" type="line" smooth="yes"/>
      <point x="121" y="-83"/>
      <point x="120" y="-101"/>
      <point x="114" y="-118" type="curve"/>
      <point x="98" y="-123"/>
      <point x="85" y="-125"/>
      <point x="65" y="-125" type="curve" smooth="yes"/>
      <point x="35" y="-125"/>
      <point x="17" y="-122"/>
      <point x="-15" y="-112" type="curve"/>
      <point x="-34" y="-182" type="line"/>
      <point x="-3" y="-193"/>
      <point x="34" y="-198"/>
      <point x="64" y="-198" type="curve" smooth="yes"/>
    </contour>
    <contour>
      <point x="150" y="616" type="line"/>
      <point x="155" y="616" type="line"/>
      <point x="236" y="541" type="line"/>
      <point x="289" y="552" type="line"/>
      <point x="190" y="685" type="line"/>
      <point x="115" y="685" type="line"/>
      <point x="15" y="552" type="line"/>
      <point x="66" y="541" type="line"/>
    </contour>
  </outline>
</glyph>
<glyph name="kcommaaccent" format="1">
  <advance width="507"/>
  <unicode hex="0137"/>
  <note>
	kcommaaccent
  </note>
  <outline>
    <contour>
      <point x="438" y="-8"/>
      <point x="454" y="-5"/>
      <point x="472" y="0" type="curve"/>
      <point x="472" y="41" type="line"/>
      <point x="433" y="50" type="line"/>
      <point x="383" y="164" type="line" smooth="yes"/>
      <point x="364" y="207"/>
      <point x="345" y="228"/>
      <point x="296" y="242" type="curve"/>
      <point x="296" y="248" type="line"/>
      <point x="345" y="264"/>
      <point x="367" y="292"/>
      <point x="383" y="330" type="curve" smooth="yes"/>
      <point x="434" y="449" type="line"/>
      <point x="355" y="478" type="line"/>
      <point x="302" y="353" type="line" smooth="yes"/>
      <point x="285" y="315"/>
      <point x="261" y="277"/>
      <point x="191" y="277" type="curve" smooth="yes"/>
      <point x="150" y="277" type="line"/>
      <point x="150" y="671" type="line"/>
      <point x="70" y="671" type="line"/>
      <point x="70" y="0" type="line"/>
      <point x="150" y="0" type="line"/>
      <point x="150" y="214" type="line"/>
      <point x="196" y="214" type="line" smooth="yes"/>
      <point x="266" y="214"/>
      <point x="290" y="179"/>
      <point x="312" y="129" type="curve" smooth="yes"/>
      <point x="355" y="29" type="line" smooth="yes"/>
      <point x="367" y="2"/>
      <point x="385" y="-8"/>
      <point x="417" y="-8" type="curve" smooth="yes"/>
    </contour>
    <contour>
      <point x="300" y="-229"/>
      <point x="319" y="-183"/>
      <point x="319" y="-142" type="curve" smooth="yes"/>
      <point x="319" y="-94"/>
      <point x="299" y="-70"/>
      <point x="253" y="-70" type="curve" smooth="yes"/>
      <point x="237" y="-70"/>
      <point x="219" y="-73"/>
      <point x="203" y="-79" type="curve"/>
      <point x="203" y="-135" type="line"/>
      <point x="256" y="-135" type="line"/>
      <point x="256" y="-175"/>
      <point x="243" y="-213"/>
      <point x="222" y="-252" type="curve"/>
      <point x="271" y="-263" type="line"/>
    </contour>
  </outline>
</glyph>
<glyph name="lcommaaccent" format="1">
  <advance width="283"/>
  <unicode hex="013C"/>
  <note>
	lcommaaccent
  </note>
  <outline>
    <contour>
      <point x="206" y="-6"/>
      <point x="246" y="17"/>
      <point x="265" y="45" type="curve"/>
      <point x="230" y="90" type="line"/>
      <point x="173" y="61" type="line"/>
      <point x="160" y="61" type="line"/>
      <point x="156" y="71"/>
      <point x="156" y="79"/>
      <point x="156" y="95" type="curve" smooth="yes"/>
      <point x="156" y="671" type="line"/>
      <point x="76" y="671" type="line"/>
      <point x="76" y="85" type="line" smooth="yes"/>
      <point x="76" y="52"/>
      <point x="138" y="-1"/>
      <point x="166" y="-8" type="curve"/>
    </contour>
    <contour>
      <point x="207" y="-229"/>
      <point x="226" y="-183"/>
      <point x="226" y="-142" type="curve" smooth="yes"/>
      <point x="226" y="-94"/>
      <point x="206" y="-70"/>
      <point x="160" y="-70" type="curve" smooth="yes"/>
      <point x="144" y="-70"/>
      <point x="126" y="-73"/>
      <point x="110" y="-79" type="curve"/>
      <point x="110" y="-135" type="line"/>
      <point x="163" y="-135" type="line"/>
      <point x="163" y="-175"/>
      <point x="150" y="-213"/>
      <point x="129" y="-252" type="curve"/>
      <point x="178" y="-263" type="line"/>
    </contour>
  </outline>
</glyph>
<glyph name="Lcaron" format="1">
  <advance width="457"/>
  <unicode hex="013D"/>
  <note>
	Lcaron
  </note>
  <outline>
    <contour>
      <point x="433" y="0" type="line"/>
      <point x="433" y="78" type="line"/>
      <point x="160" y="78" type="line"/>
      <point x="160" y="616" type="line"/>
      <point x="75" y="616" type="line"/>
      <point x="75" y="0" type="line"/>
    </contour>
    <contour>
      <point x="351" y="462"/>
      <point x="370" y="508"/>
      <point x="370" y="549" type="curve" smooth="yes"/>
      <point x="370" y="597"/>
      <point x="350" y="621"/>
      <point x="304" y="621" type="curve" smooth="yes"/>
      <point x="288" y="621"/>
      <point x="270" y="618"/>
      <point x="254" y="612" type="curve"/>
      <point x="254" y="556" type="line"/>
      <point x="307" y="556" type="line"/>
      <point x="307" y="516"/>
      <point x="294" y="478"/>
      <point x="273" y="439" type="curve"/>
      <point x="322" y="428" type="line"/>
    </contour>
  </outline>
</glyph>
<glyph name="lcaron" format="1">
  <advance width="358"/>
  <unicode hex="013E"/>
  <note>
	lcaron
  </note>
  <outline>
    <contour>
      <point x="206" y="-6"/>
      <point x="246" y="17"/>
      <point x="265" y="45" type="curve"/>
      <point x="230" y="90" type="line"/>
      <point x="173" y="61" type="line"/>
      <point x="160" y="61" type="line"/>
      <point x="156" y="71"/>
      <point x="156" y="79"/>
      <point x="156" y="95" type="curve" smooth="yes"/>
      <point x="156" y="671" type="line"/>
      <point x="76" y="671" type="line"/>
      <point x="76" y="85" type="line" smooth="yes"/>
      <point x="76" y="52"/>
      <point x="138" y="-1"/>
      <point x="166" y="-8" type="curve"/>
    </contour>
    <contour>
      <point x="329" y="492"/>
      <point x="348" y="538"/>
      <point x="348" y="579" type="curve" smooth="yes"/>
      <point x="348" y="627"/>
      <point x="328" y="651"/>
      <point x="282" y="651" type="curve" smooth="yes"/>
      <point x="266" y="651"/>
      <point x="248" y="648"/>
      <point x="232" y="642" type="curve"/>
      <point x="232" y="586" type="line"/>
      <point x="285" y="586" type="line"/>
      <point x="285" y="546"/>
      <point x="272" y="508"/>
      <point x="251" y="469" type="curve"/>
      <point x="300" y="458" type="line"/>
    </contour>
  </outline>
</glyph>
<glyph name="ldot" format="1">
  <advance width="383"/>
  <unicode hex="0140"/>
  <note>
	ldot
  </note>
  <outline>
    <contour>
      <point x="206" y="-6"/>
      <point x="246" y="17"/>
      <point x="265" y="45" type="curve"/>
      <point x="230" y="90" type="line"/>
      <point x="173" y="61" type="line"/>
      <point x="160" y="61" type="line"/>
      <point x="156" y="71"/>
      <point x="156" y="79"/>
      <point x="156" y="95" type="curve" smooth="yes"/>
      <point x="156" y="671" type="line"/>
      <point x="76" y="671" type="line"/>
      <point x="76" y="85" type="line" smooth="yes"/>
      <point x="76" y="52"/>
      <point x="138" y="-1"/>
      <point x="166" y="-8" type="curve"/>
    </contour>
    <contour>
      <point x="332" y="218"/>
      <point x="358" y="243"/>
      <point x="358" y="276" type="curve" smooth="yes"/>
      <point x="358" y="308"/>
      <point x="331" y="334"/>
      <point x="299" y="334" type="curve" smooth="yes"/>
      <point x="267" y="334"/>
      <point x="240" y="308"/>
      <point x="240" y="276" type="curve" smooth="yes"/>
      <point x="240" y="243"/>
      <point x="266" y="218"/>
      <point x="299" y="218" type="curve" smooth="yes"/>
    </contour>
  </outline>
</glyph>
<glyph name="Ncommaaccent" format="1">
  <advance width="625"/>
  <unicode hex="0145"/>
  <note>
	Ncommaaccent
  </note>
  <outline>
    <contour>
      <point x="161" y="0" type="line"/>
      <point x="161" y="328" type="line"/>
      <point x="151" y="485" type="line"/>
      <point x="159" y="487" type="line"/>
      <point x="454" y="0" type="line"/>
      <point x="550" y="0" type="line"/>
      <point x="550" y="616" type="line"/>
      <point x="464" y="616" type="line"/>
      <point x="464" y="288" type="line"/>
      <point x="474" y="131" type="line"/>
      <point x="466" y="129" type="line"/>
      <point x="171" y="616" type="line"/>
      <point x="75" y="616" type="line"/>
      <point x="75" y="0" type="line"/>
    </contour>
    <contour>
      <point x="370" y="-229"/>
      <point x="389" y="-183"/>
      <point x="389" y="-142" type="curve" smooth="yes"/>
      <point x="389" y="-94"/>
      <point x="369" y="-70"/>
      <point x="323" y="-70" type="curve" smooth="yes"/>
      <point x="307" y="-70"/>
      <point x="289" y="-73"/>
      <point x="273" y="-79" type="curve"/>
      <point x="273" y="-135" type="line"/>
      <point x="326" y="-135" type="line"/>
      <point x="326" y="-175"/>
      <point x="313" y="-213"/>
      <point x="292" y="-252" type="curve"/>
      <point x="341" y="-263" type="line"/>
    </contour>
  </outline>
</glyph>
<glyph name="Ncaron" format="1">
  <advance width="625"/>
  <unicode hex="0147"/>
  <note>
	Ncaron
  </note>
  <outline>
    <contour>
      <point x="161" y="0" type="line"/>
      <point x="161" y="328" type="line"/>
      <point x="151" y="485" type="line"/>
      <point x="159" y="487" type="line"/>
      <point x="454" y="0" type="line"/>
      <point x="550" y="0" type="line"/>
      <point x="550" y="616" type="line"/>
      <point x="464" y="616" type="line"/>
      <point x="464" y="288" type="line"/>
      <point x="474" y="131" type="line"/>
      <point x="466" y="129" type="line"/>
      <point x="171" y="616" type="line"/>
      <point x="75" y="616" type="line"/>
      <point x="75" y="0" type="line"/>
    </contour>
    <contour>
      <point x="359" y="696" type="line"/>
      <point x="458" y="829" type="line"/>
      <point x="405" y="840" type="line"/>
      <point x="324" y="765" type="line"/>
      <point x="319" y="765" type="line"/>
      <point x="235" y="840" type="line"/>
      <point x="184" y="829" type="line"/>
      <point x="284" y="696" type="line"/>
    </contour>
  </outline>
</glyph>
<glyph name="napostrophe" format="1">
  <advance width="633"/>
  <unicode hex="0149"/>
  <note>
	napostrophe
  </note>
  <outline>
    <contour>
      <point x="263" y="0" type="line"/>
      <point x="263" y="342" type="line"/>
      <point x="298" y="383"/>
      <point x="342" y="406"/>
      <point x="414" y="406" type="curve" smooth="yes"/>
      <point x="432" y="406"/>
      <point x="457" y="404"/>
      <point x="481" y="397" type="curve"/>
      <point x="481" y="0" type="line"/>
      <point x="563" y="0" type="line"/>
      <point x="563" y="344" type="line" smooth="yes"/>
      <point x="563" y="444"/>
      <point x="519" y="478"/>
      <point x="428" y="478" type="curve" smooth="yes"/>
      <point x="355" y="478"/>
      <point x="305" y="445"/>
      <point x="266" y="398" type="curve"/>
      <point x="258" y="398" type="line"/>
      <point x="252" y="470" type="line"/>
      <point x="181" y="470" type="line"/>
      <point x="181" y="0" type="line"/>
    </contour>
    <contour>
      <point x="107" y="392"/>
      <point x="126" y="438"/>
      <point x="126" y="479" type="curve" smooth="yes"/>
      <point x="126" y="527"/>
      <point x="106" y="551"/>
      <point x="60" y="551" type="curve" smooth="yes"/>
      <point x="44" y="551"/>
      <point x="26" y="548"/>
      <point x="10" y="542" type="curve"/>
      <point x="10" y="486" type="line"/>
      <point x="63" y="486" type="line"/>
      <point x="63" y="446"/>
      <point x="50" y="408"/>
      <point x="29" y="369" type="curve"/>
      <point x="78" y="358" type="line"/>
    </contour>
  </outline>
</glyph>
<glyph name="Eng" format="1">
  <advance width="625"/>
  <unicode hex="014A"/>
  <note>
	Eng
  </note>
  <outline>
    <contour>
      <point x="505" y="-192"/>
      <point x="550" y="-136"/>
      <point x="550" y="-26" type="curve" smooth="yes"/>
      <point x="550" y="616" type="line"/>
      <point x="464" y="616" type="line"/>
      <point x="464" y="288" type="line"/>
      <point x="474" y="131" type="line"/>
      <point x="466" y="129" type="line"/>
      <point x="171" y="616" type="line"/>
      <point x="75" y="616" type="line"/>
      <point x="75" y="0" type="line"/>
      <point x="161" y="0" type="line"/>
      <point x="161" y="328" type="line"/>
      <point x="151" y="485" type="line"/>
      <point x="159" y="487" type="line"/>
      <point x="458" y="0" type="line"/>
      <point x="458" y="-34" type="line" smooth="yes"/>
      <point x="458" y="-64"/>
      <point x="456" y="-91"/>
      <point x="452" y="-112" type="curve"/>
      <point x="422" y="-130"/>
      <point x="384" y="-142"/>
      <point x="339" y="-154" type="curve"/>
      <point x="377" y="-237" type="line"/>
    </contour>
  </outline>
</glyph>
<glyph name="eng" format="1">
  <advance width="526"/>
  <unicode hex="014B"/>
  <note>
	eng
  </note>
  <outline>
    <contour>
      <point x="409" y="-190"/>
      <point x="456" y="-132"/>
      <point x="456" y="-30" type="curve" smooth="yes"/>
      <point x="456" y="344" type="line" smooth="yes"/>
      <point x="456" y="444"/>
      <point x="412" y="478"/>
      <point x="321" y="478" type="curve" smooth="yes"/>
      <point x="248" y="478"/>
      <point x="198" y="445"/>
      <point x="159" y="398" type="curve"/>
      <point x="151" y="398" type="line"/>
      <point x="145" y="470" type="line"/>
      <point x="74" y="470" type="line"/>
      <point x="74" y="0" type="line"/>
      <point x="156" y="0" type="line"/>
      <point x="156" y="342" type="line"/>
      <point x="191" y="383"/>
      <point x="235" y="406"/>
      <point x="307" y="406" type="curve" smooth="yes"/>
      <point x="325" y="406"/>
      <point x="350" y="404"/>
      <point x="374" y="397" type="curve"/>
      <point x="374" y="-14" type="line" smooth="yes"/>
      <point x="374" y="-47"/>
      <point x="373" y="-86"/>
      <point x="365" y="-112" type="curve"/>
      <point x="336" y="-132"/>
      <point x="300" y="-145"/>
      <point x="255" y="-157" type="curve"/>
      <point x="293" y="-236" type="line"/>
    </contour>
  </outline>
</glyph>
<glyph name="Omacron" format="1">
  <advance width="621"/>
  <unicode hex="014C"/>
  <note>
	Omacron
  </note>
  <outline>
    <contour>
      <point x="498" y="-8"/>
      <point x="569" y="101"/>
      <point x="569" y="321" type="curve" smooth="yes"/>
      <point x="569" y="522"/>
      <point x="490" y="626"/>
      <point x="318" y="626" type="curve" smooth="yes"/>
      <point x="123" y="626"/>
      <point x="52" y="516"/>
      <point x="52" y="296" type="curve" smooth="yes"/>
      <point x="52" y="95"/>
      <point x="139" y="-8"/>
      <point x="303" y="-8" type="curve" smooth="yes"/>
    </contour>
    <contour>
      <point x="184" y="70"/>
      <point x="137" y="146"/>
      <point x="137" y="315" type="curve" smooth="yes"/>
      <point x="137" y="403"/>
      <point x="155" y="476"/>
      <point x="180" y="530" type="curve"/>
      <point x="205" y="540"/>
      <point x="257" y="548"/>
      <point x="304" y="548" type="curve" smooth="yes"/>
      <point x="438" y="548"/>
      <point x="484" y="471"/>
      <point x="484" y="302" type="curve" smooth="yes"/>
      <point x="484" y="214"/>
      <point x="459" y="139"/>
      <point x="436" y="88" type="curve"/>
      <point x="411" y="78"/>
      <point x="364" y="70"/>
      <point x="317" y="70" type="curve" smooth="yes"/>
    </contour>
    <contour>
      <point x="463" y="696" type="line"/>
      <point x="463" y="766" type="line"/>
      <point x="157" y="766" type="line"/>
      <point x="157" y="696" type="line"/>
    </contour>
  </outline>
</glyph>
<glyph name="Obreve" format="1">
  <advance width="621"/>
  <unicode hex="014E"/>
  <note>
	Obreve
  </note>
  <outline>
    <contour>
      <point x="498" y="-8"/>
      <point x="569" y="101"/>
      <point x="569" y="321" type="curve" smooth="yes"/>
      <point x="569" y="522"/>
      <point x="490" y="626"/>
      <point x="318" y="626" type="curve" smooth="yes"/>
      <point x="123" y="626"/>
      <point x="52" y="516"/>
      <point x="52" y="296" type="curve" smooth="yes"/>
      <point x="52" y="95"/>
      <point x="139" y="-8"/>
      <point x="303" y="-8" type="curve" smooth="yes"/>
    </contour>
    <contour>
      <point x="184" y="70"/>
      <point x="137" y="146"/>
      <point x="137" y="315" type="curve" smooth="yes"/>
      <point x="137" y="403"/>
      <point x="155" y="476"/>
      <point x="180" y="530" type="curve"/>
      <point x="205" y="540"/>
      <point x="257" y="548"/>
      <point x="304" y="548" type="curve" smooth="yes"/>
      <point x="438" y="548"/>
      <point x="484" y="471"/>
      <point x="484" y="302" type="curve" smooth="yes"/>
      <point x="484" y="214"/>
      <point x="459" y="139"/>
      <point x="436" y="88" type="curve"/>
      <point x="411" y="78"/>
      <point x="364" y="70"/>
      <point x="317" y="70" type="curve" smooth="yes"/>
    </contour>
    <contour>
      <point x="395" y="691"/>
      <point x="437" y="735"/>
      <point x="445" y="804" type="curve"/>
      <point x="368" y="816" type="line"/>
      <point x="365" y="777"/>
      <point x="356" y="755"/>
      <point x="310" y="755" type="curve" smooth="yes"/>
      <point x="264" y="755"/>
      <point x="255" y="777"/>
      <point x="252" y="816" type="curve"/>
      <point x="175" y="804" type="line"/>
      <point x="183" y="735"/>
      <point x="225" y="691"/>
      <point x="310" y="691" type="curve" smooth="yes"/>
    </contour>
  </outline>
</glyph>
<glyph name="obreve" format="1">
  <advance width="517"/>
  <unicode hex="014F"/>
  <note>
	obreve
  </note>
  <outline>
    <contour>
      <point x="406" y="-8"/>
      <point x="467" y="78"/>
      <point x="467" y="231" type="curve" smooth="yes"/>
      <point x="467" y="375"/>
      <point x="418" y="480"/>
      <point x="270" y="480" type="curve" smooth="yes"/>
      <point x="111" y="480"/>
      <point x="50" y="384"/>
      <point x="50" y="231" type="curve" smooth="yes"/>
      <point x="50" y="87"/>
      <point x="99" y="-8"/>
      <point x="247" y="-8" type="curve" smooth="yes"/>
    </contour>
    <contour>
      <point x="150" y="62"/>
      <point x="131" y="116"/>
      <point x="131" y="245" type="curve" smooth="yes"/>
      <point x="131" y="312"/>
      <point x="139" y="361"/>
      <point x="153" y="391" type="curve"/>
      <point x="176" y="401"/>
      <point x="211" y="407"/>
      <point x="247" y="407" type="curve" smooth="yes"/>
      <point x="367" y="407"/>
      <point x="386" y="346"/>
      <point x="386" y="215" type="curve" smooth="yes"/>
      <point x="386" y="148"/>
      <point x="378" y="108"/>
      <point x="364" y="79" type="curve"/>
      <point x="341" y="69"/>
      <point x="307" y="62"/>
      <point x="270" y="62" type="curve" smooth="yes"/>
    </contour>
    <contour>
      <point x="343" y="547"/>
      <point x="385" y="591"/>
      <point x="393" y="660" type="curve"/>
      <point x="316" y="672" type="line"/>
      <point x="313" y="633"/>
      <point x="304" y="611"/>
      <point x="258" y="611" type="curve" smooth="yes"/>
      <point x="212" y="611"/>
      <point x="203" y="633"/>
      <point x="200" y="672" type="curve"/>
      <point x="123" y="660" type="line"/>
      <point x="131" y="591"/>
      <point x="173" y="547"/>
      <point x="258" y="547" type="curve" smooth="yes"/>
    </contour>
  </outline>
</glyph>
<glyph name="Ohungarumlaut" format="1">
  <advance width="621"/>
  <unicode hex="0150"/>
  <note>
	Ohungarumlaut
  </note>
  <outline>
    <contour>
      <point x="498" y="-8"/>
      <point x="569" y="101"/>
      <point x="569" y="321" type="curve" smooth="yes"/>
      <point x="569" y="522"/>
      <point x="490" y="626"/>
      <point x="318" y="626" type="curve" smooth="yes"/>
      <point x="123" y="626"/>
      <point x="52" y="516"/>
      <point x="52" y="296" type="curve" smooth="yes"/>
      <point x="52" y="95"/>
      <point x="139" y="-8"/>
      <point x="303" y="-8" type="curve" smooth="yes"/>
    </contour>
    <contour>
      <point x="184" y="70"/>
      <point x="137" y="146"/>
      <point x="137" y="315" type="curve" smooth="yes"/>
      <point x="137" y="403"/>
      <point x="155" y="476"/>
      <point x="180" y="530" type="curve"/>
      <point x="205" y="540"/>
      <point x="257" y="548"/>
      <point x="304" y="548" type="curve" smooth="yes"/>
      <point x="438" y="548"/>
      <point x="484" y="471"/>
      <point x="484" y="302" type="curve" smooth="yes"/>
      <point x="484" y="214"/>
      <point x="459" y="139"/>
      <point x="436" y="88" type="curve"/>
      <point x="411" y="78"/>
      <point x="364" y="70"/>
      <point x="317" y="70" type="curve" smooth="yes"/>
    </contour>
    <contour>
      <point x="266" y="719"/>
      <point x="285" y="765"/>
      <point x="285" y="806" type="curve" smooth="yes"/>
      <point x="285" y="854"/>
      <point x="265" y="878"/>
      <point x="219" y="878" type="curve" smooth="yes"/>
      <point x="203" y="878"/>
      <point x="187" y="875"/>
      <point x="171" y="869" type="curve"/>
      <point x="171" y="813" type="line"/>
      <point x="224" y="813" type="line"/>
      <point x="224" y="773"/>
      <point x="211" y="735"/>
      <point x="190" y="696" type="curve"/>
      <point x="237" y="685" type="line"/>
    </contour>
    <contour>
      <point x="431" y="719"/>
      <point x="450" y="765"/>
      <point x="450" y="806" type="curve" smooth="yes"/>
      <point x="450" y="854"/>
      <point x="432" y="878"/>
      <point x="386" y="878" type="curve" smooth="yes"/>
      <point x="370" y="878"/>
      <point x="352" y="875"/>
      <point x="336" y="869" type="curve"/>
      <point x="336" y="813" type="line"/>
      <point x="389" y="813" type="line"/>
      <point x="389" y="773"/>
      <point x="376" y="735"/>
      <point x="355" y="696" type="curve"/>
      <point x="402" y="685" type="line"/>
    </contour>
  </outline>
</glyph>
<glyph name="ohungarumlaut" format="1">
  <advance width="517"/>
  <unicode hex="0151"/>
  <note>
	ohungarumlaut
  </note>
  <outline>
    <contour>
      <point x="406" y="-8"/>
      <point x="467" y="78"/>
      <point x="467" y="231" type="curve" smooth="yes"/>
      <point x="467" y="375"/>
      <point x="418" y="480"/>
      <point x="270" y="480" type="curve" smooth="yes"/>
      <point x="111" y="480"/>
      <point x="50" y="384"/>
      <point x="50" y="231" type="curve" smooth="yes"/>
      <point x="50" y="87"/>
      <point x="99" y="-8"/>
      <point x="247" y="-8" type="curve" smooth="yes"/>
    </contour>
    <contour>
      <point x="150" y="62"/>
      <point x="131" y="116"/>
      <point x="131" y="245" type="curve" smooth="yes"/>
      <point x="131" y="312"/>
      <point x="139" y="361"/>
      <point x="153" y="391" type="curve"/>
      <point x="176" y="401"/>
      <point x="211" y="407"/>
      <point x="247" y="407" type="curve" smooth="yes"/>
      <point x="367" y="407"/>
      <point x="386" y="346"/>
      <point x="386" y="215" type="curve" smooth="yes"/>
      <point x="386" y="148"/>
      <point x="378" y="108"/>
      <point x="364" y="79" type="curve"/>
      <point x="341" y="69"/>
      <point x="307" y="62"/>
      <point x="270" y="62" type="curve" smooth="yes"/>
    </contour>
    <contour>
      <point x="214" y="576"/>
      <point x="233" y="622"/>
      <point x="233" y="663" type="curve" smooth="yes"/>
      <point x="233" y="711"/>
      <point x="213" y="735"/>
      <point x="167" y="735" type="curve" smooth="yes"/>
      <point x="151" y="735"/>
      <point x="135" y="732"/>
      <point x="119" y="726" type="curve"/>
      <point x="119" y="670" type="line"/>
      <point x="172" y="670" type="line"/>
      <point x="172" y="630"/>
      <point x="159" y="592"/>
      <point x="138" y="553" type="curve"/>
      <point x="185" y="542" type="line"/>
    </contour>
    <contour>
      <point x="379" y="576"/>
      <point x="398" y="622"/>
      <point x="398" y="663" type="curve" smooth="yes"/>
      <point x="398" y="711"/>
      <point x="380" y="735"/>
      <point x="334" y="735" type="curve" smooth="yes"/>
      <point x="318" y="735"/>
      <point x="300" y="732"/>
      <point x="284" y="726" type="curve"/>
      <point x="284" y="670" type="line"/>
      <point x="337" y="670" type="line"/>
      <point x="337" y="630"/>
      <point x="324" y="592"/>
      <point x="303" y="553" type="curve"/>
      <point x="350" y="542" type="line"/>
    </contour>
  </outline>
</glyph>
<glyph name="oe" format="1">
  <advance width="825"/>
  <unicode hex="0153"/>
  <note>
	oe
  </note>
  <outline>
    <contour>
      <point x="331" y="-9"/>
      <point x="388" y="15"/>
      <point x="422" y="61" type="curve"/>
      <point x="432" y="61" type="line"/>
      <point x="465" y="18"/>
      <point x="518" y="-6"/>
      <point x="597" y="-6" type="curve" smooth="yes"/>
      <point x="681" y="-6"/>
      <point x="730" y="20"/>
      <point x="772" y="46" type="curve"/>
      <point x="746" y="109" type="line"/>
      <point x="706" y="82"/>
      <point x="667" y="63"/>
      <point x="602" y="63" type="curve" smooth="yes"/>
      <point x="511" y="63"/>
      <point x="470" y="109"/>
      <point x="466" y="204" type="curve"/>
      <point x="715" y="200" type="line"/>
      <point x="775" y="259" type="line"/>
      <point x="785" y="388"/>
      <point x="733" y="478"/>
      <point x="601" y="478" type="curve" smooth="yes"/>
      <point x="526" y="478"/>
      <point x="470" y="450"/>
      <point x="434" y="401" type="curve"/>
      <point x="429" y="401" type="line"/>
      <point x="399" y="450"/>
      <point x="348" y="480"/>
      <point x="270" y="480" type="curve" smooth="yes"/>
      <point x="111" y="480"/>
      <point x="50" y="384"/>
      <point x="50" y="231" type="curve" smooth="yes"/>
      <point x="50" y="87"/>
      <point x="99" y="-9"/>
      <point x="247" y="-9" type="curve" smooth="yes"/>
    </contour>
    <contour>
      <point x="150" y="61"/>
      <point x="131" y="116"/>
      <point x="131" y="245" type="curve" smooth="yes"/>
      <point x="131" y="312"/>
      <point x="139" y="361"/>
      <point x="153" y="391" type="curve"/>
      <point x="176" y="401"/>
      <point x="211" y="407"/>
      <point x="247" y="407" type="curve" smooth="yes"/>
      <point x="367" y="407"/>
      <point x="386" y="346"/>
      <point x="386" y="215" type="curve" smooth="yes"/>
      <point x="386" y="148"/>
      <point x="378" y="107"/>
      <point x="364" y="78" type="curve"/>
      <point x="341" y="68"/>
      <point x="307" y="61"/>
      <point x="270" y="61" type="curve" smooth="yes"/>
    </contour>
    <contour>
      <point x="466" y="362"/>
      <point x="499" y="409"/>
      <point x="596" y="409" type="curve" smooth="yes"/>
      <point x="668" y="409"/>
      <point x="701" y="372"/>
      <point x="701" y="315" type="curve" smooth="yes"/>
      <point x="701" y="304"/>
      <point x="699" y="284"/>
      <point x="695" y="266" type="curve"/>
      <point x="466" y="262" type="line"/>
    </contour>
  </outline>
</glyph>
<glyph name="Rcommaaccent" format="1">
  <advance width="586"/>
  <unicode hex="0156"/>
  <note>
	Rcommaaccent
  </note>
  <outline>
    <contour>
      <point x="522" y="-8"/>
      <point x="538" y="-5"/>
      <point x="557" y="1" type="curve"/>
      <point x="557" y="49" type="line"/>
      <point x="507" y="58" type="line"/>
      <point x="439" y="205" type="line" smooth="yes"/>
      <point x="425" y="235"/>
      <point x="408" y="254"/>
      <point x="380" y="268" type="curve"/>
      <point x="380" y="277" type="line"/>
      <point x="446" y="309"/>
      <point x="479" y="364"/>
      <point x="479" y="443" type="curve" smooth="yes"/>
      <point x="479" y="572"/>
      <point x="400" y="626"/>
      <point x="248" y="626" type="curve" smooth="yes"/>
      <point x="189" y="626"/>
      <point x="127" y="615"/>
      <point x="75" y="600" type="curve"/>
      <point x="75" y="0" type="line"/>
      <point x="160" y="0" type="line"/>
      <point x="160" y="247" type="line"/>
      <point x="266" y="247" type="line" smooth="yes"/>
      <point x="327" y="244"/>
      <point x="341" y="217"/>
      <point x="362" y="170" type="curve" smooth="yes"/>
      <point x="420" y="35" type="line" smooth="yes"/>
      <point x="434" y="4"/>
      <point x="456" y="-8"/>
      <point x="491" y="-8" type="curve" smooth="yes"/>
    </contour>
    <contour>
      <point x="325" y="-229"/>
      <point x="344" y="-183"/>
      <point x="344" y="-142" type="curve" smooth="yes"/>
      <point x="344" y="-94"/>
      <point x="324" y="-70"/>
      <point x="278" y="-70" type="curve" smooth="yes"/>
      <point x="262" y="-70"/>
      <point x="244" y="-73"/>
      <point x="228" y="-79" type="curve"/>
      <point x="228" y="-135" type="line"/>
      <point x="281" y="-135" type="line"/>
      <point x="281" y="-175"/>
      <point x="268" y="-213"/>
      <point x="247" y="-252" type="curve"/>
      <point x="296" y="-263" type="line"/>
    </contour>
    <contour>
      <point x="160" y="541" type="line"/>
      <point x="184" y="547"/>
      <point x="216" y="549"/>
      <point x="247" y="549" type="curve" smooth="yes"/>
      <point x="347" y="549"/>
      <point x="393" y="523"/>
      <point x="393" y="440" type="curve" smooth="yes"/>
      <point x="393" y="379"/>
      <point x="372" y="347"/>
      <point x="329" y="323" type="curve"/>
      <point x="160" y="323" type="line"/>
    </contour>
  </outline>
</glyph>
<glyph name="Scircumflex" format="1">
  <advance width="518"/>
  <unicode hex="015C"/>
  <note>
	Scircumflex
  </note>
  <outline>
    <contour>
      <point x="417" y="-8"/>
      <point x="466" y="82"/>
      <point x="466" y="177" type="curve" smooth="yes"/>
      <point x="466" y="279"/>
      <point x="403" y="320"/>
      <point x="279" y="348" type="curve" smooth="yes"/>
      <point x="177" y="371"/>
      <point x="148" y="394"/>
      <point x="148" y="451" type="curve" smooth="yes"/>
      <point x="148" y="518"/>
      <point x="177" y="550"/>
      <point x="265" y="550" type="curve" smooth="yes"/>
      <point x="299" y="550"/>
      <point x="326" y="547"/>
      <point x="354" y="543" type="curve"/>
      <point x="367" y="458" type="line"/>
      <point x="428" y="458" type="line"/>
      <point x="437" y="483"/>
      <point x="445" y="518"/>
      <point x="445" y="548" type="curve" smooth="yes"/>
      <point x="445" y="584" type="line"/>
      <point x="404" y="608"/>
      <point x="359" y="626"/>
      <point x="270" y="626" type="curve" smooth="yes"/>
      <point x="111" y="626"/>
      <point x="63" y="535"/>
      <point x="63" y="444" type="curve" smooth="yes"/>
      <point x="63" y="330"/>
      <point x="153" y="293"/>
      <point x="257" y="268" type="curve" smooth="yes"/>
      <point x="349" y="246"/>
      <point x="381" y="220"/>
      <point x="381" y="159" type="curve" smooth="yes"/>
      <point x="381" y="133"/>
      <point x="377" y="105"/>
      <point x="369" y="84" type="curve"/>
      <point x="339" y="77"/>
      <point x="304" y="73"/>
      <point x="261" y="73" type="curve" smooth="yes"/>
      <point x="195" y="73"/>
      <point x="137" y="85"/>
      <point x="79" y="115" type="curve"/>
      <point x="50" y="41" type="line"/>
      <point x="113" y="7"/>
      <point x="181" y="-8"/>
      <point x="253" y="-8" type="curve" smooth="yes"/>
    </contour>
    <contour>
      <point x="266" y="759" type="line"/>
      <point x="271" y="759" type="line"/>
      <point x="352" y="684" type="line"/>
      <point x="405" y="695" type="line"/>
      <point x="306" y="828" type="line"/>
      <point x="231" y="828" type="line"/>
      <point x="131" y="695" type="line"/>
      <point x="182" y="684" type="line"/>
    </contour>
  </outline>
</glyph>
<glyph name="tcedilla" format="1">
  <advance width="381"/>
  <unicode hex="0163"/>
  <note>
	tcedilla
  </note>
  <outline>
    <contour>
      <point x="282" y="-216"/>
      <point x="316" y="-186"/>
      <point x="316" y="-128" type="curve" smooth="yes"/>
      <point x="316" y="-82"/>
      <point x="293" y="-52"/>
      <point x="237" y="-52" type="curve" smooth="yes"/>
      <point x="222" y="-52"/>
      <point x="209" y="-54"/>
      <point x="198" y="-59" type="curve"/>
      <point x="234" y="-7" type="line"/>
      <point x="240" y="-8"/>
      <point x="247" y="-8"/>
      <point x="253" y="-8" type="curve" smooth="yes"/>
      <point x="285" y="-8"/>
      <point x="329" y="8"/>
      <point x="351" y="19" type="curve"/>
      <point x="329" y="86" type="line"/>
      <point x="301" y="75"/>
      <point x="262" y="65"/>
      <point x="240" y="65" type="curve" smooth="yes"/>
      <point x="220" y="65"/>
      <point x="207" y="68"/>
      <point x="191" y="74" type="curve"/>
      <point x="185" y="88"/>
      <point x="182" y="100"/>
      <point x="182" y="116" type="curve" smooth="yes"/>
      <point x="182" y="404" type="line"/>
      <point x="330" y="404" type="line"/>
      <point x="340" y="470" type="line"/>
      <point x="182" y="470" type="line"/>
      <point x="182" y="596" type="line"/>
      <point x="104" y="596" type="line"/>
      <point x="104" y="470" type="line"/>
      <point x="30" y="470" type="line"/>
      <point x="20" y="404" type="line"/>
      <point x="104" y="404" type="line"/>
      <point x="104" y="101" type="line" smooth="yes"/>
      <point x="104" y="45"/>
      <point x="139" y="30"/>
      <point x="178" y="4" type="curve"/>
      <point x="120" y="-66" type="line"/>
      <point x="163" y="-109" type="line"/>
      <point x="173" y="-104"/>
      <point x="188" y="-101"/>
      <point x="203" y="-101" type="curve" smooth="yes"/>
      <point x="230" y="-101"/>
      <point x="248" y="-109"/>
      <point x="248" y="-131" type="curve" smooth="yes"/>
      <point x="248" y="-142"/>
      <point x="247" y="-148"/>
      <point x="244" y="-157" type="curve"/>
      <point x="229" y="-160"/>
      <point x="215" y="-161"/>
      <point x="197" y="-161" type="curve" smooth="yes"/>
      <point x="179" y="-161"/>
      <point x="150" y="-157"/>
      <point x="132" y="-150" type="curve"/>
      <point x="115" y="-199" type="line"/>
      <point x="145" y="-213"/>
      <point x="176" y="-216"/>
      <point x="204" y="-216" type="curve" smooth="yes"/>
    </contour>
  </outline>
</glyph>
<glyph name="Tcaron" format="1">
  <advance width="553"/>
  <unicode hex="0164"/>
  <note>
	Tcaron
  </note>
  <outline>
    <contour>
      <point x="319" y="0" type="line"/>
      <point x="319" y="538" type="line"/>
      <point x="517" y="538" type="line"/>
      <point x="517" y="616" type="line"/>
      <point x="36" y="616" type="line"/>
      <point x="36" y="538" type="line"/>
      <point x="234" y="538" type="line"/>
      <point x="234" y="0" type="line"/>
    </contour>
    <contour>
      <point x="314" y="696" type="line"/>
      <point x="413" y="829" type="line"/>
      <point x="360" y="840" type="line"/>
      <point x="279" y="765" type="line"/>
      <point x="274" y="765" type="line"/>
      <point x="190" y="840" type="line"/>
      <point x="139" y="829" type="line"/>
      <point x="239" y="696" type="line"/>
    </contour>
  </outline>
</glyph>
<glyph name="Utilde" format="1">
  <advance width="609"/>
  <unicode hex="0168"/>
  <note>
	Utilde
  </note>
  <outline>
    <contour>
      <point x="434" y="-8"/>
      <point x="536" y="24"/>
      <point x="536" y="128" type="curve" smooth="yes"/>
      <point x="536" y="616" type="line"/>
      <point x="451" y="616" type="line"/>
      <point x="451" y="92" type="line"/>
      <point x="422" y="79"/>
      <point x="368" y="70"/>
      <point x="302" y="70" type="curve" smooth="yes"/>
      <point x="202" y="70"/>
      <point x="158" y="96"/>
      <point x="158" y="189" type="curve" smooth="yes"/>
      <point x="158" y="616" type="line"/>
      <point x="73" y="616" type="line"/>
      <point x="73" y="174" type="line" smooth="yes"/>
      <point x="73" y="51"/>
      <point x="152" y="-8"/>
      <point x="295" y="-8" type="curve" smooth="yes"/>
    </contour>
    <contour>
      <point x="224" y="713"/>
      <point x="234" y="732"/>
      <point x="261" y="732" type="curve" smooth="yes"/>
      <point x="296" y="732"/>
      <point x="323" y="691"/>
      <point x="370" y="691" type="curve" smooth="yes"/>
      <point x="425" y="691"/>
      <point x="450" y="722"/>
      <point x="454" y="787" type="curve"/>
      <point x="399" y="805" type="line"/>
      <point x="396" y="779"/>
      <point x="386" y="760"/>
      <point x="359" y="760" type="curve" smooth="yes"/>
      <point x="330" y="760"/>
      <point x="292" y="801"/>
      <point x="250" y="801" type="curve" smooth="yes"/>
      <point x="195" y="801"/>
      <point x="170" y="770"/>
      <point x="166" y="705" type="curve"/>
      <point x="221" y="687" type="line"/>
    </contour>
  </outline>
</glyph>
<glyph name="Umacron" format="1">
  <advance width="609"/>
  <unicode hex="016A"/>
  <note>
	Umacron
  </note>
  <outline>
    <contour>
      <point x="434" y="-8"/>
      <point x="536" y="24"/>
      <point x="536" y="128" type="curve" smooth="yes"/>
      <point x="536" y="616" type="line"/>
      <point x="451" y="616" type="line"/>
      <point x="451" y="92" type="line"/>
      <point x="422" y="79"/>
      <point x="368" y="70"/>
      <point x="302" y="70" type="curve" smooth="yes"/>
      <point x="202" y="70"/>
      <point x="158" y="96"/>
      <point x="158" y="189" type="curve" smooth="yes"/>
      <point x="158" y="616" type="line"/>
      <point x="73" y="616" type="line"/>
      <point x="73" y="174" type="line" smooth="yes"/>
      <point x="73" y="51"/>
      <point x="152" y="-8"/>
      <point x="295" y="-8" type="curve" smooth="yes"/>
    </contour>
    <contour>
      <point x="457" y="696" type="line"/>
      <point x="457" y="766" type="line"/>
      <point x="151" y="766" type="line"/>
      <point x="151" y="696" type="line"/>
    </contour>
  </outline>
</glyph>
<glyph name="umacron" format="1">
  <advance width="520"/>
  <unicode hex="016B"/>
  <note>
	umacron
  </note>
  <outline>
    <contour>
      <point x="272" y="-8"/>
      <point x="320" y="25"/>
      <point x="361" y="72" type="curve"/>
      <point x="369" y="72" type="line"/>
      <point x="375" y="0" type="line"/>
      <point x="446" y="0" type="line"/>
      <point x="446" y="470" type="line"/>
      <point x="364" y="470" type="line"/>
      <point x="364" y="128" type="line"/>
      <point x="329" y="87"/>
      <point x="282" y="64"/>
      <point x="216" y="64" type="curve" smooth="yes"/>
      <point x="198" y="64"/>
      <point x="174" y="66"/>
      <point x="150" y="73" type="curve"/>
      <point x="150" y="470" type="line"/>
      <point x="68" y="470" type="line"/>
      <point x="68" y="126" type="line" smooth="yes"/>
      <point x="68" y="26"/>
      <point x="111" y="-8"/>
      <point x="202" y="-8" type="curve" smooth="yes"/>
    </contour>
    <contour>
      <point x="413" y="552" type="line"/>
      <point x="413" y="622" type="line"/>
      <point x="107" y="622" type="line"/>
      <point x="107" y="552" type="line"/>
    </contour>
  </outline>
</glyph>
<glyph name="ubreve" format="1">
  <advance width="520"/>
  <unicode hex="016D"/>
  <note>
	ubreve
  </note>
  <outline>
    <contour>
      <point x="272" y="-8"/>
      <point x="320" y="25"/>
      <point x="361" y="72" type="curve"/>
      <point x="369" y="72" type="line"/>
      <point x="375" y="0" type="line"/>
      <point x="446" y="0" type="line"/>
      <point x="446" y="470" type="line"/>
      <point x="364" y="470" type="line"/>
      <point x="364" y="128" type="line"/>
      <point x="329" y="87"/>
      <point x="282" y="64"/>
      <point x="216" y="64" type="curve" smooth="yes"/>
      <point x="198" y="64"/>
      <point x="174" y="66"/>
      <point x="150" y="73" type="curve"/>
      <point x="150" y="470" type="line"/>
      <point x="68" y="470" type="line"/>
      <point x="68" y="126" type="line" smooth="yes"/>
      <point x="68" y="26"/>
      <point x="111" y="-8"/>
      <point x="202" y="-8" type="curve" smooth="yes"/>
    </contour>
    <contour>
      <point x="345" y="547"/>
      <point x="387" y="591"/>
      <point x="395" y="660" type="curve"/>
      <point x="318" y="672" type="line"/>
      <point x="315" y="633"/>
      <point x="306" y="611"/>
      <point x="260" y="611" type="curve" smooth="yes"/>
      <point x="214" y="611"/>
      <point x="205" y="633"/>
      <point x="202" y="672" type="curve"/>
      <point x="125" y="660" type="line"/>
      <point x="133" y="591"/>
      <point x="175" y="547"/>
      <point x="260" y="547" type="curve" smooth="yes"/>
    </contour>
  </outline>
</glyph>
<glyph name="Uring" format="1">
  <advance width="609"/>
  <unicode hex="016E"/>
  <note>
	Uring
  </note>
  <outline>
    <contour>
      <point x="434" y="-8"/>
      <point x="536" y="24"/>
      <point x="536" y="128" type="curve" smooth="yes"/>
      <point x="536" y="616" type="line"/>
      <point x="451" y="616" type="line"/>
      <point x="451" y="92" type="line"/>
      <point x="422" y="79"/>
      <point x="368" y="70"/>
      <point x="302" y="70" type="curve" smooth="yes"/>
      <point x="202" y="70"/>
      <point x="158" y="96"/>
      <point x="158" y="189" type="curve" smooth="yes"/>
      <point x="158" y="616" type="line"/>
      <point x="73" y="616" type="line"/>
      <point x="73" y="174" type="line" smooth="yes"/>
      <point x="73" y="51"/>
      <point x="152" y="-8"/>
      <point x="295" y="-8" type="curve" smooth="yes"/>
    </contour>
    <contour>
      <point x="373" y="686"/>
      <point x="419" y="726"/>
      <point x="419" y="777" type="curve" smooth="yes"/>
      <point x="419" y="837"/>
      <point x="377" y="874"/>
      <point x="310" y="874" type="curve" smooth="yes"/>
      <point x="230" y="874"/>
      <point x="189" y="829"/>
      <point x="189" y="778" type="curve" smooth="yes"/>
      <point x="189" y="718"/>
      <point x="231" y="686"/>
      <point x="298" y="686" type="curve" smooth="yes"/>
    </contour>
    <contour>
      <point x="266" y="735"/>
      <point x="246" y="753"/>
      <point x="246" y="779" type="curve" smooth="yes"/>
      <point x="246" y="792"/>
      <point x="247" y="806"/>
      <point x="251" y="820" type="curve"/>
      <point x="266" y="824"/>
      <point x="285" y="825"/>
      <point x="309" y="825" type="curve" smooth="yes"/>
      <point x="342" y="825"/>
      <point x="362" y="802"/>
      <point x="362" y="776" type="curve" smooth="yes"/>
      <point x="362" y="763"/>
      <point x="360" y="751"/>
      <point x="357" y="740" type="curve"/>
      <point x="344" y="736"/>
      <point x="322" y="735"/>
      <point x="299" y="735" type="curve" smooth="yes"/>
    </contour>
  </outline>
</glyph>
<glyph name="Uhungarumlaut" format="1">
  <advance width="609"/>
  <unicode hex="0170"/>
  <note>
	Uhungarumlaut
  </note>
  <outline>
    <contour>
      <point x="434" y="-8"/>
      <point x="536" y="24"/>
      <point x="536" y="128" type="curve" smooth="yes"/>
      <point x="536" y="616" type="line"/>
      <point x="451" y="616" type="line"/>
      <point x="451" y="92" type="line"/>
      <point x="422" y="79"/>
      <point x="368" y="70"/>
      <point x="302" y="70" type="curve" smooth="yes"/>
      <point x="202" y="70"/>
      <point x="158" y="96"/>
      <point x="158" y="189" type="curve" smooth="yes"/>
      <point x="158" y="616" type="line"/>
      <point x="73" y="616" type="line"/>
      <point x="73" y="174" type="line" smooth="yes"/>
      <point x="73" y="51"/>
      <point x="152" y="-8"/>
      <point x="295" y="-8" type="curve" smooth="yes"/>
    </contour>
    <contour>
      <point x="260" y="719"/>
      <point x="279" y="765"/>
      <point x="279" y="806" type="curve" smooth="yes"/>
      <point x="279" y="854"/>
      <point x="259" y="878"/>
      <point x="213" y="878" type="curve" smooth="yes"/>
      <point x="197" y="878"/>
      <point x="181" y="875"/>
      <point x="165" y="869" type="curve"/>
      <point x="165" y="813" type="line"/>
      <point x="218" y="813" type="line"/>
      <point x="218" y="773"/>
      <point x="205" y="735"/>
      <point x="184" y="696" type="curve"/>
      <point x="231" y="685" type="line"/>
    </contour>
    <contour>
      <point x="425" y="719"/>
      <point x="444" y="765"/>
      <point x="444" y="806" type="curve" smooth="yes"/>
      <point x="444" y="854"/>
      <point x="426" y="878"/>
      <point x="380" y="878" type="curve" smooth="yes"/>
      <point x="364" y="878"/>
      <point x="346" y="875"/>
      <point x="330" y="869" type="curve"/>
      <point x="330" y="813" type="line"/>
      <point x="383" y="813" type="line"/>
      <point x="383" y="773"/>
      <point x="370" y="735"/>
      <point x="349" y="696" type="curve"/>
      <point x="396" y="685" type="line"/>
    </contour>
  </outline>
</glyph>
<glyph name="uhungarumlaut" format="1">
  <advance width="520"/>
  <unicode hex="0171"/>
  <note>
	uhungarumlaut
  </note>
  <outline>
    <contour>
      <point x="272" y="-8"/>
      <point x="320" y="25"/>
      <point x="361" y="72" type="curve"/>
      <point x="369" y="72" type="line"/>
      <point x="375" y="0" type="line"/>
      <point x="446" y="0" type="line"/>
      <point x="446" y="470" type="line"/>
      <point x="364" y="470" type="line"/>
      <point x="364" y="128" type="line"/>
      <point x="329" y="87"/>
      <point x="282" y="64"/>
      <point x="216" y="64" type="curve" smooth="yes"/>
      <point x="198" y="64"/>
      <point x="174" y="66"/>
      <point x="150" y="73" type="curve"/>
      <point x="150" y="470" type="line"/>
      <point x="68" y="470" type="line"/>
      <point x="68" y="126" type="line" smooth="yes"/>
      <point x="68" y="26"/>
      <point x="111" y="-8"/>
      <point x="202" y="-8" type="curve" smooth="yes"/>
    </contour>
    <contour>
      <point x="216" y="575"/>
      <point x="235" y="621"/>
      <point x="235" y="662" type="curve" smooth="yes"/>
      <point x="235" y="710"/>
      <point x="215" y="734"/>
      <point x="169" y="734" type="curve" smooth="yes"/>
      <point x="153" y="734"/>
      <point x="137" y="731"/>
      <point x="121" y="725" type="curve"/>
      <point x="121" y="669" type="line"/>
      <point x="174" y="669" type="line"/>
      <point x="174" y="629"/>
      <point x="161" y="591"/>
      <point x="140" y="552" type="curve"/>
      <point x="187" y="541" type="line"/>
    </contour>
    <contour>
      <point x="381" y="575"/>
      <point x="400" y="621"/>
      <point x="400" y="662" type="curve" smooth="yes"/>
      <point x="400" y="710"/>
      <point x="382" y="734"/>
      <point x="336" y="734" type="curve" smooth="yes"/>
      <point x="320" y="734"/>
      <point x="302" y="731"/>
      <point x="286" y="725" type="curve"/>
      <point x="286" y="669" type="line"/>
      <point x="339" y="669" type="line"/>
      <point x="339" y="629"/>
      <point x="326" y="591"/>
      <point x="305" y="552" type="curve"/>
      <point x="352" y="541" type="line"/>
    </contour>
  </outline>
</glyph>
<glyph name="Ydieresis" format="1">
  <advance width="615"/>
  <unicode hex="0178"/>
  <note>
	Ydieresis
  </note>
  <outline>
    <contour>
      <point x="350" y="0" type="line"/>
      <point x="350" y="211" type="line"/>
      <point x="371" y="211" type="line"/>
      <point x="465" y="338"/>
      <point x="523" y="447"/>
      <point x="587" y="600" type="curve"/>
      <point x="502" y="621" type="line"/>
      <point x="448" y="488"/>
      <point x="382" y="365"/>
      <point x="323" y="278" type="curve"/>
      <point x="292" y="278" type="line"/>
      <point x="233" y="365"/>
      <point x="167" y="488"/>
      <point x="113" y="621" type="curve"/>
      <point x="28" y="600" type="line"/>
      <point x="92" y="447"/>
      <point x="150" y="338"/>
      <point x="244" y="211" type="curve"/>
      <point x="265" y="211" type="line"/>
      <point x="265" y="0" type="line"/>
    </contour>
    <contour>
      <point x="257" y="691"/>
      <point x="274" y="707"/>
      <point x="274" y="734" type="curve" smooth="yes"/>
      <point x="274" y="762"/>
      <point x="257" y="778"/>
      <point x="228" y="778" type="curve" smooth="yes"/>
      <point x="200" y="778"/>
      <point x="182" y="762"/>
      <point x="182" y="734" type="curve" smooth="yes"/>
      <point x="182" y="707"/>
      <point x="200" y="691"/>
      <point x="228" y="691" type="curve" smooth="yes"/>
    </contour>
    <contour>
      <point x="415" y="691"/>
      <point x="432" y="707"/>
      <point x="432" y="734" type="curve" smooth="yes"/>
      <point x="432" y="762"/>
      <point x="415" y="778"/>
      <point x="386" y="778" type="curve" smooth="yes"/>
      <point x="357" y="778"/>
      <point x="339" y="762"/>
      <point x="339" y="734" type="curve" smooth="yes"/>
      <point x="339" y="707"/>
      <point x="357" y="691"/>
      <point x="386" y="691" type="curve" smooth="yes"/>
    </contour>
  </outline>
</glyph>
<glyph name="zacute" format="1">
  <advance width="449"/>
  <unicode hex="017A"/>
  <note>
	zacute
  </note>
  <outline>
    <contour>
      <point x="405" y="0" type="line"/>
      <point x="405" y="56" type="line" smooth="yes"/>
      <point x="405" y="79"/>
      <point x="399" y="106"/>
      <point x="392" y="125" type="curve"/>
      <point x="333" y="125" type="line"/>
      <point x="325" y="64" type="line"/>
      <point x="137" y="64" type="line"/>
      <point x="137" y="76" type="line"/>
      <point x="393" y="398" type="line"/>
      <point x="393" y="470" type="line"/>
      <point x="55" y="470" type="line"/>
      <point x="55" y="414" type="line" smooth="yes"/>
      <point x="55" y="391"/>
      <point x="61" y="364"/>
      <point x="68" y="345" type="curve"/>
      <point x="127" y="345" type="line"/>
      <point x="135" y="406" type="line"/>
      <point x="301" y="406" type="line"/>
      <point x="301" y="396" type="line"/>
      <point x="46" y="72" type="line"/>
      <point x="46" y="0" type="line"/>
    </contour>
    <contour>
      <point x="366" y="686" type="line"/>
      <point x="260" y="697" type="line"/>
      <point x="177" y="552" type="line"/>
      <point x="241" y="542" type="line"/>
    </contour>
  </outline>
</glyph>
<glyph name="zcaron" format="1">
  <advance width="453"/>
  <unicode hex="017E"/>
  <note>
	zcaron
  </note>
  <outline>
    <contour>
      <point x="409" y="0" type="line"/>
      <point x="409" y="56" type="line" smooth="yes"/>
      <point x="409" y="79"/>
      <point x="403" y="106"/>
      <point x="396" y="125" type="curve"/>
      <point x="337" y="125" type="line"/>
      <point x="329" y="64" type="line"/>
      <point x="141" y="64" type="line"/>
      <point x="141" y="76" type="line"/>
      <point x="397" y="398" type="line"/>
      <point x="397" y="470" type="line"/>
      <point x="59" y="470" type="line"/>
      <point x="59" y="414" type="line" smooth="yes"/>
      <point x="59" y="391"/>
      <point x="65" y="364"/>
      <point x="72" y="345" type="curve"/>
      <point x="131" y="345" type="line"/>
      <point x="139" y="406" type="line"/>
      <point x="305" y="406" type="line"/>
      <point x="305" y="396" type="line"/>
      <point x="50" y="72" type="line"/>
      <point x="50" y="0" type="line"/>
    </contour>
    <contour>
      <point x="273" y="552" type="line"/>
      <point x="372" y="685" type="line"/>
      <point x="319" y="696" type="line"/>
      <point x="238" y="621" type="line"/>
      <point x="233" y="621" type="line"/>
      <point x="149" y="696" type="line"/>
      <point x="98" y="685" type="line"/>
      <point x="198" y="552" type="line"/>
    </contour>
  </outline>
</glyph>
<glyph name="florin" format="1">
  <advance width="461"/>
  <unicode hex="0192"/>
  <note>
	florin
  </note>
  <outline>
    <contour>
      <point x="147" y="-150"/>
      <point x="189" y="-93"/>
      <point x="204" y="14" type="curve" smooth="yes"/>
      <point x="258" y="398" type="line"/>
      <point x="364" y="398" type="line"/>
      <point x="383" y="464" type="line"/>
      <point x="267" y="464" type="line"/>
      <point x="275" y="518" type="line" smooth="yes"/>
      <point x="278" y="540"/>
      <point x="282" y="556"/>
      <point x="292" y="572" type="curve"/>
      <point x="309" y="580"/>
      <point x="332" y="584"/>
      <point x="354" y="584" type="curve" smooth="yes"/>
      <point x="382" y="584"/>
      <point x="400" y="579"/>
      <point x="428" y="566" type="curve"/>
      <point x="456" y="632" type="line"/>
      <point x="432" y="645"/>
      <point x="402" y="657"/>
      <point x="359" y="657" type="curve" smooth="yes"/>
      <point x="343" y="657"/>
      <point x="317" y="656"/>
      <point x="293" y="652" type="curve"/>
      <point x="258" y="633"/>
      <point x="205" y="590"/>
      <point x="197" y="537" type="curve" smooth="yes"/>
      <point x="187" y="464" type="line"/>
      <point x="133" y="464" type="line"/>
      <point x="114" y="398" type="line"/>
      <point x="178" y="398" type="line"/>
      <point x="122" y="0" type="line" smooth="yes"/>
      <point x="118" y="-27"/>
      <point x="111" y="-47"/>
      <point x="101" y="-62" type="curve"/>
      <point x="79" y="-68"/>
      <point x="61" y="-70"/>
      <point x="36" y="-70" type="curve" smooth="yes"/>
      <point x="23" y="-70"/>
      <point x="7" y="-69"/>
      <point x="-4" y="-67" type="curve"/>
      <point x="-20" y="-136" type="line"/>
      <point x="0" y="-145"/>
      <point x="19" y="-150"/>
      <point x="48" y="-150" type="curve" smooth="yes"/>
    </contour>
  </outline>
</glyph>
<glyph name="Icaron" format="1">
  <advance width="242"/>
  <unicode hex="01CF"/>
  <note>
	Icaron
  </note>
  <outline>
    <contour>
      <point x="163" y="0" type="line"/>
      <point x="163" y="616" type="line"/>
      <point x="78" y="616" type="line"/>
      <point x="78" y="0" type="line"/>
    </contour>
    <contour>
      <point x="159" y="696" type="line"/>
      <point x="258" y="829" type="line"/>
      <point x="205" y="840" type="line"/>
      <point x="124" y="765" type="line"/>
      <point x="119" y="765" type="line"/>
      <point x="35" y="840" type="line"/>
      <point x="-16" y="829" type="line"/>
      <point x="84" y="696" type="line"/>
    </contour>
  </outline>
</glyph>
<glyph name="icaron" format="1">
  <advance width="232"/>
  <unicode hex="01D0"/>
  <note>
	icaron
  </note>
  <outline>
    <contour>
      <point x="156" y="0" type="line"/>
      <point x="156" y="469" type="line"/>
      <point x="76" y="469" type="line"/>
      <point x="76" y="0" type="line"/>
    </contour>
    <contour>
      <point x="154" y="552" type="line"/>
      <point x="253" y="685" type="line"/>
      <point x="200" y="696" type="line"/>
      <point x="119" y="621" type="line"/>
      <point x="114" y="621" type="line"/>
      <point x="30" y="696" type="line"/>
      <point x="-21" y="685" type="line"/>
      <point x="79" y="552" type="line"/>
    </contour>
  </outline>
</glyph>
<glyph name="udieresismacron" format="1">
  <advance width="520"/>
  <unicode hex="01D6"/>
  <note>
	udieresismacron
  </note>
  <outline>
    <contour>
      <point x="272" y="-8"/>
      <point x="320" y="25"/>
      <point x="361" y="72" type="curve"/>
      <point x="369" y="72" type="line"/>
      <point x="375" y="0" type="line"/>
      <point x="446" y="0" type="line"/>
      <point x="446" y="470" type="line"/>
      <point x="364" y="470" type="line"/>
      <point x="364" y="128" type="line"/>
      <point x="329" y="87"/>
      <point x="282" y="64"/>
      <point x="216" y="64" type="curve" smooth="yes"/>
      <point x="198" y="64"/>
      <point x="174" y="66"/>
      <point x="150" y="73" type="curve"/>
      <point x="150" y="470" type="line"/>
      <point x="68" y="470" type="line"/>
      <point x="68" y="126" type="line" smooth="yes"/>
      <point x="68" y="26"/>
      <point x="111" y="-8"/>
      <point x="202" y="-8" type="curve" smooth="yes"/>
    </contour>
    <contour>
      <point x="210" y="547"/>
      <point x="227" y="563"/>
      <point x="227" y="590" type="curve" smooth="yes"/>
      <point x="227" y="618"/>
      <point x="210" y="634"/>
      <point x="181" y="634" type="curve" smooth="yes"/>
      <point x="153" y="634"/>
      <point x="135" y="618"/>
      <point x="135" y="590" type="curve" smooth="yes"/>
      <point x="135" y="563"/>
      <point x="153" y="547"/>
      <point x="181" y="547" type="curve" smooth="yes"/>
    </contour>
    <contour>
      <point x="368" y="547"/>
      <point x="385" y="563"/>
      <point x="385" y="590" type="curve" smooth="yes"/>
      <point x="385" y="618"/>
      <point x="368" y="634"/>
      <point x="339" y="634" type="curve" smooth="yes"/>
      <point x="310" y="634"/>
      <point x="292" y="618"/>
      <point x="292" y="590" type="curve" smooth="yes"/>
      <point x="292" y="563"/>
      <point x="310" y="547"/>
      <point x="339" y="547" type="curve" smooth="yes"/>
    </contour>
    <contour>
      <point x="413" y="695" type="line"/>
      <point x="413" y="765" type="line"/>
      <point x="107" y="765" type="line"/>
      <point x="107" y="695" type="line"/>
    </contour>
  </outline>
</glyph>
<glyph name="Udieresisgrave" format="1">
  <advance width="609"/>
  <unicode hex="01DB"/>
  <note>
	Udieresisgrave
  </note>
  <outline>
    <contour>
      <point x="434" y="-8"/>
      <point x="536" y="24"/>
      <point x="536" y="128" type="curve" smooth="yes"/>
      <point x="536" y="616" type="line"/>
      <point x="451" y="616" type="line"/>
      <point x="451" y="92" type="line"/>
      <point x="422" y="79"/>
      <point x="368" y="70"/>
      <point x="302" y="70" type="curve" smooth="yes"/>
      <point x="202" y="70"/>
      <point x="158" y="96"/>
      <point x="158" y="189" type="curve" smooth="yes"/>
      <point x="158" y="616" type="line"/>
      <point x="73" y="616" type="line"/>
      <point x="73" y="174" type="line" smooth="yes"/>
      <point x="73" y="51"/>
      <point x="152" y="-8"/>
      <point x="295" y="-8" type="curve" smooth="yes"/>
    </contour>
    <contour>
      <point x="254" y="691"/>
      <point x="271" y="707"/>
      <point x="271" y="734" type="curve" smooth="yes"/>
      <point x="271" y="762"/>
      <point x="254" y="778"/>
      <point x="225" y="778" type="curve" smooth="yes"/>
      <point x="197" y="778"/>
      <point x="179" y="762"/>
      <point x="179" y="734" type="curve" smooth="yes"/>
      <point x="179" y="707"/>
      <point x="197" y="691"/>
      <point x="225" y="691" type="curve" smooth="yes"/>
    </contour>
    <contour>
      <point x="412" y="691"/>
      <point x="429" y="707"/>
      <point x="429" y="734" type="curve" smooth="yes"/>
      <point x="429" y="762"/>
      <point x="412" y="778"/>
      <point x="383" y="778" type="curve" smooth="yes"/>
      <point x="354" y="778"/>
      <point x="336" y="762"/>
      <point x="336" y="734" type="curve" smooth="yes"/>
      <point x="336" y="707"/>
      <point x="354" y="691"/>
      <point x="383" y="691" type="curve" smooth="yes"/>
    </contour>
    <contour>
      <point x="347" y="864" type="line"/>
      <point x="264" y="1009" type="line"/>
      <point x="158" y="998" type="line"/>
      <point x="283" y="854" type="line"/>
    </contour>
  </outline>
</glyph>
<glyph name="aringacute" format="1">
  <advance width="474"/>
  <unicode hex="01FB"/>
  <note>
	aringacute
  </note>
  <outline>
    <contour>
      <point x="235" y="-8"/>
      <point x="288" y="20"/>
      <point x="321" y="66" type="curve"/>
      <point x="329" y="66" type="line"/>
      <point x="333" y="0" type="line"/>
      <point x="406" y="0" type="line"/>
      <point x="406" y="331" type="line" smooth="yes"/>
      <point x="406" y="424"/>
      <point x="350" y="478"/>
      <point x="250" y="478" type="curve" smooth="yes"/>
      <point x="188" y="478"/>
      <point x="110" y="450"/>
      <point x="74" y="428" type="curve"/>
      <point x="74" y="403" type="line" smooth="yes"/>
      <point x="74" y="380"/>
      <point x="80" y="355"/>
      <point x="87" y="336" type="curve"/>
      <point x="148" y="336" type="line"/>
      <point x="158" y="411" type="line"/>
      <point x="174" y="413"/>
      <point x="199" y="415"/>
      <point x="224" y="415" type="curve" smooth="yes"/>
      <point x="296" y="415"/>
      <point x="324" y="396"/>
      <point x="324" y="322" type="curve" smooth="yes"/>
      <point x="324" y="260" type="line"/>
      <point x="302" y="262"/>
      <point x="279" y="263"/>
      <point x="258" y="263" type="curve" smooth="yes"/>
      <point x="129" y="263"/>
      <point x="40" y="219"/>
      <point x="40" y="113" type="curve" smooth="yes"/>
      <point x="40" y="40"/>
      <point x="87" y="-8"/>
      <point x="179" y="-8" type="curve" smooth="yes"/>
    </contour>
    <contour>
      <point x="151" y="56"/>
      <point x="126" y="71"/>
      <point x="126" y="122" type="curve" smooth="yes"/>
      <point x="126" y="152"/>
      <point x="129" y="172"/>
      <point x="142" y="203" type="curve"/>
      <point x="164" y="209"/>
      <point x="199" y="211"/>
      <point x="234" y="211" type="curve" smooth="yes"/>
      <point x="269" y="211"/>
      <point x="304" y="208"/>
      <point x="326" y="203" type="curve"/>
      <point x="326" y="129" type="line"/>
      <point x="295" y="82"/>
      <point x="244" y="56"/>
      <point x="190" y="56" type="curve" smooth="yes"/>
    </contour>
    <contour>
      <point x="306" y="532"/>
      <point x="352" y="572"/>
      <point x="352" y="623" type="curve" smooth="yes"/>
      <point x="352" y="683"/>
      <point x="310" y="720"/>
      <point x="243" y="720" type="curve" smooth="yes"/>
      <point x="163" y="720"/>
      <point x="122" y="675"/>
      <point x="122" y="624" type="curve" smooth="yes"/>
      <point x="122" y="564"/>
      <point x="164" y="532"/>
      <point x="231" y="532" type="curve" smooth="yes"/>
    </contour>
    <contour>
      <point x="199" y="581"/>
      <point x="179" y="599"/>
      <point x="179" y="625" type="curve" smooth="yes"/>
      <point x="179" y="638"/>
      <point x="180" y="652"/>
      <point x="184" y="666" type="curve"/>
      <point x="199" y="670"/>
      <point x="218" y="671"/>
      <point x="242" y="671" type="curve" smooth="yes"/>
      <point x="275" y="671"/>
      <point x="295" y="648"/>
      <point x="295" y="622" type="curve" smooth="yes"/>
      <point x="295" y="609"/>
      <point x="293" y="597"/>
      <point x="290" y="586" type="curve"/>
      <point x="277" y="582"/>
      <point x="255" y="581"/>
      <point x="232" y="581" type="curve" smooth="yes"/>
    </contour>
    <contour>
      <point x="381" y="911" type="line"/>
      <point x="275" y="922" type="line"/>
      <point x="192" y="777" type="line"/>
      <point x="256" y="767" type="line"/>
    </contour>
  </outline>
</glyph>
<glyph name="tcommaaccent" format="1">
  <advance width="381"/>
  <unicode hex="021B"/>
  <note>
	tcommaaccent
  </note>
  <outline>
    <contour>
      <point x="285" y="-8"/>
      <point x="329" y="8"/>
      <point x="351" y="19" type="curve"/>
      <point x="329" y="86" type="line"/>
      <point x="301" y="75"/>
      <point x="262" y="65"/>
      <point x="240" y="65" type="curve" smooth="yes"/>
      <point x="220" y="65"/>
      <point x="207" y="68"/>
      <point x="191" y="74" type="curve"/>
      <point x="185" y="88"/>
      <point x="182" y="100"/>
      <point x="182" y="116" type="curve" smooth="yes"/>
      <point x="182" y="404" type="line"/>
      <point x="330" y="404" type="line"/>
      <point x="340" y="470" type="line"/>
      <point x="182" y="470" type="line"/>
      <point x="182" y="596" type="line"/>
      <point x="104" y="596" type="line"/>
      <point x="104" y="470" type="line"/>
      <point x="30" y="470" type="line"/>
      <point x="20" y="404" type="line"/>
      <point x="104" y="404" type="line"/>
      <point x="104" y="101" type="line" smooth="yes"/>
      <point x="104" y="52"/>
      <point x="149" y="19"/>
      <point x="183" y="1" type="curve"/>
      <point x="205" y="-5"/>
      <point x="229" y="-8"/>
      <point x="253" y="-8" type="curve" smooth="yes"/>
    </contour>
    <contour>
      <point x="257" y="-229"/>
      <point x="276" y="-183"/>
      <point x="276" y="-142" type="curve" smooth="yes"/>
      <point x="276" y="-94"/>
      <point x="256" y="-70"/>
      <point x="210" y="-70" type="curve" smooth="yes"/>
      <point x="194" y="-70"/>
      <point x="176" y="-73"/>
      <point x="160" y="-79" type="curve"/>
      <point x="160" y="-135" type="line"/>
      <point x="213" y="-135" type="line"/>
      <point x="213" y="-175"/>
      <point x="200" y="-213"/>
      <point x="179" y="-252" type="curve"/>
      <point x="228" y="-263" type="line"/>
    </contour>
  </outline>
</glyph>
<glyph name="ascript" format="1">
  <advance width="514"/>
  <unicode hex="0251"/>
  <note>
	ascript
  </note>
  <outline>
    <contour>
      <point x="275" y="-10"/>
      <point x="325" y="25"/>
      <point x="360" y="64" type="curve"/>
      <point x="368" y="64" type="line"/>
      <point x="374" y="-1" type="line"/>
      <point x="444" y="0" type="line"/>
      <point x="444" y="474" type="line"/>
      <point x="374" y="474" type="line"/>
      <point x="368" y="397" type="line"/>
      <point x="361" y="397" type="line"/>
      <point x="337" y="445"/>
      <point x="295" y="478"/>
      <point x="229" y="478" type="curve" smooth="yes"/>
      <point x="85" y="478"/>
      <point x="50" y="369"/>
      <point x="50" y="222" type="curve" smooth="yes"/>
      <point x="50" y="116"/>
      <point x="86" y="-10"/>
      <point x="217" y="-10" type="curve" smooth="yes"/>
    </contour>
    <contour>
      <point x="166" y="59"/>
      <point x="134" y="122"/>
      <point x="134" y="232" type="curve" smooth="yes"/>
      <point x="134" y="345"/>
      <point x="152" y="410"/>
      <point x="239" y="410" type="curve" smooth="yes"/>
      <point x="293" y="410"/>
      <point x="332" y="381"/>
      <point x="362" y="342" type="curve"/>
      <point x="362" y="127" type="line"/>
      <point x="328" y="83"/>
      <point x="284" y="59"/>
      <point x="238" y="59" type="curve" smooth="yes"/>
    </contour>
  </outline>
</glyph>
<glyph name="schwa" format="1">
  <advance width="488"/>
  <unicode hex="0259"/>
  <note>
	schwa
  </note>
  <outline>
    <contour>
      <point x="362" y="-6"/>
      <point x="438" y="88"/>
      <point x="438" y="241" type="curve" smooth="yes"/>
      <point x="438" y="385"/>
      <point x="382" y="478"/>
      <point x="228" y="478" type="curve" smooth="yes"/>
      <point x="144" y="478"/>
      <point x="95" y="452"/>
      <point x="53" y="426" type="curve"/>
      <point x="79" y="363" type="line"/>
      <point x="119" y="390"/>
      <point x="158" y="409"/>
      <point x="223" y="409" type="curve" smooth="yes"/>
      <point x="312" y="409"/>
      <point x="357" y="361"/>
      <point x="359" y="268" type="curve"/>
      <point x="110" y="272" type="line"/>
      <point x="50" y="213" type="line"/>
      <point x="40" y="84"/>
      <point x="92" y="-6"/>
      <point x="224" y="-6" type="curve" smooth="yes"/>
    </contour>
    <contour>
      <point x="157" y="63"/>
      <point x="124" y="100"/>
      <point x="124" y="157" type="curve" smooth="yes"/>
      <point x="124" y="168"/>
      <point x="126" y="188"/>
      <point x="130" y="206" type="curve"/>
      <point x="360" y="210" type="line"/>
      <point x="357" y="111"/>
      <point x="328" y="63"/>
      <point x="229" y="63" type="curve" smooth="yes"/>
    </contour>
  </outline>
</glyph>
<glyph name="uni02BB" format="1">
  <advance width="264"/>
  <unicode hex="02BB"/>
  <note>
	uni02BB
  </note>
  <outline>
    <contour>
      <point x="157" y="429"/>
      <point x="173" y="432"/>
      <point x="189" y="438" type="curve"/>
      <point x="189" y="494" type="line"/>
      <point x="136" y="494" type="line"/>
      <point x="136" y="534"/>
      <point x="149" y="572"/>
      <point x="170" y="611" type="curve"/>
      <point x="123" y="622" type="line"/>
      <point x="94" y="588"/>
      <point x="75" y="542"/>
      <point x="75" y="501" type="curve" smooth="yes"/>
      <point x="75" y="453"/>
      <point x="95" y="429"/>
      <point x="141" y="429" type="curve" smooth="yes"/>
    </contour>
  </outline>
</glyph>
<glyph name="uni02BF" format="1">
  <advance width="196"/>
  <unicode hex="02BF"/>
  <note>
	uni02BF
  </note>
  <outline>
    <contour>
      <point x="146" y="511" type="line"/>
      <point x="135" y="511"/>
      <point x="121" y="511"/>
      <point x="112" y="513" type="curve"/>
      <point x="110" y="519"/>
      <point x="109" y="526"/>
      <point x="109" y="536" type="curve" smooth="yes"/>
      <point x="109" y="557"/>
      <point x="121" y="571"/>
      <point x="146" y="571" type="curve"/>
      <point x="146" y="622" type="line"/>
      <point x="82" y="622"/>
      <point x="50" y="595"/>
      <point x="50" y="541" type="curve" smooth="yes"/>
      <point x="50" y="494"/>
      <point x="82" y="460"/>
      <point x="146" y="460" type="curve"/>
    </contour>
  </outline>
</glyph>
<glyph name="uni02C9" format="1">
  <advance width="307"/>
  <unicode hex="02C9"/>
  <note>
	uni02C9
  </note>
  <outline>
    <contour>
      <point x="257" y="472" type="line"/>
      <point x="257" y="543" type="line"/>
      <point x="50" y="543" type="line"/>
      <point x="50" y="472" type="line"/>
    </contour>
  </outline>
</glyph>
<glyph name="uni02CC" format="1">
  <advance width="215"/>
  <unicode hex="02CC"/>
  <note>
	uni02CC
  </note>
  <outline>
    <contour>
      <point x="145" y="-207" type="line"/>
      <point x="145" y="0" type="line"/>
      <point x="70" y="0" type="line"/>
      <point x="70" y="-207" type="line"/>
    </contour>
  </outline>
</glyph>
<glyph name="breve" format="1">
  <advance width="370"/>
  <unicode hex="02D8"/>
  <note>
	breve
  </note>
  <outline>
    <contour>
      <point x="270" y="491"/>
      <point x="312" y="535"/>
      <point x="320" y="604" type="curve"/>
      <point x="243" y="616" type="line"/>
      <point x="240" y="577"/>
      <point x="231" y="555"/>
      <point x="185" y="555" type="curve" smooth="yes"/>
      <point x="139" y="555"/>
      <point x="130" y="577"/>
      <point x="127" y="616" type="curve"/>
      <point x="50" y="604" type="line"/>
      <point x="58" y="535"/>
      <point x="100" y="491"/>
      <point x="185" y="491" type="curve" smooth="yes"/>
    </contour>
  </outline>
</glyph>
<glyph name="tilde" format="1">
  <advance width="418"/>
  <unicode hex="02DC"/>
  <note>
	tilde
  </note>
  <outline>
    <contour>
      <point x="123" y="531"/>
      <point x="133" y="550"/>
      <point x="160" y="550" type="curve" smooth="yes"/>
      <point x="195" y="550"/>
      <point x="222" y="509"/>
      <point x="269" y="509" type="curve" smooth="yes"/>
      <point x="324" y="509"/>
      <point x="349" y="540"/>
      <point x="353" y="605" type="curve"/>
      <point x="298" y="623" type="line"/>
      <point x="295" y="597"/>
      <point x="285" y="578"/>
      <point x="258" y="578" type="curve" smooth="yes"/>
      <point x="229" y="578"/>
      <point x="191" y="619"/>
      <point x="149" y="619" type="curve" smooth="yes"/>
      <point x="94" y="619"/>
      <point x="69" y="588"/>
      <point x="65" y="523" type="curve"/>
      <point x="120" y="505" type="line"/>
    </contour>
  </outline>
</glyph>
<glyph name="gravecomb" format="1">
  <advance width="0"/>
  <unicode hex="0300"/>
  <note>
	gravecomb
  </note>
  <outline>
    <contour>
      <point x="-89" y="623" type="line"/>
      <point x="-195" y="634" type="line"/>
      <point x="-278" y="489" type="line"/>
      <point x="-214" y="479" type="line"/>
    </contour>
  </outline>
</glyph>
<glyph name="uni0302" format="1">
  <advance width="0"/>
  <unicode hex="0302"/>
  <note>
	uni0302
  </note>
  <outline>
    <contour>
      <point x="-227" y="547" type="line"/>
      <point x="-222" y="547" type="line"/>
      <point x="-141" y="472" type="line"/>
      <point x="-88" y="483" type="line"/>
      <point x="-187" y="616" type="line"/>
      <point x="-262" y="616" type="line"/>
      <point x="-362" y="483" type="line"/>
      <point x="-311" y="472" type="line"/>
    </contour>
  </outline>
</glyph>
<glyph name="uni0304" format="1">
  <advance width="0"/>
  <unicode hex="0304"/>
  <note>
	uni0304
  </note>
  <outline>
    <contour>
      <point x="-90" y="472" type="line"/>
      <point x="-90" y="543" type="line"/>
      <point x="-297" y="543" type="line"/>
      <point x="-297" y="472" type="line"/>
    </contour>
  </outline>
</glyph>
<glyph name="uni0306" format="1">
  <advance width="0"/>
  <unicode hex="0306"/>
  <note>
	uni0306
  </note>
  <outline>
    <contour>
      <point x="-135" y="491"/>
      <point x="-93" y="535"/>
      <point x="-85" y="604" type="curve"/>
      <point x="-162" y="616" type="line"/>
      <point x="-165" y="577"/>
      <point x="-174" y="555"/>
      <point x="-220" y="555" type="curve" smooth="yes"/>
      <point x="-266" y="555"/>
      <point x="-275" y="577"/>
      <point x="-278" y="616" type="curve"/>
      <point x="-355" y="604" type="line"/>
      <point x="-347" y="535"/>
      <point x="-305" y="491"/>
      <point x="-220" y="491" type="curve" smooth="yes"/>
    </contour>
  </outline>
</glyph>
<glyph name="uni0308" format="1">
  <advance width="0"/>
  <unicode hex="0308"/>
  <note>
	uni0308
  </note>
  <outline>
    <contour>
      <point x="-208" y="469"/>
      <point x="-191" y="485"/>
      <point x="-191" y="512" type="curve" smooth="yes"/>
      <point x="-191" y="540"/>
      <point x="-208" y="556"/>
      <point x="-237" y="556" type="curve" smooth="yes"/>
      <point x="-266" y="556"/>
      <point x="-284" y="540"/>
      <point x="-284" y="512" type="curve" smooth="yes"/>
      <point x="-284" y="485"/>
      <point x="-266" y="469"/>
      <point x="-237" y="469" type="curve" smooth="yes"/>
    </contour>
    <contour>
      <point x="-366" y="469"/>
      <point x="-349" y="485"/>
      <point x="-349" y="512" type="curve" smooth="yes"/>
      <point x="-349" y="540"/>
      <point x="-366" y="556"/>
      <point x="-395" y="556" type="curve" smooth="yes"/>
      <point x="-423" y="556"/>
      <point x="-441" y="540"/>
      <point x="-441" y="512" type="curve" smooth="yes"/>
      <point x="-441" y="485"/>
      <point x="-423" y="469"/>
      <point x="-395" y="469" type="curve" smooth="yes"/>
    </contour>
  </outline>
</glyph>
<glyph name="uni030A" format="1">
  <advance width="0"/>
  <unicode hex="030A"/>
  <note>
	uni030A
  </note>
  <outline>
    <contour>
      <point x="-125" y="443"/>
      <point x="-79" y="483"/>
      <point x="-79" y="534" type="curve" smooth="yes"/>
      <point x="-79" y="594"/>
      <point x="-121" y="631"/>
      <point x="-188" y="631" type="curve" smooth="yes"/>
      <point x="-268" y="631"/>
      <point x="-309" y="586"/>
      <point x="-309" y="535" type="curve" smooth="yes"/>
      <point x="-309" y="475"/>
      <point x="-267" y="443"/>
      <point x="-200" y="443" type="curve" smooth="yes"/>
    </contour>
    <contour>
      <point x="-232" y="492"/>
      <point x="-252" y="510"/>
      <point x="-252" y="536" type="curve" smooth="yes"/>
      <point x="-252" y="549"/>
      <point x="-251" y="563"/>
      <point x="-247" y="577" type="curve"/>
      <point x="-232" y="581"/>
      <point x="-213" y="582"/>
      <point x="-189" y="582" type="curve" smooth="yes"/>
      <point x="-156" y="582"/>
      <point x="-136" y="559"/>
      <point x="-136" y="533" type="curve" smooth="yes"/>
      <point x="-136" y="520"/>
      <point x="-138" y="508"/>
      <point x="-141" y="497" type="curve"/>
      <point x="-154" y="493"/>
      <point x="-176" y="492"/>
      <point x="-199" y="492" type="curve" smooth="yes"/>
    </contour>
  </outline>
</glyph>
<glyph name="uni030B" format="1">
  <advance width="0"/>
  <unicode hex="030B"/>
  <note>
	uni030B
  </note>
  <outline>
    <contour>
      <point x="-99" y="457"/>
      <point x="-80" y="503"/>
      <point x="-80" y="544" type="curve" smooth="yes"/>
      <point x="-80" y="592"/>
      <point x="-98" y="616"/>
      <point x="-144" y="616" type="curve" smooth="yes"/>
      <point x="-160" y="616"/>
      <point x="-178" y="613"/>
      <point x="-194" y="607" type="curve"/>
      <point x="-194" y="551" type="line"/>
      <point x="-141" y="551" type="line"/>
      <point x="-141" y="511"/>
      <point x="-154" y="473"/>
      <point x="-175" y="434" type="curve"/>
      <point x="-128" y="423" type="line"/>
    </contour>
    <contour>
      <point x="-264" y="457"/>
      <point x="-245" y="503"/>
      <point x="-245" y="544" type="curve" smooth="yes"/>
      <point x="-245" y="592"/>
      <point x="-265" y="616"/>
      <point x="-311" y="616" type="curve" smooth="yes"/>
      <point x="-327" y="616"/>
      <point x="-343" y="613"/>
      <point x="-359" y="607" type="curve"/>
      <point x="-359" y="551" type="line"/>
      <point x="-306" y="551" type="line"/>
      <point x="-306" y="511"/>
      <point x="-319" y="473"/>
      <point x="-340" y="434" type="curve"/>
      <point x="-293" y="423" type="line"/>
    </contour>
  </outline>
</glyph>
<glyph name="uni030C" format="1">
  <advance width="0"/>
  <unicode hex="030C"/>
  <note>
	uni030C
  </note>
  <outline>
    <contour>
      <point x="-187" y="472" type="line"/>
      <point x="-88" y="605" type="line"/>
      <point x="-141" y="616" type="line"/>
      <point x="-222" y="541" type="line"/>
      <point x="-227" y="541" type="line"/>
      <point x="-311" y="616" type="line"/>
      <point x="-362" y="605" type="line"/>
      <point x="-262" y="472" type="line"/>
    </contour>
  </outline>
</glyph>
<glyph name="uni031B" format="1">
  <advance width="0"/>
  <unicode hex="031B"/>
  <note>
	uni031B
  </note>
  <outline>
    <contour>
      <point x="169" y="340"/>
      <point x="234" y="388"/>
      <point x="234" y="464" type="curve" smooth="yes"/>
      <point x="234" y="507"/>
      <point x="213" y="546"/>
      <point x="154" y="546" type="curve" smooth="yes"/>
      <point x="137" y="546"/>
      <point x="123" y="544"/>
      <point x="106" y="539" type="curve"/>
      <point x="106" y="475" type="line"/>
      <point x="161" y="475" type="line"/>
      <point x="161" y="431"/>
      <point x="138" y="412"/>
      <point x="65" y="412" type="curve"/>
      <point x="65" y="348" type="line"/>
    </contour>
  </outline>
</glyph>
<glyph name="uni0324" format="1">
  <advance width="0"/>
  <unicode hex="0324"/>
  <note>
	uni0324
  </note>
  <outline>
    <contour>
      <point x="-208" y="-171"/>
      <point x="-191" y="-155"/>
      <point x="-191" y="-128" type="curve" smooth="yes"/>
      <point x="-191" y="-100"/>
      <point x="-208" y="-84"/>
      <point x="-237" y="-84" type="curve" smooth="yes"/>
      <point x="-266" y="-84"/>
      <point x="-284" y="-100"/>
      <point x="-284" y="-128" type="curve" smooth="yes"/>
      <point x="-284" y="-155"/>
      <point x="-266" y="-171"/>
      <point x="-237" y="-171" type="curve" smooth="yes"/>
    </contour>
    <contour>
      <point x="-366" y="-171"/>
      <point x="-349" y="-155"/>
      <point x="-349" y="-128" type="curve" smooth="yes"/>
      <point x="-349" y="-100"/>
      <point x="-366" y="-84"/>
      <point x="-395" y="-84" type="curve" smooth="yes"/>
      <point x="-423" y="-84"/>
      <point x="-441" y="-100"/>
      <point x="-441" y="-128" type="curve" smooth="yes"/>
      <point x="-441" y="-155"/>
      <point x="-423" y="-171"/>
      <point x="-395" y="-171" type="curve" smooth="yes"/>
    </contour>
  </outline>
</glyph>
<glyph name="uni0328" format="1">
  <advance width="0"/>
  <unicode hex="0328"/>
  <note>
	uni0328
  </note>
  <outline>
    <contour>
      <point x="197" y="-167"/>
      <point x="217" y="-163"/>
      <point x="234" y="-156" type="curve"/>
      <point x="220" y="-102" type="line"/>
      <point x="206" y="-106"/>
      <point x="193" y="-107"/>
      <point x="179" y="-107" type="curve" smooth="yes"/>
      <point x="165" y="-107"/>
      <point x="151" y="-106"/>
      <point x="141" y="-103" type="curve"/>
      <point x="139" y="-97"/>
      <point x="138" y="-89"/>
      <point x="138" y="-81" type="curve" smooth="yes"/>
      <point x="138" y="-49"/>
      <point x="153" y="-28"/>
      <point x="202" y="0" type="curve"/>
      <point x="156" y="13" type="line"/>
      <point x="106" y="-8"/>
      <point x="65" y="-33"/>
      <point x="65" y="-87" type="curve" smooth="yes"/>
      <point x="65" y="-140"/>
      <point x="107" y="-167"/>
      <point x="169" y="-167" type="curve" smooth="yes"/>
    </contour>
  </outline>
</glyph>
<glyph name="uni032E" format="1">
  <advance width="0"/>
  <unicode hex="032E"/>
  <note>
	uni032E
  </note>
  <outline>
    <contour>
      <point x="130" y="-116"/>
      <point x="139" y="-94"/>
      <point x="185" y="-94" type="curve" smooth="yes"/>
      <point x="231" y="-94"/>
      <point x="240" y="-116"/>
      <point x="243" y="-155" type="curve"/>
      <point x="320" y="-143" type="line"/>
      <point x="312" y="-74"/>
      <point x="270" y="-30"/>
      <point x="185" y="-30" type="curve" smooth="yes"/>
      <point x="100" y="-30"/>
      <point x="58" y="-74"/>
      <point x="50" y="-143" type="curve"/>
      <point x="127" y="-155" type="line"/>
    </contour>
  </outline>
</glyph>
<glyph name="uni0331" format="1">
  <advance width="0"/>
  <unicode hex="0331"/>
  <note>
	uni0331
  </note>
  <outline>
    <contour>
      <point x="-90" y="-105" type="line"/>
      <point x="-90" y="-30" type="line"/>
      <point x="-400" y="-30" type="line"/>
      <point x="-400" y="-105" type="line"/>
    </contour>
  </outline>
</glyph>
<glyph name="pi" format="1">
  <advance width="607"/>
  <unicode hex="03C0"/>
  <note>
	pi
  </note>
  <outline>
    <contour>
      <point x="518" y="-11"/>
      <point x="533" y="-9"/>
      <point x="545" y="-5" type="curve"/>
      <point x="545" y="65" type="line"/>
      <point x="534" y="64"/>
      <point x="518" y="63"/>
      <point x="503" y="63" type="curve" smooth="yes"/>
      <point x="490" y="63"/>
      <point x="478" y="64"/>
      <point x="467" y="66" type="curve"/>
      <point x="464" y="77"/>
      <point x="463" y="88"/>
      <point x="463" y="106" type="curve" smooth="yes"/>
      <point x="463" y="395" type="line"/>
      <point x="552" y="395" type="line"/>
      <point x="552" y="468" type="line"/>
      <point x="35" y="468" type="line"/>
      <point x="35" y="395" type="line"/>
      <point x="121" y="395" type="line"/>
      <point x="121" y="0" type="line"/>
      <point x="205" y="0" type="line"/>
      <point x="205" y="395" type="line"/>
      <point x="380" y="395" type="line"/>
      <point x="380" y="112" type="line" smooth="yes"/>
      <point x="380" y="27"/>
      <point x="420" y="-11"/>
      <point x="496" y="-11" type="curve" smooth="yes"/>
    </contour>
  </outline>
</glyph>
<glyph name="khoKhai-thai" format="1">
  <advance width="501"/>
  <unicode hex="0E02"/>
  <note>
	khoKhai-thai
  </note>
  <outline>
    <contour>
      <point x="377" y="-10"/>
      <point x="427" y="77"/>
      <point x="427" y="161" type="curve" smooth="yes"/>
      <point x="427" y="516" type="line"/>
      <point x="343" y="516" type="line"/>
      <point x="343" y="76" type="line"/>
      <point x="321" y="71"/>
      <point x="286" y="66"/>
      <point x="244" y="66" type="curve" smooth="yes"/>
      <point x="156" y="66"/>
      <point x="135" y="99"/>
      <point x="135" y="156" type="curve" smooth="yes"/>
      <point x="135" y="219" type="line" smooth="yes"/>
      <point x="135" y="303"/>
      <point x="212" y="333"/>
      <point x="212" y="418" type="curve" smooth="yes"/>
      <point x="212" y="468"/>
      <point x="189" y="516"/>
      <point x="107" y="516" type="curve" smooth="yes"/>
      <point x="50" y="516" type="line"/>
      <point x="50" y="444" type="line"/>
      <point x="95" y="444" type="line" smooth="yes"/>
      <point x="115" y="444"/>
      <point x="128" y="435"/>
      <point x="128" y="411" type="curve" smooth="yes"/>
      <point x="128" y="348"/>
      <point x="51" y="328"/>
      <point x="51" y="235" type="curve" smooth="yes"/>
      <point x="51" y="161" type="line" smooth="yes"/>
      <point x="51" y="73"/>
      <point x="86" y="-10"/>
      <point x="244" y="-10" type="curve" smooth="yes"/>
    </contour>
  </outline>
</glyph>
<glyph name="khoKhuat-thai" format="1">
  <advance width="524"/>
  <unicode hex="0E03"/>
  <note>
	khoKhuat-thai
  </note>
  <outline>
    <contour>
      <point x="397" y="-10"/>
      <point x="450" y="77"/>
      <point x="450" y="161" type="curve" smooth="yes"/>
      <point x="450" y="516" type="line"/>
      <point x="366" y="516" type="line"/>
      <point x="366" y="76" type="line"/>
      <point x="344" y="71"/>
      <point x="306" y="66"/>
      <point x="264" y="66" type="curve" smooth="yes"/>
      <point x="176" y="66"/>
      <point x="152" y="99"/>
      <point x="152" y="156" type="curve" smooth="yes"/>
      <point x="152" y="219" type="line" smooth="yes"/>
      <point x="152" y="303"/>
      <point x="262" y="316"/>
      <point x="262" y="409" type="curve" smooth="yes"/>
      <point x="262" y="452"/>
      <point x="254" y="481"/>
      <point x="237" y="516" type="curve"/>
      <point x="161" y="516" type="line"/>
      <point x="157" y="482"/>
      <point x="146" y="456"/>
      <point x="120" y="456" type="curve" smooth="yes"/>
      <point x="117" y="456"/>
      <point x="114" y="456"/>
      <point x="111" y="457" type="curve"/>
      <point x="111" y="516" type="line"/>
      <point x="51" y="516" type="line"/>
      <point x="47" y="500"/>
      <point x="46" y="486"/>
      <point x="46" y="473" type="curve" smooth="yes"/>
      <point x="46" y="428"/>
      <point x="67" y="401"/>
      <point x="106" y="401" type="curve" smooth="yes"/>
      <point x="139" y="401"/>
      <point x="157" y="413"/>
      <point x="172" y="433" type="curve"/>
      <point x="178" y="433" type="line"/>
      <point x="181" y="423"/>
      <point x="182" y="416"/>
      <point x="182" y="404" type="curve" smooth="yes"/>
      <point x="182" y="351"/>
      <point x="68" y="328"/>
      <point x="68" y="235" type="curve" smooth="yes"/>
      <point x="68" y="161" type="line" smooth="yes"/>
      <point x="68" y="73"/>
      <point x="106" y="-10"/>
      <point x="264" y="-10" type="curve" smooth="yes"/>
    </contour>
  </outline>
</glyph>
